<svg version="1.1" id="Camada_1" xmlns="http://www.w3.org/2000/svg" x="0" y="0" viewBox="0 0 85.4 20" style="enable-background:new 0 0 85.4 20" xml:space="preserve"><style>.st0{fill:#fff}</style><path class="st0" d="M26.8 6.3c-2.1 0-3.6 1.6-3.6 3.7s1.6 3.7 3.7 3.7c1.1 0 2.1-.4 2.8-1.2l-.9-.9c-.5.6-1.2.8-2 .8-1.3 0-2.2-.8-2.4-1.9h5.5c.1-.3.1-.5.1-.7.1-2-1.3-3.5-3.2-3.5zm-2.3 3.1c.2-1.1 1.1-1.8 2.2-1.8s1.9.7 2.1 1.8h-4.3zm15.3-3.1c-1 0-1.9.5-2.4 1.3-.5-.8-1.3-1.3-2.3-1.3-.9 0-1.6.4-2.1 1v-.8h-1.3v7.1H33V9.3c0-1 .8-1.7 1.7-1.7s1.7.6 1.7 1.7v4.3h1.3V9c.1-.9.8-1.4 1.7-1.4 1 0 1.7.6 1.7 1.7v4.3h1.3V9c.1-1.6-1.1-2.7-2.6-2.7zm8.2 0c-1 0-1.9.4-2.4 1.1v-1h-1.3v10.4h1.3v-4.3c.5.7 1.4 1.1 2.4 1.1 1.9 0 3.4-1.6 3.4-3.7S50 6.3 48 6.3zm-.2 6.1c-1.3 0-2.2-1-2.2-2.4s.9-2.4 2.2-2.4 2.3 1 2.3 2.4-.9 2.4-2.3 2.4zm6.5-5.9H53v7.1h1.3V6.5zm5.3-.2c-.9 0-1.5.4-1.9 1v-.8h-1.3v7.1h1.3v-4c0-1.3.7-1.9 1.7-1.9.5 0 .8.1 1.1.4l.9-.9c-.5-.6-1.1-.9-1.8-.9zm4.1.2h-1.3v7.1h1.3V6.5zm5.1 1.1c.8 0 1.4.3 1.8.8l.9-.9c-.7-.8-1.6-1.2-2.7-1.2-2.1 0-3.7 1.6-3.7 3.7s1.6 3.7 3.7 3.7c1.1 0 2.1-.4 2.7-1.2l-.9-.9c-.4.5-1.1.8-1.8.8-1.3 0-2.3-1-2.3-2.4s1-2.4 2.3-2.4zm8.6 2.9c0 1.2-.6 1.9-1.7 1.9s-1.7-.7-1.7-1.9v-4h-1.3v4.1c0 1.8 1.2 3.1 3 3.1s3-1.3 3-3.1V6.5h-1.3v4zm4.3-2.2c0-.5.4-.8 1.2-.8s1.3.3 1.7.8l.9-.9c-.6-.8-1.4-1.2-2.6-1.2-1.6 0-2.5.8-2.5 2.1 0 2.6 3.8 1.7 3.8 3.2 0 .5-.5.8-1.3.8s-1.5-.3-2-.9l-.9 1c.7.8 1.7 1.3 2.9 1.3 1.6 0 2.6-.8 2.6-2.2-.1-2.6-3.8-1.8-3.8-3.2zM63 3.8c-.4 0-.7.3-.7.7s.3.8.7.8.7-.3.7-.8-.3-.7-.7-.7zm-9.3 0c-.4 0-.7.3-.7.7s.3.8.7.8.7-.3.7-.8-.3-.7-.7-.7z"/><path d="M17.2 1H2.8C1.8 1 1 1.8 1 2.8v14.4c0 1 .8 1.8 1.8 1.8h14.4c1 0 1.8-.8 1.8-1.8V2.8c0-1-.8-1.8-1.8-1.8z" style="fill:#020303"/><path class="st0" d="M18 0H2C.9 0 0 .9 0 2v16c0 1.1.9 2 2 2h16c1.1 0 2-.9 2-2V2c0-1.1-.9-2-2-2zm-2.1 13.5c-1.2 2.1-3.5 3.3-5.9 3.3-3.8 0-6.8-3.1-6.8-6.9 0-3.8 3.2-6.9 6.9-6.8 2.4 0 4.6 1.4 5.8 3.3 0 .1 0 .1-.1.2l-1.6.9H14c-.9-1.4-2.4-2.3-4.1-2.3-2.6 0-4.8 2.2-4.7 4.8 0 2.6 2.2 4.7 4.7 4.7 1.7 0 3.2-.9 4-2.3 0-.1.1-.1.2 0l1.6.9c.2.1.2.2.2.2zm.9-2.6c0 .1-.1.1-.1.1H7.5c-.1 0-.1-.1-.1-.1-.1-.3-.1-.6-.1-.9s0-.6.1-.9c0-.1.1-.1.1-.1h9.1c.1 0 .1.1.1.1 0 .3.1.6.1.9v.9z"/></svg>