<svg version="1.1" id="Camada_1" xmlns="http://www.w3.org/2000/svg" x="0" y="0" viewBox="0 0 130.1 130" style="enable-background:new 0 0 130.1 130" xml:space="preserve"><style>.st0{fill:#fff}</style><circle class="st0" cx="38.1" cy="2.2" r="2.2"/><circle class="st0" cx="42.6" cy="2.2" r="2.2"/><circle class="st0" cx="60.6" cy="2.2" r="2.2"/><circle class="st0" cx="78.5" cy="2.2" r="2.2"/><circle class="st0" cx="83" cy="2.2" r="2.2"/><circle class="st0" cx="38.1" cy="6.7" r="2.2"/><circle class="st0" cx="56.1" cy="6.7" r="2.2"/><circle class="st0" cx="60.6" cy="6.7" r="2.2"/><circle class="st0" cx="78.5" cy="6.7" r="2.2"/><circle class="st0" cx="38.1" cy="11.2" r="2.2"/><circle class="st0" cx="42.6" cy="11.2" r="2.2"/><circle class="st0" cx="47.1" cy="11.2" r="2.2"/><circle class="st0" cx="51.6" cy="11.2" r="2.2"/><circle class="st0" cx="60.6" cy="11.2" r="2.2"/><circle transform="rotate(-78.018 65 11.2)" class="st0" cx="65" cy="11.2" r="2.2"/><circle transform="rotate(-42.072 69.505 11.179)" class="st0" cx="69.5" cy="11.2" r="2.2"/><circle class="st0" cx="83" cy="11.2" r="2.2"/><circle class="st0" cx="51.6" cy="15.7" r="2.2"/><circle transform="rotate(-78.018 65 15.7)" class="st0" cx="65" cy="15.7" r="2.2"/><circle class="st0" cx="78.5" cy="15.7" r="2.2"/><circle class="st0" cx="56.1" cy="20.2" r="2.2"/><circle class="st0" cx="60.6" cy="20.2" r="2.2"/><circle transform="rotate(-36.865 69.48 20.188)" class="st0" cx="69.5" cy="20.2" r="2.2"/><circle class="st0" cx="78.5" cy="20.2" r="2.2"/><circle class="st0" cx="83" cy="20.2" r="2.2"/><circle class="st0" cx="87.5" cy="20.2" r="2.2"/><circle class="st0" cx="38.1" cy="24.7" r="2.2"/><circle class="st0" cx="42.6" cy="24.7" r="2.2"/><circle class="st0" cx="51.6" cy="24.7" r="2.2"/><circle transform="rotate(-76.714 65.005 24.7)" class="st0" cx="65" cy="24.7" r="2.2"/><circle class="st0" cx="74" cy="24.7" r="2.2"/><circle class="st0" cx="78.5" cy="24.7" r="2.2"/><circle class="st0" cx="91.9" cy="24.7" r="2.2"/><circle class="st0" cx="38.1" cy="29.1" r="2.2"/><circle class="st0" cx="47.1" cy="29.1" r="2.2"/><circle class="st0" cx="56.1" cy="29.1" r="2.2"/><circle transform="rotate(-76.714 65.006 29.1)" class="st0" cx="65" cy="29.1" r="2.2"/><circle class="st0" cx="74" cy="29.1" r="2.2"/><circle class="st0" cx="83" cy="29.1" r="2.2"/><circle class="st0" cx="91.9" cy="29.1" r="2.2"/><circle class="st0" cx="38.1" cy="33.6" r="2.2"/><circle class="st0" cx="51.6" cy="33.6" r="2.2"/><circle class="st0" cx="56.1" cy="33.6" r="2.2"/><circle class="st0" cx="60.6" cy="33.6" r="2.2"/><circle transform="rotate(-76.714 65.006 33.6)" class="st0" cx="65" cy="33.6" r="2.2"/><circle transform="rotate(-36.865 69.48 33.587)" class="st0" cx="69.5" cy="33.6" r="2.2"/><circle class="st0" cx="74" cy="33.6" r="2.2"/><circle class="st0" cx="78.5" cy="33.6" r="2.2"/><circle class="st0" cx="83" cy="33.6" r="2.2"/><circle class="st0" cx="11.2" cy="38.1" r="2.2"/><circle class="st0" cx="15.7" cy="38.1" r="2.2"/><circle class="st0" cx="20.2" cy="38.1" r="2.2"/><circle class="st0" cx="29.2" cy="38.1" r="2.2"/><circle class="st0" cx="38.1" cy="38.1" r="2.2"/><circle class="st0" cx="51.6" cy="38.1" r="2.2"/><circle transform="rotate(-76.714 65.006 38.1)" class="st0" cx="65" cy="38.1" r="2.2"/><circle transform="rotate(-36.865 69.479 38.087)" class="st0" cx="69.5" cy="38.1" r="2.2"/><circle class="st0" cx="91.9" cy="38.1" r="2.2"/><circle class="st0" cx="96.4" cy="38.1" r="2.2"/><circle class="st0" cx="100.9" cy="38.1" r="2.2"/><circle class="st0" cx="105.4" cy="38.1" r="2.2"/><circle class="st0" cx="118.8" cy="38.1" r="2.2"/><circle class="st0" cx="123.3" cy="38.1" r="2.2"/><circle class="st0" cx="127.8" cy="38.1" r="2.2"/><circle class="st0" cx="11.2" cy="42.6" r="2.2"/><circle class="st0" cx="24.7" cy="42.6" r="2.2"/><circle class="st0" cx="33.7" cy="42.6" r="2.2"/><circle class="st0" cx="56.1" cy="42.6" r="2.2"/><circle class="st0" cx="74" cy="42.6" r="2.2"/><circle class="st0" cx="83" cy="42.6" r="2.2"/><circle class="st0" cx="87.5" cy="42.6" r="2.2"/><circle class="st0" cx="96.4" cy="42.6" r="2.2"/><circle class="st0" cx="100.9" cy="42.6" r="2.2"/><circle class="st0" cx="105.4" cy="42.6" r="2.2"/><circle class="st0" cx="127.8" cy="42.6" r="2.2"/><circle class="st0" cx="11.2" cy="47.1" r="2.2"/><circle class="st0" cx="15.7" cy="47.1" r="2.2"/><circle class="st0" cx="20.2" cy="47.1" r="2.2"/><circle class="st0" cx="29.2" cy="47.1" r="2.2"/><circle class="st0" cx="33.7" cy="47.1" r="2.2"/><circle class="st0" cx="38.1" cy="47.1" r="2.2"/><circle class="st0" cx="42.6" cy="47.1" r="2.2"/><circle class="st0" cx="96.4" cy="47.1" r="2.2"/><circle class="st0" cx="100.9" cy="47.1" r="2.2"/><circle class="st0" cx="109.9" cy="47.1" r="2.2"/><circle class="st0" cx="6.8" cy="51.6" r="2.2"/><circle class="st0" cx="24.7" cy="51.6" r="2.2"/><circle class="st0" cx="38.1" cy="51.6" r="2.2"/><circle class="st0" cx="42.6" cy="51.6" r="2.2"/><circle class="st0" cx="87.5" cy="51.6" r="2.2"/><circle class="st0" cx="96.4" cy="51.6" r="2.2"/><circle class="st0" cx="100.9" cy="51.6" r="2.2"/><circle class="st0" cx="105.4" cy="51.6" r="2.2"/><circle class="st0" cx="109.9" cy="51.6" r="2.2"/><circle class="st0" cx="123.3" cy="51.6" r="2.2"/><circle class="st0" cx="11.2" cy="56" r="2.2"/><circle class="st0" cx="20.2" cy="56" r="2.2"/><circle class="st0" cx="24.7" cy="56" r="2.2"/><circle class="st0" cx="29.2" cy="56" r="2.2"/><circle class="st0" cx="38.1" cy="56" r="2.2"/><circle class="st0" cx="96.4" cy="56" r="2.2"/><circle class="st0" cx="105.4" cy="56" r="2.2"/><circle class="st0" cx="123.3" cy="56" r="2.2"/><circle class="st0" cx="127.8" cy="56" r="2.2"/><circle class="st0" cx="11.2" cy="60.5" r="2.2"/><circle class="st0" cx="15.7" cy="60.5" r="2.2"/><circle class="st0" cx="33.7" cy="60.5" r="2.2"/><circle class="st0" cx="38.1" cy="60.5" r="2.2"/><circle class="st0" cx="42.6" cy="60.5" r="2.2"/><circle class="st0" cx="87.5" cy="60.5" r="2.2"/><circle class="st0" cx="91.9" cy="60.5" r="2.2"/><circle class="st0" cx="96.4" cy="60.5" r="2.2"/><circle class="st0" cx="100.9" cy="60.5" r="2.2"/><circle class="st0" cx="109.9" cy="60.5" r="2.2"/><circle class="st0" cx="114.4" cy="60.5" r="2.2"/><circle class="st0" cx="123.3" cy="60.5" r="2.2"/><circle class="st0" cx="127.8" cy="60.5" r="2.2"/><circle class="st0" cx="2.3" cy="65" r="2.2"/><circle class="st0" cx="20.2" cy="65" r="2.2"/><circle class="st0" cx="29.2" cy="65" r="2.2"/><circle class="st0" cx="33.7" cy="65" r="2.2"/><circle class="st0" cx="38.1" cy="65" r="2.2"/><circle class="st0" cx="42.6" cy="65" r="2.2"/><circle class="st0" cx="91.9" cy="65" r="2.2"/><circle class="st0" cx="105.4" cy="65" r="2.2"/><circle class="st0" cx="123.3" cy="65" r="2.2"/><circle class="st0" cx="6.8" cy="69.5" r="2.2"/><circle class="st0" cx="15.7" cy="69.5" r="2.2"/><circle class="st0" cx="42.6" cy="69.5" r="2.2"/><circle class="st0" cx="87.5" cy="69.5" r="2.2"/><circle class="st0" cx="91.9" cy="69.5" r="2.2"/><circle class="st0" cx="96.4" cy="69.5" r="2.2"/><circle class="st0" cx="100.9" cy="69.5" r="2.2"/><circle class="st0" cx="109.9" cy="69.5" r="2.2"/><circle class="st0" cx="114.4" cy="69.5" r="2.2"/><circle class="st0" cx="2.3" cy="74" r="2.2"/><circle class="st0" cx="6.8" cy="74" r="2.2"/><circle class="st0" cx="11.2" cy="74" r="2.2"/><circle class="st0" cx="15.7" cy="74" r="2.2"/><circle class="st0" cx="20.2" cy="74" r="2.2"/><circle class="st0" cx="24.7" cy="74" r="2.2"/><circle class="st0" cx="29.2" cy="74" r="2.2"/><circle class="st0" cx="33.7" cy="74" r="2.2"/><circle class="st0" cx="91.9" cy="74" r="2.2"/><circle class="st0" cx="96.4" cy="74" r="2.2"/><circle class="st0" cx="109.9" cy="74" r="2.2"/><circle class="st0" cx="114.4" cy="74" r="2.2"/><circle class="st0" cx="118.8" cy="74" r="2.2"/><circle class="st0" cx="2.3" cy="78.4" r="2.2"/><circle class="st0" cx="6.8" cy="78.4" r="2.2"/><circle class="st0" cx="11.2" cy="78.4" r="2.2"/><circle class="st0" cx="20.2" cy="78.4" r="2.2"/><circle class="st0" cx="24.7" cy="78.4" r="2.2"/><circle class="st0" cx="33.7" cy="78.4" r="2.2"/><circle class="st0" cx="42.6" cy="78.4" r="2.2"/><circle class="st0" cx="91.9" cy="78.4" r="2.2"/><circle class="st0" cx="96.4" cy="78.4" r="2.2"/><circle class="st0" cx="100.9" cy="78.4" r="2.2"/><circle class="st0" cx="105.4" cy="78.4" r="2.2"/><circle class="st0" cx="114.4" cy="78.4" r="2.2"/><circle class="st0" cx="118.8" cy="78.4" r="2.2"/><circle class="st0" cx="123.3" cy="78.4" r="2.2"/><circle class="st0" cx="127.8" cy="78.4" r="2.2"/><circle class="st0" cx="2.3" cy="82.9" r="2.2"/><circle class="st0" cx="24.7" cy="82.9" r="2.2"/><circle class="st0" cx="29.2" cy="82.9" r="2.2"/><circle class="st0" cx="38.1" cy="82.9" r="2.2"/><circle class="st0" cx="42.6" cy="82.9" r="2.2"/><circle class="st0" cx="100.9" cy="82.9" r="2.2"/><circle class="st0" cx="114.4" cy="82.9" r="2.2"/><circle class="st0" cx="2.3" cy="87.4" r="2.2"/><circle class="st0" cx="11.2" cy="87.4" r="2.2"/><circle class="st0" cx="20.2" cy="87.4" r="2.2"/><circle class="st0" cx="42.6" cy="87.4" r="2.2"/><circle class="st0" cx="47.1" cy="87.4" r="2.2"/><circle transform="rotate(-53 69.5 87.388)" class="st0" cx="69.5" cy="87.4" r="2.2"/><circle class="st0" cx="83" cy="87.4" r="2.2"/><circle class="st0" cx="87.5" cy="87.4" r="2.2"/><circle class="st0" cx="91.9" cy="87.4" r="2.2"/><circle class="st0" cx="100.9" cy="87.4" r="2.2"/><circle class="st0" cx="105.4" cy="87.4" r="2.2"/><circle class="st0" cx="109.9" cy="87.4" r="2.2"/><circle class="st0" cx="114.4" cy="87.4" r="2.2"/><circle class="st0" cx="2.3" cy="91.9" r="2.2"/><circle class="st0" cx="15.7" cy="91.9" r="2.2"/><circle class="st0" cx="24.7" cy="91.9" r="2.2"/><circle class="st0" cx="29.2" cy="91.9" r="2.2"/><circle class="st0" cx="33.7" cy="91.9" r="2.2"/><circle class="st0" cx="38.1" cy="91.9" r="2.2"/><circle class="st0" cx="47.1" cy="91.9" r="2.2"/><circle class="st0" cx="56.1" cy="91.9" r="2.2"/><circle transform="rotate(-53 69.5 91.889)" class="st0" cx="69.5" cy="91.9" r="2.2"/><circle class="st0" cx="83" cy="91.9" r="2.2"/><circle class="st0" cx="87.5" cy="91.9" r="2.2"/><circle class="st0" cx="91.9" cy="91.9" r="2.2"/><circle class="st0" cx="96.4" cy="91.9" r="2.2"/><circle class="st0" cx="100.9" cy="91.9" r="2.2"/><circle class="st0" cx="105.4" cy="91.9" r="2.2"/><circle class="st0" cx="109.9" cy="91.9" r="2.2"/><circle class="st0" cx="118.8" cy="91.9" r="2.2"/><circle class="st0" cx="127.8" cy="91.9" r="2.2"/><circle class="st0" cx="38.1" cy="96.4" r="2.2"/><circle class="st0" cx="47.1" cy="96.4" r="2.2"/><circle class="st0" cx="51.6" cy="96.4" r="2.2"/><circle class="st0" cx="56.1" cy="96.4" r="2.2"/><circle transform="rotate(-80.781 65.002 96.4)" class="st0" cx="65" cy="96.4" r="2.2"/><circle class="st0" cx="83" cy="96.4" r="2.2"/><circle class="st0" cx="87.5" cy="96.4" r="2.2"/><circle class="st0" cx="91.9" cy="96.4" r="2.2"/><circle class="st0" cx="109.9" cy="96.4" r="2.2"/><circle class="st0" cx="114.4" cy="96.4" r="2.2"/><circle class="st0" cx="123.3" cy="96.4" r="2.2"/><circle class="st0" cx="127.8" cy="96.4" r="2.2"/><circle class="st0" cx="47.1" cy="100.9" r="2.2"/><circle class="st0" cx="56.1" cy="100.9" r="2.2"/><circle transform="rotate(-80.781 65.002 100.9)" class="st0" cx="65" cy="100.9" r="2.2"/><circle class="st0" cx="78.5" cy="100.9" r="2.2"/><circle class="st0" cx="87.5" cy="100.9" r="2.2"/><circle class="st0" cx="91.9" cy="100.9" r="2.2"/><circle class="st0" cx="100.9" cy="100.9" r="2.2"/><circle class="st0" cx="109.9" cy="100.9" r="2.2"/><circle class="st0" cx="42.6" cy="105.3" r="2.2"/><circle class="st0" cx="51.6" cy="105.3" r="2.2"/><circle class="st0" cx="60.6" cy="105.3" r="2.2"/><circle class="st0" cx="87.5" cy="105.3" r="2.2"/><circle class="st0" cx="91.9" cy="105.3" r="2.2"/><circle class="st0" cx="109.9" cy="105.3" r="2.2"/><circle class="st0" cx="114.4" cy="105.3" r="2.2"/><circle class="st0" cx="38.1" cy="109.8" r="2.2"/><circle class="st0" cx="42.6" cy="109.8" r="2.2"/><circle class="st0" cx="56.1" cy="109.8" r="2.2"/><circle class="st0" cx="60.6" cy="109.8" r="2.2"/><circle transform="rotate(-80.781 65.002 109.8)" class="st0" cx="65" cy="109.8" r="2.2"/><circle transform="rotate(-53 69.5 109.79)" class="st0" cx="69.5" cy="109.8" r="2.2"/><circle class="st0" cx="83" cy="109.8" r="2.2"/><circle class="st0" cx="91.9" cy="109.8" r="2.2"/><circle class="st0" cx="96.4" cy="109.8" r="2.2"/><circle class="st0" cx="100.9" cy="109.8" r="2.2"/><circle class="st0" cx="105.4" cy="109.8" r="2.2"/><circle class="st0" cx="109.9" cy="109.8" r="2.2"/><circle class="st0" cx="114.4" cy="109.8" r="2.2"/><circle class="st0" cx="118.8" cy="109.8" r="2.2"/><circle class="st0" cx="127.8" cy="109.8" r="2.2"/><circle class="st0" cx="38.1" cy="114.3" r="2.2"/><circle class="st0" cx="42.6" cy="114.3" r="2.2"/><circle class="st0" cx="47.1" cy="114.3" r="2.2"/><circle class="st0" cx="51.6" cy="114.3" r="2.2"/><circle class="st0" cx="60.6" cy="114.3" r="2.2"/><circle transform="rotate(-80.781 65.002 114.3)" class="st0" cx="65" cy="114.3" r="2.2"/><circle transform="rotate(-53 69.5 114.29)" class="st0" cx="69.5" cy="114.3" r="2.2"/><circle class="st0" cx="87.5" cy="114.3" r="2.2"/><circle class="st0" cx="91.9" cy="114.3" r="2.2"/><circle class="st0" cx="96.4" cy="114.3" r="2.2"/><circle class="st0" cx="105.4" cy="114.3" r="2.2"/><circle class="st0" cx="123.3" cy="114.3" r="2.2"/><circle class="st0" cx="38.1" cy="118.8" r="2.2"/><circle class="st0" cx="42.6" cy="118.8" r="2.2"/><circle class="st0" cx="56.1" cy="118.8" r="2.2"/><circle class="st0" cx="60.6" cy="118.8" r="2.2"/><circle class="st0" cx="74" cy="118.8" r="2.2"/><circle class="st0" cx="78.5" cy="118.8" r="2.2"/><circle class="st0" cx="83" cy="118.8" r="2.2"/><circle class="st0" cx="87.5" cy="118.8" r="2.2"/><circle class="st0" cx="91.9" cy="118.8" r="2.2"/><circle class="st0" cx="96.4" cy="118.8" r="2.2"/><circle class="st0" cx="100.9" cy="118.8" r="2.2"/><circle class="st0" cx="105.4" cy="118.8" r="2.2"/><circle class="st0" cx="109.9" cy="118.8" r="2.2"/><circle class="st0" cx="118.8" cy="118.8" r="2.2"/><circle class="st0" cx="123.3" cy="118.8" r="2.2"/><circle class="st0" cx="42.6" cy="123.3" r="2.2"/><circle class="st0" cx="78.5" cy="123.3" r="2.2"/><circle class="st0" cx="91.9" cy="123.3" r="2.2"/><circle class="st0" cx="96.4" cy="123.3" r="2.2"/><circle class="st0" cx="100.9" cy="123.3" r="2.2"/><circle class="st0" cx="109.9" cy="123.3" r="2.2"/><circle class="st0" cx="123.3" cy="123.3" r="2.2"/><circle class="st0" cx="47.1" cy="127.8" r="2.2"/><circle class="st0" cx="56.1" cy="127.8" r="2.2"/><circle transform="rotate(-80.781 65.002 127.8)" class="st0" cx="65" cy="127.8" r="2.2"/><circle class="st0" cx="78.5" cy="127.8" r="2.2"/><circle class="st0" cx="83" cy="127.8" r="2.2"/><circle class="st0" cx="91.9" cy="127.8" r="2.2"/><circle class="st0" cx="96.4" cy="127.8" r="2.2"/><circle class="st0" cx="100.9" cy="127.8" r="2.2"/><circle class="st0" cx="109.9" cy="127.8" r="2.2"/><path class="st0" d="M0 15.7c0 8.7 6.9 15.7 15.7 15.7 8.7 0 15.7-6.9 15.7-15.7C31.4 7 24.5 0 15.7 0 7 0 0 6.9 0 15.7zm15.7 11.2C9.4 26.9 4.5 22 4.5 15.7c0-6.3 4.9-11.2 11.2-11.2 6.3 0 11.2 4.9 11.2 11.2 0 6.3-4.9 11.2-11.2 11.2zM98.7 15.7c0 8.7 6.9 15.7 15.7 15.7 8.7 0 15.7-6.9 15.7-15.7-.1-8.8-7-15.7-15.7-15.7-8.8 0-15.7 6.9-15.7 15.7zm15.7 11.2c-6.3 0-11.2-4.9-11.2-11.2 0-6.3 4.9-11.2 11.2-11.2 6.3 0 11.2 4.9 11.2 11.2 0 6.3-5 11.2-11.2 11.2zM0 114.3C0 123 6.9 130 15.7 130c8.7 0 15.7-6.9 15.7-15.7 0-8.7-6.9-15.7-15.7-15.7-8.7 0-15.7 7-15.7 15.7zm15.7 11.2c-6.3 0-11.2-4.9-11.2-11.2 0-6.3 4.9-11.2 11.2-11.2 6.3 0 11.2 4.9 11.2 11.2 0 6.3-4.9 11.2-11.2 11.2z"/><circle class="st0" cx="15.7" cy="15.7" r="6.7"/><circle class="st0" cx="114.4" cy="15.7" r="6.7"/><circle class="st0" cx="15.7" cy="114.3" r="6.7"/><path class="st0" d="M65.7 49.2c-8.5 0-15.4 6.9-15.4 15.3 0 2.7.7 5.4 2.1 7.7L49.8 80c0 .1 0 .3.1.4.1.1.2.1.3.1h.1l8.1-2.6c2.2 1.2 4.7 1.8 7.3 1.8 8.5 0 15.4-6.9 15.4-15.3 0-8.3-6.9-15.2-15.4-15.2zm0 27.5c-2.4 0-4.7-.7-6.7-2-.1 0-.1-.1-.2-.1h-.1l-4.1 1.3 1.3-3.9c0-.1 0-.3-.1-.4-1.5-2.1-2.3-4.5-2.3-7.1 0-6.7 5.5-12.1 12.2-12.1 6.7 0 12.2 5.4 12.2 12.1 0 6.7-5.5 12.2-12.2 12.2z"/><path class="st0" d="M73 67.3c-.1 0-2.4-1.2-2.8-1.3-.2-.1-.3-.1-.5-.1-.3 0-.6.2-.8.5-.2.3-.9 1.1-1.1 1.4l-.1.1s-.4-.1-.5-.2c-2.5-1.1-4.3-3.6-4.6-4.1v-.1s.1-.1.1-.2l.4-.4.2-.2c.2-.2.3-.4.4-.6l.1-.1c.2-.5 0-.9 0-1-.1-.1-1-2.4-1.1-2.7-.2-.6-.6-.9-1-.9h-.2c-.2 0-1.4.2-1.9.5s-1.5 1.4-1.5 3.4c0 1.7 1.1 3.4 1.6 4l.1.1c1.8 2.7 4.1 4.6 6.4 5.6 2.2.9 3.3 1 3.9 1h.7c.8-.1 2.4-.9 2.8-2 .3-.8.4-1.8.2-2.1-.3-.3-.5-.5-.8-.6zM46.9 67.3c-1.1.1-2 1-2 2.2s.9 2.1 2 2.2v-4.4zM46.9 62.8c-1.1.1-2 1-2 2.2s.9 2.1 2 2.2v-4.4zM46.9 53.8c-1.1.1-2 1-2 2.2s.9 2.1 2 2.2v-4.4zM53.7 46.4c-.3-.9-1.1-1.5-2.1-1.5s-1.8.7-2.1 1.5h4.2zM58.2 46.4c-.3-.9-1.1-1.5-2.1-1.5s-1.8.7-2.1 1.5h4.2zM62.7 46.4c-.3-.9-1.1-1.5-2.1-1.5s-1.8.7-2.1 1.5h4.2zM67.1 46.4c-.3-.9-1.1-1.5-2.1-1.5s-1.8.7-2.1 1.5h4.2zM83.9 54v4c.7-.4 1.3-1.1 1.3-2s-.5-1.6-1.3-2zM83 44.9c-1 0-1.8.7-2.1 1.5H82c1.1 0 1.9.9 1.9 1.9v.7c.7-.4 1.3-1.1 1.3-2 0-1.1-1-2.1-2.2-2.1zM83.9 58.5v4c.7-.4 1.3-1.1 1.3-2s-.5-1.6-1.3-2zM83.9 63v4c.7-.4 1.3-1.1 1.3-2s-.5-1.6-1.3-2zM71.9 83.4c.2.9 1.1 1.6 2.1 1.6s1.9-.7 2.1-1.6h-4.2zM83.9 80.9v.6c0 1.1-.9 1.9-1.9 1.9h-1.1c.2.9 1.1 1.6 2.1 1.6 1.2 0 2.2-1 2.2-2.2 0-.8-.5-1.5-1.3-1.9zM48.8 83.4c-1.1 0-1.9-.9-1.9-1.9v-.8c-1.1.1-2 1-2 2.2 0 1.2 1 2.2 2.2 2.2 1 0 1.9-.7 2.1-1.6h-.4z"/></svg>