<svg xmlns="http://www.w3.org/2000/svg" viewBox="0 0 286.3 286.3"><linearGradient id="a" gradientUnits="userSpaceOnUse" x1="146.456" y1="314.713" x2="146.456" y2="68.604" gradientTransform="matrix(1 0 0 -1 0 332.158)"><stop offset="0" stop-color="#4ac14b"/><stop offset="1" stop-color="#06853a"/></linearGradient><path d="M146.5 17.4c-68.4 0-124 55.2-124 123.1 0 26.9 8.8 51.9 23.6 72.2l-15.5 45.7 47.6-15.1c19.6 12.8 43 20.3 68.2 20.3 68.4 0 124-55.2 124-123 .1-68-55.6-123.2-123.9-123.2z" fill-rule="evenodd" clip-rule="evenodd" fill="url(#a)"/><path d="M286.3 139.5c0 77-62.9 139.4-140.5 139.4-24.6 0-47.8-6.3-67.9-17.4L0 286.3l25.4-74.8c-12.8-21-20.2-45.7-20.2-72C5.2 62.4 68.1 0 145.7 0c77.7 0 140.6 62.4 140.6 139.5zM145.7 22.2c-65.2 0-118.2 52.6-118.2 117.2 0 25.6 8.4 49.4 22.5 68.7l-14.8 43.5 45.4-14.4c18.7 12.2 41 19.4 65 19.4 65.1 0 118.1-52.6 118.1-117.2.2-64.6-52.8-117.2-118-117.2zm71 149.4c-.9-1.4-3.2-2.3-6.6-4-3.4-1.7-20.4-10-23.5-11.1-3.2-1.1-5.5-1.7-7.7 1.7-2.3 3.4-8.9 11.1-10.9 13.4-2 2.3-4 2.6-7.5.9-3.5-1.7-14.6-5.3-27.7-17-10.2-9.1-17.1-20.3-19.2-23.7-2-3.4-.2-5.3 1.5-7 1.6-1.5 3.5-4 5.2-6 1.7-2 2.3-3.4 3.4-5.7s.6-4.3-.3-6c-.9-1.7-7.7-18.5-10.6-25.4-2.9-6.8-5.7-6.6-7.7-6.6s-5.7.6-5.7.6-6.9.9-10.1 4.3c-3.2 3.4-12.1 11.7-12.1 28.5s12.3 33.1 14.1 35.3c1.7 2.3 23.8 37.9 58.8 51.6 35 13.7 35 9.1 41.3 8.5 6.3-.6 20.4-8.3 23.3-16.2 2.9-7.9 2.9-14.7 2-16.1z" fill-rule="evenodd" clip-rule="evenodd" fill="#fff"/></svg>