<svg xmlns="http://www.w3.org/2000/svg" xmlns:xlink="http://www.w3.org/1999/xlink" width="300" zoomAndPan="magnify" viewBox="0 0 224.87999 52.499999" height="70" preserveAspectRatio="xMidYMid meet" version="1.0"><defs><g/><clipPath id="61db338042"><path d="M 1.746094 1.195312 L 51.199219 1.195312 L 51.199219 50.269531 L 1.746094 50.269531 Z M 1.746094 1.195312 " clip-rule="nonzero"/></clipPath><clipPath id="43624a47f5"><path d="M 7.6875 1.195312 L 45.160156 1.195312 C 48.445312 1.195312 51.105469 3.855469 51.105469 7.140625 L 51.105469 44.324219 C 51.105469 47.609375 48.445312 50.269531 45.160156 50.269531 L 7.6875 50.269531 C 4.40625 50.269531 1.746094 47.609375 1.746094 44.324219 L 1.746094 7.140625 C 1.746094 3.855469 4.40625 1.195312 7.6875 1.195312 Z M 7.6875 1.195312 " clip-rule="nonzero"/></clipPath><clipPath id="b423f56909"><path d="M 0.746094 0.195312 L 50.164062 0.195312 L 50.164062 49.269531 L 0.746094 49.269531 Z M 0.746094 0.195312 " clip-rule="nonzero"/></clipPath><clipPath id="550ceda3e2"><path d="M 6.6875 0.195312 L 44.160156 0.195312 C 47.445312 0.195312 50.105469 2.855469 50.105469 6.140625 L 50.105469 43.324219 C 50.105469 46.609375 47.445312 49.269531 44.160156 49.269531 L 6.6875 49.269531 C 3.40625 49.269531 0.746094 46.609375 0.746094 43.324219 L 0.746094 6.140625 C 0.746094 2.855469 3.40625 0.195312 6.6875 0.195312 Z M 6.6875 0.195312 " clip-rule="nonzero"/></clipPath><clipPath id="7f2ebf889b"><rect x="0" width="51" y="0" height="50"/></clipPath><clipPath id="ff7cbffbe0"><path d="M 6.203125 9.277344 L 44.832031 9.277344 L 44.832031 41.964844 L 6.203125 41.964844 Z M 6.203125 9.277344 " clip-rule="nonzero"/></clipPath></defs><g clip-path="url(#61db338042)"><g clip-path="url(#43624a47f5)"><g transform="matrix(1, 0, 0, 1, 1, 1)"><g clip-path="url(#7f2ebf889b)"><g clip-path="url(#b423f56909)"><g clip-path="url(#550ceda3e2)"><path fill="#eceff1" d="M 0.746094 0.195312 L 50.199219 0.195312 L 50.199219 49.269531 L 0.746094 49.269531 Z M 0.746094 0.195312 " fill-opacity="1" fill-rule="nonzero"/></g></g></g></g></g></g><g clip-path="url(#ff7cbffbe0)"><path fill="#2a2a2a" d="M 28.933594 19.152344 L 6.210938 41.871094 L 6.210938 32.015625 L 28.933594 9.277344 Z M 21.941406 31.976562 L 21.941406 41.871094 L 37.671875 26.160156 L 37.671875 41.871094 L 44.660156 34.878906 L 44.660156 9.277344 Z M 21.941406 31.976562 " fill-opacity="1" fill-rule="nonzero"/></g><g fill="#ffffff" fill-opacity="1"><g transform="translate(54.021397, 37.666182)"><g><path d="M 2.59375 0 L 2.59375 -18.703125 L 6.140625 -18.703125 L 6.140625 0 Z M 15.234375 0 L 15.234375 -11.296875 C 15.234375 -12.691406 14.804688 -13.789062 13.953125 -14.59375 C 13.097656 -15.394531 12.03125 -15.796875 10.75 -15.796875 C 9.882812 -15.796875 9.109375 -15.609375 8.421875 -15.234375 C 7.742188 -14.867188 7.191406 -14.359375 6.765625 -13.703125 C 6.347656 -13.046875 6.140625 -12.257812 6.140625 -11.34375 L 4.6875 -12.046875 C 4.6875 -13.460938 4.992188 -14.695312 5.609375 -15.75 C 6.222656 -16.800781 7.066406 -17.617188 8.140625 -18.203125 C 9.222656 -18.796875 10.429688 -19.09375 11.765625 -19.09375 C 13.078125 -19.09375 14.265625 -18.800781 15.328125 -18.21875 C 16.398438 -17.644531 17.242188 -16.832031 17.859375 -15.78125 C 18.472656 -14.738281 18.78125 -13.492188 18.78125 -12.046875 L 18.78125 0 Z M 27.875 0 L 27.875 -11.296875 C 27.875 -12.691406 27.445312 -13.789062 26.59375 -14.59375 C 25.738281 -15.394531 24.679688 -15.796875 23.421875 -15.796875 C 22.554688 -15.796875 21.773438 -15.609375 21.078125 -15.234375 C 20.390625 -14.867188 19.832031 -14.359375 19.40625 -13.703125 C 18.988281 -13.046875 18.78125 -12.257812 18.78125 -11.34375 L 16.78125 -12.046875 C 16.851562 -13.492188 17.238281 -14.734375 17.9375 -15.765625 C 18.632812 -16.804688 19.53125 -17.617188 20.625 -18.203125 C 21.726562 -18.796875 22.9375 -19.09375 24.25 -19.09375 C 25.613281 -19.09375 26.832031 -18.800781 27.90625 -18.21875 C 28.988281 -17.644531 29.847656 -16.832031 30.484375 -15.78125 C 31.128906 -14.738281 31.453125 -13.484375 31.453125 -12.015625 L 31.453125 0 Z M 27.875 0 "/></g></g></g><g fill="#ffffff" fill-opacity="1"><g transform="translate(87.686999, 37.666182)"><g><path d="M 2.640625 0 L 2.640625 -18.703125 L 6.1875 -18.703125 L 6.1875 0 Z M 4.40625 -22.4375 C 3.75 -22.4375 3.210938 -22.65625 2.796875 -23.09375 C 2.378906 -23.53125 2.171875 -24.078125 2.171875 -24.734375 C 2.171875 -25.359375 2.378906 -25.882812 2.796875 -26.3125 C 3.210938 -26.75 3.75 -26.96875 4.40625 -26.96875 C 5.0625 -26.96875 5.597656 -26.75 6.015625 -26.3125 C 6.441406 -25.882812 6.65625 -25.359375 6.65625 -24.734375 C 6.65625 -24.078125 6.441406 -23.53125 6.015625 -23.09375 C 5.597656 -22.65625 5.0625 -22.4375 4.40625 -22.4375 Z M 4.40625 -22.4375 "/></g></g></g><g fill="#ffffff" fill-opacity="1"><g transform="translate(96.506994, 37.666182)"><g><path d="M 15.828125 0 L 15.828125 -10.90625 C 15.828125 -12.320312 15.378906 -13.488281 14.484375 -14.40625 C 13.597656 -15.332031 12.445312 -15.796875 11.03125 -15.796875 C 10.082031 -15.796875 9.238281 -15.582031 8.5 -15.15625 C 7.769531 -14.738281 7.191406 -14.160156 6.765625 -13.421875 C 6.347656 -12.691406 6.140625 -11.851562 6.140625 -10.90625 L 4.6875 -11.734375 C 4.6875 -13.148438 5 -14.410156 5.625 -15.515625 C 6.257812 -16.617188 7.140625 -17.488281 8.265625 -18.125 C 9.398438 -18.769531 10.675781 -19.09375 12.09375 -19.09375 C 13.507812 -19.09375 14.757812 -18.738281 15.84375 -18.03125 C 16.9375 -17.320312 17.796875 -16.394531 18.421875 -15.25 C 19.054688 -14.113281 19.375 -12.898438 19.375 -11.609375 L 19.375 0 Z M 2.59375 0 L 2.59375 -18.703125 L 6.140625 -18.703125 L 6.140625 0 Z M 2.59375 0 "/></g></g></g><g fill="#ffffff" fill-opacity="1"><g transform="translate(118.084486, 37.666182)"><g><path d="M 12.4375 0.390625 C 11.019531 0.390625 9.738281 0.0976562 8.59375 -0.484375 C 7.457031 -1.078125 6.546875 -1.898438 5.859375 -2.953125 C 5.179688 -4.003906 4.800781 -5.195312 4.71875 -6.53125 L 4.71875 -12.171875 C 4.800781 -13.535156 5.191406 -14.734375 5.890625 -15.765625 C 6.585938 -16.804688 7.503906 -17.617188 8.640625 -18.203125 C 9.785156 -18.796875 11.050781 -19.09375 12.4375 -19.09375 C 14.144531 -19.09375 15.6875 -18.660156 17.0625 -17.796875 C 18.445312 -16.929688 19.53125 -15.765625 20.3125 -14.296875 C 21.101562 -12.828125 21.5 -11.171875 21.5 -9.328125 C 21.5 -7.492188 21.101562 -5.84375 20.3125 -4.375 C 19.53125 -2.90625 18.445312 -1.742188 17.0625 -0.890625 C 15.6875 -0.0351562 14.144531 0.390625 12.4375 0.390625 Z M 2.59375 0 L 2.59375 -28.109375 L 6.140625 -28.109375 L 6.140625 -14.140625 L 5.46875 -9.609375 L 6.140625 -5.046875 L 6.140625 0 Z M 11.859375 -2.953125 C 13.035156 -2.953125 14.066406 -3.226562 14.953125 -3.78125 C 15.847656 -4.332031 16.554688 -5.085938 17.078125 -6.046875 C 17.609375 -7.003906 17.875 -8.113281 17.875 -9.375 C 17.875 -10.601562 17.609375 -11.703125 17.078125 -12.671875 C 16.554688 -13.648438 15.847656 -14.40625 14.953125 -14.9375 C 14.066406 -15.476562 13.046875 -15.75 11.890625 -15.75 C 10.710938 -15.75 9.675781 -15.476562 8.78125 -14.9375 C 7.882812 -14.40625 7.1875 -13.648438 6.6875 -12.671875 C 6.195312 -11.703125 5.953125 -10.585938 5.953125 -9.328125 C 5.953125 -8.097656 6.191406 -7.003906 6.671875 -6.046875 C 7.160156 -5.085938 7.859375 -4.332031 8.765625 -3.78125 C 9.671875 -3.226562 10.703125 -2.953125 11.859375 -2.953125 Z M 11.859375 -2.953125 "/></g></g></g><g fill="#ffffff" fill-opacity="1"><g transform="translate(141.000718, 37.666182)"><g><path d="M 2.59375 0 L 2.59375 -18.703125 L 6.140625 -18.703125 L 6.140625 0 Z M 6.140625 -10.671875 L 4.796875 -11.265625 C 4.796875 -13.648438 5.347656 -15.550781 6.453125 -16.96875 C 7.554688 -18.382812 9.144531 -19.09375 11.21875 -19.09375 C 12.164062 -19.09375 13.019531 -18.925781 13.78125 -18.59375 C 14.539062 -18.269531 15.25 -17.726562 15.90625 -16.96875 L 13.578125 -14.5625 C 13.191406 -14.988281 12.757812 -15.289062 12.28125 -15.46875 C 11.8125 -15.65625 11.257812 -15.75 10.625 -15.75 C 9.3125 -15.75 8.234375 -15.328125 7.390625 -14.484375 C 6.554688 -13.648438 6.140625 -12.378906 6.140625 -10.671875 Z M 6.140625 -10.671875 "/></g></g></g><g fill="#ffffff" fill-opacity="1"><g transform="translate(157.49883, 37.666182)"><g><path d="M 10.546875 0.390625 C 8.847656 0.390625 7.300781 -0.0351562 5.90625 -0.890625 C 4.507812 -1.742188 3.410156 -2.90625 2.609375 -4.375 C 1.816406 -5.84375 1.421875 -7.492188 1.421875 -9.328125 C 1.421875 -11.171875 1.816406 -12.828125 2.609375 -14.296875 C 3.410156 -15.765625 4.5 -16.929688 5.875 -17.796875 C 7.257812 -18.660156 8.816406 -19.09375 10.546875 -19.09375 C 11.960938 -19.09375 13.226562 -18.796875 14.34375 -18.203125 C 15.46875 -17.617188 16.367188 -16.804688 17.046875 -15.765625 C 17.734375 -14.734375 18.113281 -13.535156 18.1875 -12.171875 L 18.1875 -6.53125 C 18.113281 -5.195312 17.738281 -4.003906 17.0625 -2.953125 C 16.394531 -1.898438 15.503906 -1.078125 14.390625 -0.484375 C 13.273438 0.0976562 11.992188 0.390625 10.546875 0.390625 Z M 11.140625 -2.953125 C 12.898438 -2.953125 14.316406 -3.546875 15.390625 -4.734375 C 16.472656 -5.929688 17.015625 -7.460938 17.015625 -9.328125 C 17.015625 -10.617188 16.769531 -11.742188 16.28125 -12.703125 C 15.789062 -13.660156 15.097656 -14.40625 14.203125 -14.9375 C 13.316406 -15.476562 12.285156 -15.75 11.109375 -15.75 C 9.921875 -15.75 8.875 -15.472656 7.96875 -14.921875 C 7.0625 -14.367188 6.351562 -13.613281 5.84375 -12.65625 C 5.332031 -11.695312 5.078125 -10.601562 5.078125 -9.375 C 5.078125 -8.113281 5.332031 -7.003906 5.84375 -6.046875 C 6.351562 -5.085938 7.066406 -4.332031 7.984375 -3.78125 C 8.910156 -3.226562 9.960938 -2.953125 11.140625 -2.953125 Z M 16.78125 0 L 16.78125 -5.046875 L 17.4375 -9.609375 L 16.78125 -14.140625 L 16.78125 -18.703125 L 20.359375 -18.703125 L 20.359375 0 Z M 16.78125 0 "/></g></g></g><g fill="#ffffff" fill-opacity="1"><g transform="translate(180.415063, 37.666182)"><g><path d="M 15.828125 0 L 15.828125 -10.90625 C 15.828125 -12.320312 15.378906 -13.488281 14.484375 -14.40625 C 13.597656 -15.332031 12.445312 -15.796875 11.03125 -15.796875 C 10.082031 -15.796875 9.238281 -15.582031 8.5 -15.15625 C 7.769531 -14.738281 7.191406 -14.160156 6.765625 -13.421875 C 6.347656 -12.691406 6.140625 -11.851562 6.140625 -10.90625 L 4.6875 -11.734375 C 4.6875 -13.148438 5 -14.410156 5.625 -15.515625 C 6.257812 -16.617188 7.140625 -17.488281 8.265625 -18.125 C 9.398438 -18.769531 10.675781 -19.09375 12.09375 -19.09375 C 13.507812 -19.09375 14.757812 -18.738281 15.84375 -18.03125 C 16.9375 -17.320312 17.796875 -16.394531 18.421875 -15.25 C 19.054688 -14.113281 19.375 -12.898438 19.375 -11.609375 L 19.375 0 Z M 2.59375 0 L 2.59375 -18.703125 L 6.140625 -18.703125 L 6.140625 0 Z M 2.59375 0 "/></g></g></g><g fill="#ffffff" fill-opacity="1"><g transform="translate(201.992554, 37.666182)"><g><path d="M 10.515625 0.390625 C 8.785156 0.390625 7.234375 -0.0351562 5.859375 -0.890625 C 4.492188 -1.742188 3.410156 -2.90625 2.609375 -4.375 C 1.816406 -5.84375 1.421875 -7.492188 1.421875 -9.328125 C 1.421875 -11.171875 1.816406 -12.828125 2.609375 -14.296875 C 3.410156 -15.765625 4.492188 -16.929688 5.859375 -17.796875 C 7.234375 -18.660156 8.785156 -19.09375 10.515625 -19.09375 C 11.898438 -19.09375 13.15625 -18.796875 14.28125 -18.203125 C 15.414062 -17.617188 16.332031 -16.804688 17.03125 -15.765625 C 17.726562 -14.734375 18.113281 -13.535156 18.1875 -12.171875 L 18.1875 -6.53125 C 18.113281 -5.195312 17.734375 -4.003906 17.046875 -2.953125 C 16.367188 -1.898438 15.460938 -1.078125 14.328125 -0.484375 C 13.203125 0.0976562 11.929688 0.390625 10.515625 0.390625 Z M 11.109375 -2.953125 C 12.285156 -2.953125 13.3125 -3.226562 14.1875 -3.78125 C 15.070312 -4.332031 15.765625 -5.085938 16.265625 -6.046875 C 16.765625 -7.003906 17.015625 -8.097656 17.015625 -9.328125 C 17.015625 -10.617188 16.753906 -11.734375 16.234375 -12.671875 C 15.722656 -13.617188 15.03125 -14.367188 14.15625 -14.921875 C 13.28125 -15.472656 12.25 -15.75 11.0625 -15.75 C 9.882812 -15.75 8.847656 -15.472656 7.953125 -14.921875 C 7.054688 -14.367188 6.351562 -13.613281 5.84375 -12.65625 C 5.332031 -11.695312 5.078125 -10.601562 5.078125 -9.375 C 5.078125 -8.113281 5.332031 -7.003906 5.84375 -6.046875 C 6.351562 -5.085938 7.0625 -4.332031 7.96875 -3.78125 C 8.875 -3.226562 9.921875 -2.953125 11.109375 -2.953125 Z M 20.359375 0 L 16.78125 0 L 16.78125 -5.046875 L 17.4375 -9.609375 L 16.78125 -14.140625 L 16.78125 -28.109375 L 20.359375 -28.109375 Z M 20.359375 0 "/></g></g></g></svg>