<svg xmlns="http://www.w3.org/2000/svg" xmlns:xlink="http://www.w3.org/1999/xlink" width="300" zoomAndPan="magnify" viewBox="0 0 224.87999 52.499999" height="70" preserveAspectRatio="xMidYMid meet" version="1.0"><defs><g/><clipPath id="1c98a7062f"><path d="M 1 0 L 223.761719 0 L 223.761719 52.003906 L 1 52.003906 Z M 1 0 " clip-rule="nonzero"/></clipPath><clipPath id="177a9e3f4c"><rect x="0" width="223" y="0" height="53"/></clipPath></defs><g clip-path="url(#1c98a7062f)"><g transform="matrix(1, 0, 0, 1, 1, 0)"><g clip-path="url(#177a9e3f4c)"><g fill="#ffffff" fill-opacity="1"><g transform="translate(0.550613, 49.293314)"><g><path d="M 19.03125 -24.140625 L 19.171875 -24.140625 L 19.171875 -48.03125 L 29.671875 -48.03125 L 29.671875 0 L 19.171875 0 L 12.171875 -26.84375 L 11.96875 -26.84375 L 11.96875 0 L 1.484375 0 L 1.484375 -48.03125 L 11.96875 -48.03125 Z M 19.03125 -24.140625 "/></g></g></g><g fill="#ffffff" fill-opacity="1"><g transform="translate(31.693672, 49.293314)"><g><path d="M 15.609375 -40.421875 C 20.140625 -40.421875 23.625 -39.265625 26.0625 -36.953125 C 28.507812 -34.648438 29.734375 -31.546875 29.734375 -27.640625 L 29.734375 -11.765625 C 29.734375 -7.867188 28.507812 -4.765625 26.0625 -2.453125 C 23.625 -0.140625 20.140625 1.015625 15.609375 1.015625 C 11.078125 1.015625 7.585938 -0.140625 5.140625 -2.453125 C 2.703125 -4.765625 1.484375 -7.867188 1.484375 -11.765625 L 1.484375 -27.640625 C 1.484375 -31.546875 2.703125 -34.648438 5.140625 -36.953125 C 7.585938 -39.265625 11.078125 -40.421875 15.609375 -40.421875 Z M 13.453125 -30.671875 L 13.453125 -9.546875 C 13.453125 -8.828125 13.648438 -8.234375 14.046875 -7.765625 C 14.453125 -7.296875 14.972656 -7.0625 15.609375 -7.0625 C 16.234375 -7.0625 16.75 -7.296875 17.15625 -7.765625 C 17.5625 -8.234375 17.765625 -8.828125 17.765625 -9.546875 L 17.765625 -30.671875 C 17.765625 -31.390625 17.5625 -31.984375 17.15625 -32.453125 C 16.75 -32.921875 16.234375 -33.15625 15.609375 -33.15625 C 14.847656 -33.15625 14.296875 -32.875 13.953125 -32.3125 C 13.617188 -31.757812 13.453125 -31.210938 13.453125 -30.671875 Z M 13.453125 -30.671875 "/></g></g></g><g fill="#ffffff" fill-opacity="1"><g transform="translate(62.903998, 49.293314)"><g><path d="M 20.921875 -40.421875 L 20.921875 -26.09375 C 20.023438 -26.1875 19.351562 -26.234375 18.90625 -26.234375 C 17.195312 -26.234375 15.914062 -25.726562 15.0625 -24.71875 C 14.21875 -23.707031 13.796875 -22.53125 13.796875 -21.1875 L 13.796875 0 L 1.8125 0 L 1.8125 -39.421875 L 13.390625 -39.421875 L 13.390625 -34.375 L 13.515625 -34.375 C 13.878906 -35.851562 14.800781 -37.195312 16.28125 -38.40625 C 17.757812 -39.613281 19.304688 -40.285156 20.921875 -40.421875 Z M 20.921875 -40.421875 "/></g></g></g><g fill="#ffffff" fill-opacity="1"><g transform="translate(84.092043, 49.293314)"><g><path d="M 29.671875 -48.03125 L 29.671875 0 L 17.078125 0 L 17.6875 -2.359375 L 17.5625 -2.359375 C 15.09375 -0.109375 12.421875 1.015625 9.546875 1.015625 C 6.992188 1.015625 5.007812 0.253906 3.59375 -1.265625 C 2.1875 -2.796875 1.484375 -4.972656 1.484375 -7.796875 L 1.484375 -31.21875 C 1.484375 -37.351562 4.351562 -40.421875 10.09375 -40.421875 C 11.613281 -40.421875 13.035156 -40.09375 14.359375 -39.4375 C 15.679688 -38.789062 16.75 -37.890625 17.5625 -36.734375 L 17.6875 -36.734375 L 17.6875 -48.03125 Z M 13.453125 -29.859375 L 13.453125 -9.546875 C 13.453125 -7.890625 14.101562 -7.0625 15.40625 -7.0625 C 16.207031 -7.0625 16.785156 -7.25 17.140625 -7.625 C 17.503906 -8.007812 17.6875 -8.628906 17.6875 -9.484375 L 17.6875 -29.9375 C 17.6875 -31.007812 17.503906 -31.75 17.140625 -32.15625 C 16.785156 -32.5625 16.25 -32.765625 15.53125 -32.765625 C 14.820312 -32.765625 14.296875 -32.550781 13.953125 -32.125 C 13.617188 -31.695312 13.453125 -30.941406 13.453125 -29.859375 Z M 13.453125 -29.859375 "/></g></g></g><g fill="#ffffff" fill-opacity="1"><g transform="translate(115.235096, 49.293314)"><g><path d="M 15.609375 -40.421875 C 18.078125 -40.421875 20.316406 -39.914062 22.328125 -38.90625 C 24.347656 -37.90625 25.953125 -36.4375 27.140625 -34.5 C 28.328125 -32.570312 28.921875 -30.285156 28.921875 -27.640625 L 28.921875 -19.109375 L 13.453125 -19.109375 L 13.453125 -8.609375 C 13.453125 -7.035156 14.054688 -6.25 15.265625 -6.25 C 16.660156 -6.25 17.359375 -7.125 17.359375 -8.875 L 17.359375 -16.078125 L 28.921875 -16.078125 L 28.921875 -11.765625 C 28.921875 -7.910156 27.785156 -4.816406 25.515625 -2.484375 C 23.253906 -0.148438 19.953125 1.015625 15.609375 1.015625 C 11.035156 1.015625 7.535156 -0.140625 5.109375 -2.453125 C 2.691406 -4.765625 1.484375 -7.867188 1.484375 -11.765625 L 1.484375 -27.640625 C 1.484375 -31.585938 2.710938 -34.703125 5.171875 -36.984375 C 7.640625 -39.273438 11.117188 -40.421875 15.609375 -40.421875 Z M 13.453125 -30.8125 L 13.453125 -25.5625 L 17.359375 -25.5625 L 17.359375 -30.53125 C 17.359375 -32.28125 16.660156 -33.15625 15.265625 -33.15625 C 14.054688 -33.15625 13.453125 -32.375 13.453125 -30.8125 Z M 13.453125 -30.8125 "/></g></g></g><g fill="#ffffff" fill-opacity="1"><g transform="translate(145.100153, 49.293314)"><g><path d="M 14.59375 -40.421875 C 18.226562 -40.421875 21.242188 -39.578125 23.640625 -37.890625 C 26.046875 -36.210938 27.25 -33.785156 27.25 -30.609375 L 27.25 -26.703125 L 16.140625 -26.703125 L 16.140625 -30.53125 C 16.140625 -32.019531 15.535156 -32.765625 14.328125 -32.765625 C 13.023438 -32.765625 12.375 -32.019531 12.375 -30.53125 L 12.375 -28.796875 C 12.375 -27.984375 12.867188 -27.21875 13.859375 -26.5 C 14.847656 -25.78125 16.28125 -24.929688 18.15625 -23.953125 L 19.5 -23.28125 C 21.789062 -22.0625 23.492188 -20.945312 24.609375 -19.9375 C 25.734375 -18.9375 26.53125 -17.71875 27 -16.28125 C 27.476562 -14.84375 27.71875 -12.914062 27.71875 -10.5 C 27.71875 -6.550781 26.570312 -3.644531 24.28125 -1.78125 C 22 0.0820312 18.410156 1.015625 13.515625 1.015625 C 9.441406 1.015625 6.328125 0.207031 4.171875 -1.40625 C 2.015625 -3.019531 0.9375 -5.757812 0.9375 -9.625 L 0.9375 -14.1875 L 12.046875 -14.1875 L 12.046875 -8.75 C 12.046875 -8.113281 12.222656 -7.601562 12.578125 -7.21875 C 12.929688 -6.84375 13.398438 -6.65625 13.984375 -6.65625 C 14.660156 -6.65625 15.1875 -6.867188 15.5625 -7.296875 C 15.945312 -7.722656 16.140625 -8.226562 16.140625 -8.8125 L 16.140625 -11.09375 C 16.140625 -12.125 15.710938 -12.988281 14.859375 -13.6875 C 14.015625 -14.382812 12.828125 -15.113281 11.296875 -15.875 L 9.546875 -16.75 C 6.816406 -18.132812 4.753906 -19.679688 3.359375 -21.390625 C 1.972656 -23.097656 1.28125 -25.363281 1.28125 -28.1875 C 1.28125 -32.394531 2.363281 -35.484375 4.53125 -37.453125 C 6.707031 -39.429688 10.0625 -40.421875 14.59375 -40.421875 Z M 14.59375 -40.421875 "/></g></g></g><g fill="#ffffff" fill-opacity="1"><g transform="translate(173.754459, 49.293314)"><g><path d="M 15.203125 -45.46875 L 15.203125 -39.421875 L 18.359375 -39.421875 L 18.359375 -32.953125 L 15.203125 -32.953125 L 15.203125 -7.9375 C 15.203125 -6.945312 15.648438 -6.453125 16.546875 -6.453125 L 18.359375 -6.453125 L 18.359375 0 L 11.4375 0 C 9.007812 0 7.164062 -0.332031 5.90625 -1 C 4.65625 -1.675781 3.828125 -2.628906 3.421875 -3.859375 C 3.023438 -5.097656 2.828125 -6.75 2.828125 -8.8125 L 2.828125 -32.953125 L 0.34375 -32.953125 L 0.34375 -39.421875 L 2.828125 -39.421875 L 2.828125 -45.46875 Z M 15.203125 -45.46875 "/></g></g></g><g fill="#ffffff" fill-opacity="1"><g transform="translate(192.453747, 49.293314)"><g><path d="M 15.609375 -40.421875 C 18.078125 -40.421875 20.316406 -39.914062 22.328125 -38.90625 C 24.347656 -37.90625 25.953125 -36.4375 27.140625 -34.5 C 28.328125 -32.570312 28.921875 -30.285156 28.921875 -27.640625 L 28.921875 -19.109375 L 13.453125 -19.109375 L 13.453125 -8.609375 C 13.453125 -7.035156 14.054688 -6.25 15.265625 -6.25 C 16.660156 -6.25 17.359375 -7.125 17.359375 -8.875 L 17.359375 -16.078125 L 28.921875 -16.078125 L 28.921875 -11.765625 C 28.921875 -7.910156 27.785156 -4.816406 25.515625 -2.484375 C 23.253906 -0.148438 19.953125 1.015625 15.609375 1.015625 C 11.035156 1.015625 7.535156 -0.140625 5.109375 -2.453125 C 2.691406 -4.765625 1.484375 -7.867188 1.484375 -11.765625 L 1.484375 -27.640625 C 1.484375 -31.585938 2.710938 -34.703125 5.171875 -36.984375 C 7.640625 -39.273438 11.117188 -40.421875 15.609375 -40.421875 Z M 13.453125 -30.8125 L 13.453125 -25.5625 L 17.359375 -25.5625 L 17.359375 -30.53125 C 17.359375 -32.28125 16.660156 -33.15625 15.265625 -33.15625 C 14.054688 -33.15625 13.453125 -32.375 13.453125 -30.8125 Z M 13.453125 -30.8125 "/></g></g></g></g></g></g></svg>