<svg version="1.1" id="Camada_1" xmlns="http://www.w3.org/2000/svg" x="0" y="0" viewBox="0 0 165.3 20" style="enable-background:new 0 0 165.3 20" xml:space="preserve"><style>.st0,.st1{fill-rule:evenodd;clip-rule:evenodd;fill:#fff}.st1{fill:#61bca4}</style><path class="st0" d="M0 10c0-1.2.6-2.4 1.6-3.1C2.8 6 4.3 5.6 5.8 5.7c1.5-.1 3.1.4 4.3 1.2 1.1.8 1.7 2 1.8 3.3H7.6c0-.4-.2-.8-.5-1-.4-.1-.9-.2-1.3-.2-1.1 0-1.7.3-1.7 1 0 .6.7 1 2 1.3 1.3.2 2.6.6 3.8 1.1 1.3.5 2.1 1.8 2 3.1 0 1.3-.6 2.5-1.7 3.2C9 19.6 7.5 20 6 19.9c-1.5.1-3-.4-4.2-1.2C.7 18 0 16.7 0 15.4h4.4c.1.9.7 1.3 1.8 1.3.4 0 .9-.1 1.2-.4.3-.2.5-.5.5-.9s-.3-.7-.8-.9c-.6-.2-1.3-.4-2-.6-.8-.1-1.5-.3-2.3-.6-.8-.2-1.4-.6-2-1.2-.5-.5-.8-1.3-.8-2.1zM22.5 10c-.5-.4-1.1-.6-1.8-.6-.6 0-1.2.2-1.7.6-.5.4-.8 1-.9 1.6h5.2c0-.7-.3-1.3-.8-1.6zm-1.8 9.9c-1.9.1-3.7-.6-5-2-1.3-1.4-2-3.3-1.9-5.2-.3-3.7 2.5-6.8 6.2-7.1h.8c1.9-.1 3.7.6 5.1 1.9 1.4 1.4 2.1 3.3 2 5.3 0 .4 0 .9-.1 1.4h-9.6c.2 1.2 1.1 2.1 2.3 2.1.4 0 .8 0 1.2-.2l.6-.3.5-.5h4.6c-.4 1.4-1.2 2.6-2.4 3.4-1.2.9-2.7 1.3-4.3 1.2zM40 5.8h4.3v13.9H40v-2c-.9 1.5-2.5 2.3-4.2 2.2-1.5 0-2.9-.5-3.9-1.6-1-1.2-1.6-2.8-1.5-4.4V5.8h4.2v7.6c0 .8.2 1.5.7 2.1 1.1 1 2.8 1 3.9 0 .5-.6.8-1.3.7-2.1l.1-7.6z"/><path class="st1" d="M56.5 15.3c.7-.7 1-1.6.9-2.5.1-.9-.3-1.9-.9-2.5-1.2-1.2-3-1.2-4.2 0-.7.7-1 1.6-.9 2.5-.1.9.3 1.9.9 2.5 1.1 1.2 3 1.2 4.2 0 0 .1 0 0 0 0zm-7.6 2.6c-1.3-1.4-1.9-3.2-1.8-5.1-.1-1.9.6-3.7 1.8-5.1 1.1-1.3 2.8-2 4.5-2 1.6-.1 3.1.7 4.1 2V1.3h4.3v18.5h-4.3v-2c-1 1.3-2.5 2.2-4.2 2.2-1.7 0-3.3-.8-4.4-2.1zM65.5 19.8v-14h4.3v13.9l-4.3.1zm3.8-15.5c-1 1-2.6 1-3.5 0-.5-.5-.7-1.1-.7-1.8s.2-1.3.7-1.8c1-1 2.6-1 3.5 0 .5.5.7 1.1.7 1.8.1.7-.2 1.3-.7 1.8zM77.7 5.8v2c.9-1.5 2.5-2.3 4.2-2.2 1.5-.1 2.9.5 3.9 1.6 1 1.2 1.6 2.8 1.5 4.3v8.1h-4.2V12c.1-.8-.2-1.5-.7-2.1-1.1-1-2.8-1-3.9 0-.5.6-.8 1.3-.7 2.1v7.6h-4.3V5.8h4.2zM95.2 1.3v6.6c.9-1.5 2.5-2.3 4.2-2.2 1.5-.1 2.9.5 3.9 1.6 1 1.2 1.6 2.8 1.5 4.3v8.1h-4.2v-7.6c.1-.8-.2-1.5-.7-2.1-1.1-1-2.8-1-3.9 0-.5.6-.8 1.3-.7 2.1v7.6H91V1.3h4.2zM116.1 10c-.5-.4-1.1-.6-1.8-.6-.6 0-1.2.2-1.7.6-.5.4-.8 1-.9 1.6h5.2c0-.7-.3-1.3-.8-1.6zm-1.8 9.9c-1.9.1-3.7-.6-5-2-1.3-1.4-2-3.3-1.9-5.2-.1-1.9.6-3.8 1.9-5.2 1.3-1.3 3.1-2 5-1.9 1.9-.1 3.7.6 5.1 1.9 1.4 1.4 2.1 3.3 2 5.3 0 .4 0 .9-.1 1.3h-9.6c.2 1.2 1.2 2.1 2.3 2.1.4 0 .8 0 1.2-.2l.6-.3.5-.5h4.6c-.4 1.4-1.2 2.6-2.4 3.4-1.2.9-2.7 1.4-4.2 1.3zM124.1 19.8v-14h4.3v13.9l-4.3.1zM128 4.3c-1 1-2.6 1-3.5 0-.5-.5-.7-1.1-.7-1.8s.2-1.3.7-1.8c1-1 2.6-1 3.5 0 .5.5.7 1.1.7 1.8.1.7-.2 1.3-.7 1.8zM136.4 5.8v2.6c1-1.8 2.3-2.7 4-2.7V10h-1.1c-.8-.1-1.6.2-2.2.7-.6.7-.8 1.6-.7 2.4v6.6h-4.3V5.8h4.3zM151.1 15.4c.6-.7.9-1.6.9-2.6.1-.9-.2-1.9-.9-2.6-.5-.6-1.3-.9-2.1-.9s-1.5.3-2.1.9c-.6.7-.9 1.6-.9 2.6-.1.9.2 1.9.9 2.6.5.6 1.3.9 2.1.9s1.6-.3 2.1-.9zm-7.3 2.6c-1.4-1.3-2.2-3.2-2.1-5.2-.1-1.9.7-3.8 2.1-5.2 3-2.6 7.4-2.6 10.4 0 1.4 1.3 2.2 3.2 2.1 5.2.1 1.9-.7 3.8-2.1 5.2-1.4 1.3-3.2 2-5.2 2-1.9 0-3.8-.7-5.2-2z"/><path class="st0" d="M162.4 1.6v.8h.5c.1 0 .2 0 .3-.1s.1-.2.1-.3c0-.1 0-.2-.1-.3-.1-.1-.2-.1-.3-.1h-.5zm-.8-.5h1.2c.3 0 .6.1.9.3.2.2.3.4.3.7 0 .2-.1.4-.2.5-.1.2-.3.3-.5.4l.8 1.3h-.9l-.8-1.3h-.1v1.2h-.8l.1-3.1zm-.6 3.2c.9.8 2.3.8 3.3 0 .4-.4.6-1 .6-1.6 0-.6-.2-1.2-.6-1.6-.9-.8-2.3-.8-3.3 0-.4.4-.6 1-.6 1.6 0 .6.2 1.1.6 1.6zm-.2-3.5c1.1-1 2.8-1 3.9 0 .5.5.8 1.2.7 1.9 0 .7-.2 1.4-.7 1.9-1.1 1-2.8 1-3.9 0-.5-.6-.8-1.2-.8-1.9s.3-1.4.8-1.9z"/></svg>