<?xml version="1.0" encoding="utf-8"?>
<!-- Generator: Adobe Illustrator 26.3.1, SVG Export Plug-In . SVG Version: 6.00 Build 0)  -->
<svg version="1.1" id="Camada_1" xmlns="http://www.w3.org/2000/svg" xmlns:xlink="http://www.w3.org/1999/xlink" x="0px" y="0px"
	 viewBox="0 0 359.9 126" style="enable-background:new 0 0 359.9 126;" xml:space="preserve">
<style type="text/css">
	.st0{fill:#268CF9;}
	.st1{fill:#FFFFFF;}
</style>
<g>
	<g>
		<path class="st0" d="M186,44.9h-18.9l-3.6,8.7h-9.7L172,12.8h9.3l18.2,40.8h-9.9L186,44.9z M183,37.7l-6.5-15.6l-6.5,15.6H183z"/>
		<path class="st0" d="M229.8,53.6l-7.9-11.4h-0.5h-8.2v11.4h-9.4V12.8h17.7c10.9,0,17.7,5.7,17.7,14.8c0,6.1-3.1,10.6-8.4,12.9
			l9.2,13.1H229.8z M220.9,20.5h-7.7v14.2h7.7c5.8,0,8.7-2.7,8.7-7.1C229.6,23.1,226.7,20.5,220.9,20.5z"/>
		<path class="st0" d="M261.5,37.6l-5.5,5.7v10.3h-9.4V12.8h9.4v19.1l18.1-19.1h10.5L267.7,31l17.9,22.6h-11L261.5,37.6z"/>
		<path class="st0" d="M321.4,46.1v7.6h-31.6V12.8h30.8v7.6h-21.5v8.9h18.9v7.3h-18.9v9.4H321.4z"/>
		<path class="st0" d="M337.3,20.5h-13.1v-7.7h35.6v7.7h-13.1v33.1h-9.4V20.5z"/>
		<path class="st1" d="M186,109.2h-18.9l-3.6,8.7h-9.7L172,77.1h9.3l18.2,40.8h-9.9L186,109.2z M183,102l-6.5-15.6l-6.5,15.6H183z"
			/>
		<path class="st1" d="M218.7,101.9l-5.5,5.7V118h-9.4V77.1h9.4v19.1l18.1-19.1h10.5l-16.9,18.2l17.9,22.6h-11L218.7,101.9z"/>
		<path class="st1" d="M278.5,110.4v7.6h-31.6V77.1h30.8v7.6h-21.5v8.9h18.9v7.3h-18.9v9.4H278.5z"/>
		<path class="st1" d="M312.1,118l-7.9-11.4h-0.5h-8.2V118H286V77.1h17.7c10.9,0,17.7,5.7,17.7,14.8c0,6.1-3.1,10.6-8.4,12.9
			l9.2,13.1H312.1z M303.2,84.8h-7.7v14.2h7.7c5.8,0,8.7-2.7,8.7-7.1C311.9,87.5,309,84.8,303.2,84.8z"/>
		<path class="st1" d="M325.7,113.9l3.2-7.1c3.4,2.5,8.6,4.3,13.5,4.3c5.6,0,7.9-1.9,7.9-4.4c0-7.6-23.7-2.4-23.7-17.5
			c0-6.9,5.6-12.7,17.2-12.7c5.1,0,10.4,1.2,14.2,3.6l-2.9,7.2c-3.8-2.2-7.7-3.2-11.3-3.2c-5.6,0-7.8,2.1-7.8,4.7
			c0,7.5,23.7,2.3,23.7,17.3c0,6.8-5.7,12.7-17.3,12.7C335.8,118.7,329.3,116.7,325.7,113.9z"/>
	</g>
	<g>
		<g>
			<polygon class="st0" points="0,126 25.5,126 25.5,53 63.2,114.7 63.2,78 16.8,0 0,0 			"/>
		</g>
		<polygon class="st1" points="135,126 109.5,126 109.5,53 71.8,114.7 71.8,78 118.2,0 135,0 		"/>
	</g>
</g>
</svg>
