<svg version="1.1" id="Camada_1" xmlns="http://www.w3.org/2000/svg" x="0" y="0" viewBox="0 0 74.5 20" style="enable-background:new 0 0 74.5 20" xml:space="preserve"><style>.st0{fill:#fff}.st1{fill:#36c}</style><path class="st0" d="M33.3 16.4c-2.2 0-3.8-.9-3.8-3.9V6.4H28V3.3h1.5V0h3.7v3.3h3v3.1h-3v5.5c0 .8.4 1.2 1.2 1.2h1.8v3.2l-2.9.1z"/><path class="st1" d="M37.1 13.2h3.3v3.2h-3.3z"/><path class="st0" d="M22.1 16.4c-1.9 0-3.1-.9-4-1.9V20h-3.6V3.3h3.6v1.8c.9-1.2 2.1-2.1 4-2.1 3 0 5.9 2.3 5.9 6.6v.1c0 4.4-2.8 6.7-5.9 6.7zm2.2-6.7c0-2.1-1.4-3.6-3.1-3.6s-3.1 1.4-3.1 3.6v.1c0 2.1 1.4 3.6 3.1 3.6s3.1-1.5 3.1-3.7c0 .1 0 0 0 0zM57.3 16.4V9c0-1.7-.8-2.6-2.1-2.6S53 7.3 53 9v7.4h-3.7V9c0-1.7-.8-2.6-2.1-2.6S45 7.3 45 9v7.4h-3.7V3.3H45v1.8C45.8 4 46.9 3 48.8 3c1.7 0 3 .7 3.6 2 1.1-1.3 2.5-2 4.2-2 2.7 0 4.3 1.6 4.3 4.7v8.6l-3.6.1zM74.5 11h-9c.4 1.7 1.5 2.5 3.2 2.5 1.2 0 2.1-.4 3.1-1.3l2.1 1.9c-1.2 1.5-2.9 2.4-5.3 2.4-3.9 0-6.7-2.7-6.7-6.6v-.1c0-3.7 2.6-6.7 6.4-6.7 4.3 0 6.3 3.3 6.3 7v.1c-.1.3-.1.5-.1.8zm-6.2-5c-1.5 0-2.5 1.1-2.8 2.7H71C70.8 7.1 69.8 6 68.3 6z"/><path class="st1" d="M8 9.6c0 .1 0 .1-.1.1H5.5c-.1 0-.1 0-.1-.1V1.7s0-.1.1-.1h2.3c.1 0 .1 0 .1.1v7.9z"/><path class="st0" d="M8.8 3.4v3.5c.9.7 1.5 1.8 1.5 3-.1 1.8-1.6 3.4-3.4 3.4-2.1.1-3.7-1.5-3.7-3.6 0-1.2.6-2.2 1.5-2.9V3.4C1.8 4.3-.2 7 0 10.2c.2 3.3 2.9 6 6.2 6.2 3.9.3 7.1-2.8 7.1-6.7.1-3-1.9-5.5-4.5-6.3z"/></svg>