<svg id="icons" xmlns="http://www.w3.org/2000/svg" version="1.1" viewBox="0 0 322 131"><defs><style>.cls-1,.cls-4{fill:#36c;stroke-width:0}.cls-4{fill:#fff}</style></defs><path class="cls-4" d="M115.6 54.8c-1.7 0-3.2-1.1-3.7-2.6h-4.1c-.9 0-1.6-.3-2.1-.9-.6-.6-.8-1.5-.5-2.7.2-1.1.9-2.2 1.5-3.2 0 0 .2-.3.3-.5 0-.2.3-.5.4-.7.7-1.4.7-2.4.7-3.4s0-1.8.4-2.8c.7-1.9 1.8-3.2 3.5-4.2.2 0 .4-.2.5-.3.2-1.5 1.4-2.7 3-2.7s2.9 1.2 3.1 2.7c.2 0 .3.2.5.3 1.7 1 2.8 2.2 3.5 4.2.4 1.1.4 2 .4 2.8s0 2.1.7 3.5c0 0 0 .3.2.4.2.3.3.5.5.9l.2.3c.5.9 1.1 1.8 1.3 2.9.2 1.2 0 1.9 0 2.3v.3c-.5.6-1.3.9-2.1.9h-4.2c-.7 1.4-2.2 2.5-3.9 2.5h-.1zm-6.4-9.8c0 .4-.3.7-.5.9 0 0-.2.3-.2.4-.6 1-1.2 1.9-1.3 2.7v.9c0 .2.2.3.5.3h6v1c0 .9.8 1.6 1.8 1.6s1.8-.7 1.8-1.6v-1h6.4v-1c0-.7-.6-1.4-1.1-2.2l-.3-.5c0-.2-.2-.5-.4-.7 0-.2-.2-.4-.3-.5-.9-1.8-.9-3.2-.9-4.3s0-1.4-.2-2.2c-.5-1.5-1.3-2.4-2.6-3.1-.3-.2-.5-.2-.7-.3l-.7-.2v-1c0-.7-.6-1.1-1.1-1.1s-1 .5-1 1.1v1.1l-.8.2c-.4 0-.5.2-.7.3-1.3.8-2.2 1.8-2.7 3.2-.2.7-.2 1.4-.2 2.1s0 2.3-.9 4zM141.6 54.8c-1.7 0-3.2-1.1-3.7-2.6h-4.1c-.9 0-1.6-.3-2.1-.9-.6-.6-.8-1.5-.5-2.7.2-1.1.9-2.2 1.5-3.2.1 0 .2-.3.3-.5s.3-.5.4-.7c.7-1.4.7-2.4.7-3.4s0-1.8.4-2.8c.7-1.9 1.8-3.2 3.5-4.2.2 0 .4-.2.5-.3.2-1.5 1.4-2.7 3-2.7s2.9 1.2 3.1 2.7c.2 0 .3.2.5.3 1.7 1 2.8 2.2 3.5 4.2.4 1.1.4 2 .4 2.8s0 2.1.7 3.5c.1 0 .1.3.2.4.2.3.3.5.5.9l.2.3c.5.9 1.1 1.8 1.3 2.9.2 1.2 0 1.9-.1 2.3v.3c-.5.6-1.3.9-2.1.9h-4.2c-.7 1.4-2.2 2.5-3.9 2.5zm-6.4-9.8c-.1.4-.3.7-.5.9-.1 0-.2.3-.2.4-.6 1-1.2 1.9-1.3 2.7-.1.4-.1.8 0 .9h.1c.1.2.1.3.5.3h6v1c0 .9.8 1.6 1.8 1.6s1.8-.7 1.8-1.6v-1h6.4c.1-.2.1-.5 0-1-.1-.7-.6-1.4-1.1-2.2l-.3-.5c-.1-.2-.2-.5-.4-.7-.1-.2-.2-.4-.3-.5-.9-1.8-.9-3.2-.9-4.3s0-1.4-.2-2.2c-.5-1.5-1.3-2.4-2.6-3.1-.2-.2-.5-.2-.7-.3l-.7-.2v-1c0-.7-.6-1.1-1.1-1.1s-1 .5-1 1.1v1.1l-.8.2c-.4 0-.5.2-.7.3-1.3.8-2.2 1.8-2.7 3.2-.2.7-.2 1.4-.2 2.1s0 2.3-.9 4z"/><circle cx="146" cy="41.8" r="5.9" fill="#e6363e" stroke-width="0"/><path class="cls-4" d="M145.7 39.5l-1.5.7-.3-1.4 2.1-.9h1.5v7.7h-1.7v-6.1h-.1zM157 57.8V48c0-5.2.7-9.4 2.3-12.5 1.5-3 4.1-4.5 7.9-4.6l1.9 4c-2.1.2-3.5 1.2-4.3 3s-1.2 4.6-1.2 8.6h5.4V58l-12-.2zm18 0V48c0-5.2.7-9.4 2.3-12.5 1.5-3 4.1-4.5 7.9-4.6l1.9 4c-2.1.2-3.5 1.2-4.3 3s-1.2 4.6-1.2 8.6h5.5V58l-12.1-.2zM24 45.5c-.1-4.9-4.1-8.7-9-8.7s-8.8 3.7-8.9 8.6v.4c0 1.6.4 3.1 1.2 4.4l-1.1 3.4c0 .4 0 .8.2 1s.5.3.7.3h.3l3.6-1.1c1.3.7 2.6 1 4.1 1 4.9 0 8.9-4 8.9-8.9v-.4zm-3.5 4.1c-.2.6-1.3 1.2-1.8 1.2s-.4.4-3.2-.7c-2.8-1-4.5-3.8-4.6-4-.1 0-.7-.9-.9-1.8-.2-.2-.2-.5-.2-.8 0-1.3.7-1.9.9-2.3.3-.3.6-.4.7-.4h.5c.1 0 .4 0 .6.4.2.5.7 1.8.8 1.9.1 0 .1.3 0 .4-.1 0-.1.2-.1.3s-.2.2-.2.2c-.1 0-.3.3-.4.4-.1 0-.3.2-.1.5.1.2.7 1.1 1.5 1.8 1 .9 1.9 1.2 2.2 1.3h.6c.2 0 .7-.7.9-1 .1-.3.4-.2.6 0 .2 0 1.5.7 1.8.9.2 0 .4.2.6.5-.1.3-.1.8-.2 1.4v-.2zM56.5 52.1c-.3.8-1.8 1.6-2.5 1.7-.6 0-.6.6-4.4-.9-3.8-1.4-6.1-5.3-6.3-5.5 0-.2-.9-1.2-1.3-2.5v-1.1c0-1.8 1-2.7 1.3-3.1.4-.4.8-.5 1-.5h.7c.2 0 .5 0 .8.6.3.7 1 2.5 1.1 2.7v.6s0 .3-.2.4v.2l-.6.6c-.2 0-.4.3-.2.7.2.3.9 1.5 2 2.5 1.4 1.2 2.6 1.6 3 1.8s.6 0 .8 0c.2-.2 1-1 1.2-1.4s.5-.3.8-.2 2.1 1 2.5 1.2c.3.2.6.3.8.7 0 0 0 .7-.4 1.6zM58 45.3h-1c0-3.6-3-6.6-6.6-6.6v-1.1c4.3 0 7.6 3.5 7.6 7.7z"/><path class="cls-4" d="M54.8 45.1h-1.1c0-1.6-1.3-2.8-2.8-2.8v-1.1c2.1 0 3.9 1.8 3.9 3.9zM94.1 44.9v.2c0 2.1-.3 3.6-1 4.5-.6 1-1.6 1.4-2.9 1.4s-1.7-.2-2.3-.7c0 0-.2-.2-.3-.4-1.1.7-2.1 1.1-3 1.1-1.3 0-2.2-.4-2.8-1.2-.6-.8-.9-2-.9-3.8s.3-3 .9-3.8 1.6-1.2 2.9-1.2 1 0 1.5.4h.3v-.2h2.7V48c0 .3.2.5.2.6 0 0 .2.2.3.2h.4c.4 0 .7-.3.9-.8.2-.5.3-1.5.3-2.9v-.2c0-2.1-.5-3.7-1.5-4.6-1-1-2.5-1.4-4.7-1.4s-3.8.6-4.9 1.8-1.7 3-1.7 5.3.5 4.1 1.5 5.2c1 1.1 2.7 1.7 5.1 1.7l2.9-.2V55c-1.1 0-2.1.2-2.9.2-1.5 0-2.9-.2-4-.5s-2.1-.8-2.9-1.5c-1.5-1.4-2.3-3.9-2.3-7.4s.8-5.4 2.5-7 3.9-2.4 6.8-2.4 5.1.7 6.6 2.2c1.5 1.4 2.2 3.5 2.2 6.3h.1zm-9.3 3.7c.5 0 1.1-.2 1.8-.5v-4.6c-.6 0-1-.2-1.2-.2-.7 0-1.1.2-1.4.6-.2.4-.3 1.1-.3 2 0 1.9.4 2.7 1.2 2.7zM134.6 15.1l-7.1-13.5c-1.2-2.2-4-2.2-5.1 0l-7.1 13.5c-1.2 2.2.3 4.9 2.5 4.9h13.9c2.7 0 4-2.6 2.9-4.9zm-9.6 3.5c-.8 0-1.5-.7-1.5-1.7s.7-1.7 1.5-1.7 1.5.7 1.5 1.7-.6 1.7-1.5 1.7zm1.3-5.8c0 .7-.7 1.2-1.3 1.2s-1.2-.6-1.3-1.2l-.7-7.9c0-.8.5-1.5 1.3-1.5h1.3c.8 0 1.3.7 1.3 1.5l-.6 7.9zM164.9 13c-.5 0-1-.2-1.4-.6-.8-.8-.8-2 0-2.8l8.8-8.8c1.2-1.2 3.1-1.2 4.2 0l8.8 8.8c.8.8.8 2 0 2.8s-2 .8-2.8 0l-8.1-8.1-8.1 8.1c-.3.4-.8.6-1.4.6z"/><circle class="cls-4" cx="229.1" cy="2.2" r="2.2"/><circle class="cls-4" cx="233.6" cy="2.2" r="2.2"/><circle class="cls-4" cx="251.6" cy="2.2" r="2.2"/><circle class="cls-4" cx="269.5" cy="2.2" r="2.2"/><circle class="cls-4" cx="274" cy="2.2" r="2.2"/><circle class="cls-4" cx="229.1" cy="6.7" r="2.2"/><circle class="cls-4" cx="247.1" cy="6.7" r="2.2"/><circle class="cls-4" cx="251.6" cy="6.7" r="2.2"/><circle class="cls-4" cx="269.5" cy="6.7" r="2.2"/><circle class="cls-4" cx="229.1" cy="11.2" r="2.2"/><circle class="cls-4" cx="233.6" cy="11.2" r="2.2"/><circle class="cls-4" cx="238.1" cy="11.2" r="2.2"/><circle class="cls-4" cx="242.6" cy="11.2" r="2.2"/><circle class="cls-4" cx="251.6" cy="11.2" r="2.2"/><circle class="cls-4" cx="256.1" cy="11.2" r="2.2" transform="rotate(-66 256.096 11.2)"/><circle class="cls-4" cx="260.4" cy="11.1" r="2.2" transform="rotate(-42.1 260.37 11.01)"/><circle class="cls-4" cx="274" cy="11.2" r="2.2"/><circle class="cls-4" cx="242.6" cy="15.7" r="2.2"/><circle class="cls-4" cx="256.1" cy="15.8" r="2.2" transform="rotate(-66 256.125 15.707)"/><circle class="cls-4" cx="269.5" cy="15.7" r="2.2"/><circle class="cls-4" cx="247.1" cy="20.2" r="2.2"/><circle class="cls-4" cx="251.6" cy="20.2" r="2.2"/><circle class="cls-4" cx="260.4" cy="20" r="2.2" transform="rotate(-36.9 260.44 20.103)"/><circle class="cls-4" cx="269.5" cy="20.2" r="2.2"/><circle class="cls-4" cx="274" cy="20.2" r="2.2"/><circle class="cls-4" cx="278.5" cy="20.2" r="2.2"/><circle class="cls-4" cx="229.1" cy="24.7" r="2.2"/><circle class="cls-4" cx="233.6" cy="24.7" r="2.2"/><circle class="cls-4" cx="242.6" cy="24.7" r="2.2"/><circle class="cls-4" cx="256" cy="24.7" r="2.2" transform="rotate(-63.4 256.051 24.718)"/><circle class="cls-4" cx="265" cy="24.7" r="2.2"/><circle class="cls-4" cx="269.5" cy="24.7" r="2.2"/><circle class="cls-4" cx="282.9" cy="24.7" r="2.2"/><circle class="cls-4" cx="229.1" cy="29.1" r="2.2"/><circle class="cls-4" cx="238.1" cy="29.1" r="2.2"/><circle class="cls-4" cx="247.1" cy="29.1" r="2.2"/><circle class="cls-4" cx="256.1" cy="29.2" r="2.2" transform="rotate(-63.4 256.206 29.176)"/><circle class="cls-4" cx="265" cy="29.1" r="2.2"/><circle class="cls-4" cx="274" cy="29.1" r="2.2"/><circle class="cls-4" cx="282.9" cy="29.1" r="2.2"/><circle class="cls-4" cx="229.1" cy="33.6" r="2.2"/><circle class="cls-4" cx="242.6" cy="33.6" r="2.2"/><circle class="cls-4" cx="247.1" cy="33.6" r="2.2"/><circle class="cls-4" cx="251.6" cy="33.6" r="2.2"/><circle class="cls-4" cx="256.1" cy="33.6" r="2.2" transform="rotate(-63.4 256.15 33.614)"/><circle class="cls-4" cx="260.4" cy="33.5" r="2.2" transform="rotate(-36.9 260.336 33.392)"/><circle class="cls-4" cx="265" cy="33.6" r="2.2"/><circle class="cls-4" cx="269.5" cy="33.6" r="2.2"/><circle class="cls-4" cx="274" cy="33.6" r="2.2"/><circle class="cls-4" cx="202.2" cy="38.1" r="2.2"/><circle class="cls-4" cx="206.7" cy="38.1" r="2.2"/><circle class="cls-4" cx="211.2" cy="38.1" r="2.2"/><circle class="cls-4" cx="220.2" cy="38.1" r="2.2"/><circle class="cls-4" cx="229.1" cy="38.1" r="2.2"/><circle class="cls-4" cx="242.6" cy="38.1" r="2.2"/><circle class="cls-4" cx="256.1" cy="38.1" r="2.2" transform="rotate(-63.4 256.173 38.102)"/><circle class="cls-4" cx="260.4" cy="38" r="2.2" transform="rotate(-36.9 260.335 37.889)"/><circle class="cls-4" cx="282.9" cy="38.1" r="2.2"/><circle class="cls-4" cx="287.4" cy="38.1" r="2.2"/><circle class="cls-4" cx="291.9" cy="38.1" r="2.2"/><circle class="cls-4" cx="296.4" cy="38.1" r="2.2"/><circle class="cls-4" cx="309.8" cy="38.1" r="2.2"/><circle class="cls-4" cx="314.3" cy="38.1" r="2.2"/><circle class="cls-4" cx="318.8" cy="38.1" r="2.2"/><circle class="cls-4" cx="202.2" cy="42.6" r="2.2"/><circle class="cls-4" cx="215.7" cy="42.6" r="2.2"/><circle class="cls-4" cx="224.7" cy="42.6" r="2.2"/><circle class="cls-4" cx="247.1" cy="42.6" r="2.2"/><circle class="cls-4" cx="265" cy="42.6" r="2.2"/><circle class="cls-4" cx="274" cy="42.6" r="2.2"/><circle class="cls-4" cx="278.5" cy="42.6" r="2.2"/><circle class="cls-4" cx="287.4" cy="42.6" r="2.2"/><circle class="cls-4" cx="291.9" cy="42.6" r="2.2"/><circle class="cls-4" cx="296.4" cy="42.6" r="2.2"/><circle class="cls-4" cx="318.8" cy="42.6" r="2.2"/><circle class="cls-4" cx="202.2" cy="47.1" r="2.2"/><circle class="cls-4" cx="206.7" cy="47.1" r="2.2"/><circle class="cls-4" cx="211.2" cy="47.1" r="2.2"/><circle class="cls-4" cx="220.2" cy="47.1" r="2.2"/><circle class="cls-4" cx="224.7" cy="47.1" r="2.2"/><circle class="cls-4" cx="229.1" cy="47.1" r="2.2"/><circle class="cls-4" cx="233.6" cy="47.1" r="2.2"/><circle class="cls-4" cx="242.6" cy="47.1" r="2.2"/><circle class="cls-4" cx="247.1" cy="47.1" r="2.2"/><circle class="cls-4" cx="251.6" cy="47.1" r="2.2"/><circle class="cls-4" cx="256" cy="47.1" r="2.2" transform="rotate(-63.4 256.09 47.11)"/><circle class="cls-4" cx="274" cy="47.1" r="2.2"/><circle class="cls-4" cx="287.4" cy="47.1" r="2.2"/><circle class="cls-4" cx="291.9" cy="47.1" r="2.2"/><circle class="cls-4" cx="300.9" cy="47.1" r="2.2"/><circle class="cls-4" cx="197.8" cy="51.6" r="2.2"/><circle class="cls-4" cx="215.7" cy="51.6" r="2.2"/><circle class="cls-4" cx="229.1" cy="51.6" r="2.2"/><circle class="cls-4" cx="233.6" cy="51.6" r="2.2"/><circle class="cls-4" cx="242.6" cy="51.6" r="2.2"/><circle class="cls-4" cx="251.6" cy="51.6" r="2.2"/><circle class="cls-4" cx="260.4" cy="51.5" r="2.2" transform="rotate(-36.9 260.481 51.428)"/><circle class="cls-4" cx="265" cy="51.6" r="2.2"/><circle class="cls-4" cx="269.5" cy="51.6" r="2.2"/><circle class="cls-4" cx="278.5" cy="51.6" r="2.2"/><circle class="cls-4" cx="287.4" cy="51.6" r="2.2"/><circle class="cls-4" cx="291.9" cy="51.6" r="2.2"/><circle class="cls-4" cx="296.4" cy="51.6" r="2.2"/><circle class="cls-4" cx="300.9" cy="51.6" r="2.2"/><circle class="cls-4" cx="314.3" cy="51.6" r="2.2"/><circle class="cls-4" cx="202.2" cy="56" r="2.2"/><circle class="cls-4" cx="211.2" cy="56" r="2.2"/><circle class="cls-4" cx="215.7" cy="56" r="2.2"/><circle class="cls-4" cx="220.2" cy="56" r="2.2"/><circle class="cls-4" cx="229.1" cy="56" r="2.2"/><circle class="cls-4" cx="238.1" cy="56" r="2.2"/><circle class="cls-4" cx="251.6" cy="56" r="2.2"/><circle class="cls-4" cx="260.4" cy="55.9" r="2.2" transform="rotate(-36.9 260.48 55.924)"/><circle class="cls-4" cx="265" cy="56" r="2.2"/><circle class="cls-4" cx="269.5" cy="56" r="2.2"/><circle class="cls-4" cx="274" cy="56" r="2.2"/><circle class="cls-4" cx="287.4" cy="56" r="2.2"/><circle class="cls-4" cx="296.4" cy="56" r="2.2"/><circle class="cls-4" cx="314.3" cy="56" r="2.2"/><circle class="cls-4" cx="318.8" cy="56" r="2.2"/><circle class="cls-4" cx="202.2" cy="60.5" r="2.2"/><circle class="cls-4" cx="206.7" cy="60.5" r="2.2"/><circle class="cls-4" cx="224.7" cy="60.5" r="2.2"/><circle class="cls-4" cx="229.1" cy="60.5" r="2.2"/><circle class="cls-4" cx="233.6" cy="60.5" r="2.2"/><circle class="cls-4" cx="242.6" cy="60.5" r="2.2"/><circle class="cls-4" cx="260.4" cy="60.4" r="2.2" transform="rotate(-36.9 260.479 60.42)"/><circle class="cls-4" cx="265" cy="60.5" r="2.2"/><circle class="cls-4" cx="274" cy="60.5" r="2.2"/><circle class="cls-4" cx="278.5" cy="60.5" r="2.2"/><circle class="cls-4" cx="282.9" cy="60.5" r="2.2"/><circle class="cls-4" cx="287.4" cy="60.5" r="2.2"/><circle class="cls-4" cx="291.9" cy="60.5" r="2.2"/><circle class="cls-4" cx="300.9" cy="60.5" r="2.2"/><circle class="cls-4" cx="305.4" cy="60.5" r="2.2"/><circle class="cls-4" cx="314.3" cy="60.5" r="2.2"/><circle class="cls-4" cx="318.8" cy="60.5" r="2.2"/><circle class="cls-4" cx="193.3" cy="65" r="2.2"/><circle class="cls-4" cx="211.2" cy="65" r="2.2"/><circle class="cls-4" cx="220.2" cy="65" r="2.2"/><circle class="cls-4" cx="224.7" cy="65" r="2.2"/><circle class="cls-4" cx="229.1" cy="65" r="2.2"/><circle class="cls-4" cx="233.6" cy="65" r="2.2"/><circle class="cls-4" cx="238.1" cy="65" r="2.2"/><circle class="cls-4" cx="242.6" cy="65" r="2.2"/><circle class="cls-4" cx="247.1" cy="65" r="2.2"/><circle class="cls-4" cx="251.6" cy="65" r="2.2"/><circle class="cls-4" cx="256.1" cy="65" r="2.2" transform="rotate(-70 256.119 64.937)"/><circle class="cls-4" cx="265" cy="65" r="2.2"/><circle class="cls-4" cx="269.5" cy="65" r="2.2"/><circle class="cls-4" cx="274" cy="65" r="2.2"/><circle class="cls-4" cx="282.9" cy="65" r="2.2"/><circle class="cls-4" cx="296.4" cy="65" r="2.2"/><circle class="cls-4" cx="314.3" cy="65" r="2.2"/><circle class="cls-4" cx="197.8" cy="69.5" r="2.2"/><circle class="cls-4" cx="206.7" cy="69.5" r="2.2"/><circle class="cls-4" cx="233.6" cy="69.5" r="2.2"/><circle class="cls-4" cx="238.1" cy="69.5" r="2.2"/><circle class="cls-4" cx="242.6" cy="69.5" r="2.2"/><circle class="cls-4" cx="247.1" cy="69.5" r="2.2"/><circle class="cls-4" cx="251.6" cy="69.5" r="2.2"/><circle class="cls-4" cx="265" cy="69.5" r="2.2"/><circle class="cls-4" cx="278.5" cy="69.5" r="2.2"/><circle class="cls-4" cx="282.9" cy="69.5" r="2.2"/><circle class="cls-4" cx="287.4" cy="69.5" r="2.2"/><circle class="cls-4" cx="291.9" cy="69.5" r="2.2"/><circle class="cls-4" cx="300.9" cy="69.5" r="2.2"/><circle class="cls-4" cx="305.4" cy="69.5" r="2.2"/><circle class="cls-4" cx="193.3" cy="74" r="2.2"/><circle class="cls-4" cx="197.8" cy="74" r="2.2"/><circle class="cls-4" cx="202.2" cy="74" r="2.2"/><circle class="cls-4" cx="206.7" cy="74" r="2.2"/><circle class="cls-4" cx="211.2" cy="74" r="2.2"/><circle class="cls-4" cx="215.7" cy="74" r="2.2"/><circle class="cls-4" cx="220.2" cy="74" r="2.2"/><circle class="cls-4" cx="224.7" cy="74" r="2.2"/><circle class="cls-4" cx="247.1" cy="74" r="2.2"/><circle class="cls-4" cx="251.6" cy="74" r="2.2"/><circle class="cls-4" cx="255.9" cy="73.9" r="2.2" transform="rotate(-71.6 255.785 73.926)"/><circle class="cls-4" cx="260.6" cy="74.1" r="2.2" transform="rotate(-53.1 260.606 74.07)"/><circle class="cls-4" cx="282.9" cy="74" r="2.2"/><circle class="cls-4" cx="287.4" cy="74" r="2.2"/><circle class="cls-4" cx="300.9" cy="74" r="2.2"/><circle class="cls-4" cx="305.4" cy="74" r="2.2"/><circle class="cls-4" cx="309.8" cy="74" r="2.2"/><circle class="cls-4" cx="193.3" cy="78.4" r="2.2"/><circle class="cls-4" cx="197.8" cy="78.4" r="2.2"/><circle class="cls-4" cx="202.2" cy="78.4" r="2.2"/><circle class="cls-4" cx="211.2" cy="78.4" r="2.2"/><circle class="cls-4" cx="215.7" cy="78.4" r="2.2"/><circle class="cls-4" cx="224.7" cy="78.4" r="2.2"/><circle class="cls-4" cx="233.6" cy="78.4" r="2.2"/><circle class="cls-4" cx="242.6" cy="78.4" r="2.2"/><circle class="cls-4" cx="260.6" cy="78.6" r="2.2" transform="rotate(-53.1 260.608 78.573)"/><circle class="cls-4" cx="282.9" cy="78.4" r="2.2"/><circle class="cls-4" cx="287.4" cy="78.4" r="2.2"/><circle class="cls-4" cx="291.9" cy="78.4" r="2.2"/><circle class="cls-4" cx="296.4" cy="78.4" r="2.2"/><circle class="cls-4" cx="305.4" cy="78.4" r="2.2"/><circle class="cls-4" cx="309.8" cy="78.4" r="2.2"/><circle class="cls-4" cx="314.3" cy="78.4" r="2.2"/><circle class="cls-4" cx="318.8" cy="78.4" r="2.2"/><circle class="cls-4" cx="193.3" cy="82.9" r="2.2"/><circle class="cls-4" cx="215.7" cy="82.9" r="2.2"/><circle class="cls-4" cx="220.2" cy="82.9" r="2.2"/><circle class="cls-4" cx="229.1" cy="82.9" r="2.2"/><circle class="cls-4" cx="233.6" cy="82.9" r="2.2"/><circle class="cls-4" cx="238.1" cy="82.9" r="2.2"/><circle class="cls-4" cx="265" cy="82.9" r="2.2"/><circle class="cls-4" cx="274" cy="82.9" r="2.2"/><circle class="cls-4" cx="291.9" cy="82.9" r="2.2"/><circle class="cls-4" cx="305.4" cy="82.9" r="2.2"/><circle class="cls-4" cx="193.3" cy="87.4" r="2.2"/><circle class="cls-4" cx="202.2" cy="87.4" r="2.2"/><circle class="cls-4" cx="211.2" cy="87.4" r="2.2"/><circle class="cls-4" cx="233.6" cy="87.4" r="2.2"/><circle class="cls-4" cx="238.1" cy="87.4" r="2.2"/><circle class="cls-4" cx="260.6" cy="87.6" r="2.2" transform="rotate(-53.1 260.61 87.578)"/><circle class="cls-4" cx="274" cy="87.4" r="2.2"/><circle class="cls-4" cx="278.5" cy="87.4" r="2.2"/><circle class="cls-4" cx="282.9" cy="87.4" r="2.2"/><circle class="cls-4" cx="291.9" cy="87.4" r="2.2"/><circle class="cls-4" cx="296.4" cy="87.4" r="2.2"/><circle class="cls-4" cx="300.9" cy="87.4" r="2.2"/><circle class="cls-4" cx="305.4" cy="87.4" r="2.2"/><circle class="cls-4" cx="193.3" cy="91.9" r="2.2"/><circle class="cls-4" cx="206.7" cy="91.9" r="2.2"/><circle class="cls-4" cx="215.7" cy="91.9" r="2.2"/><circle class="cls-4" cx="220.2" cy="91.9" r="2.2"/><circle class="cls-4" cx="224.7" cy="91.9" r="2.2"/><circle class="cls-4" cx="229.1" cy="91.9" r="2.2"/><circle class="cls-4" cx="238.1" cy="91.9" r="2.2"/><circle class="cls-4" cx="247.1" cy="91.9" r="2.2"/><circle class="cls-4" cx="260.6" cy="92.1" r="2.2" transform="rotate(-53.1 260.611 92.08)"/><circle class="cls-4" cx="274" cy="91.9" r="2.2"/><circle class="cls-4" cx="278.5" cy="91.9" r="2.2"/><circle class="cls-4" cx="282.9" cy="91.9" r="2.2"/><circle class="cls-4" cx="287.4" cy="91.9" r="2.2"/><circle class="cls-4" cx="291.9" cy="91.9" r="2.2"/><circle class="cls-4" cx="296.4" cy="91.9" r="2.2"/><circle class="cls-4" cx="300.9" cy="91.9" r="2.2"/><circle class="cls-4" cx="309.8" cy="91.9" r="2.2"/><circle class="cls-4" cx="318.8" cy="91.9" r="2.2"/><circle class="cls-4" cx="229.1" cy="96.4" r="2.2"/><circle class="cls-4" cx="238.1" cy="96.4" r="2.2"/><circle class="cls-4" cx="242.6" cy="96.4" r="2.2"/><circle class="cls-4" cx="247.1" cy="96.4" r="2.2"/><circle class="cls-4" cx="255.9" cy="96.4" r="2.2" transform="rotate(-71.6 255.812 96.393)"/><circle class="cls-4" cx="274" cy="96.4" r="2.2"/><circle class="cls-4" cx="278.5" cy="96.4" r="2.2"/><circle class="cls-4" cx="282.9" cy="96.4" r="2.2"/><circle class="cls-4" cx="300.9" cy="96.4" r="2.2"/><circle class="cls-4" cx="305.4" cy="96.4" r="2.2"/><circle class="cls-4" cx="314.3" cy="96.4" r="2.2"/><circle class="cls-4" cx="318.8" cy="96.4" r="2.2"/><circle class="cls-4" cx="238.1" cy="100.9" r="2.2"/><circle class="cls-4" cx="247.1" cy="100.9" r="2.2"/><circle class="cls-4" cx="255.9" cy="100.8" r="2.2" transform="rotate(-71.6 255.86 100.855)"/><circle class="cls-4" cx="269.5" cy="100.9" r="2.2"/><circle class="cls-4" cx="278.5" cy="100.9" r="2.2"/><circle class="cls-4" cx="282.9" cy="100.9" r="2.2"/><circle class="cls-4" cx="291.9" cy="100.9" r="2.2"/><circle class="cls-4" cx="300.9" cy="100.9" r="2.2"/><circle class="cls-4" cx="233.6" cy="105.3" r="2.2"/><circle class="cls-4" cx="242.6" cy="105.3" r="2.2"/><circle class="cls-4" cx="251.6" cy="105.3" r="2.2"/><circle class="cls-4" cx="278.5" cy="105.3" r="2.2"/><circle class="cls-4" cx="282.9" cy="105.3" r="2.2"/><circle class="cls-4" cx="300.9" cy="105.3" r="2.2"/><circle class="cls-4" cx="305.4" cy="105.3" r="2.2"/><circle class="cls-4" cx="229.1" cy="109.8" r="2.2"/><circle class="cls-4" cx="233.6" cy="109.8" r="2.2"/><circle class="cls-4" cx="247.1" cy="109.8" r="2.2"/><circle class="cls-4" cx="251.6" cy="109.8" r="2.2"/><circle class="cls-4" cx="255.9" cy="109.7" r="2.2" transform="rotate(-71.6 255.84 109.797)"/><circle class="cls-4" cx="260.6" cy="109.9" r="2.2" transform="rotate(-53.1 260.566 109.94)"/><circle class="cls-4" cx="274" cy="109.8" r="2.2"/><circle class="cls-4" cx="282.9" cy="109.8" r="2.2"/><circle class="cls-4" cx="287.4" cy="109.8" r="2.2"/><circle class="cls-4" cx="291.9" cy="109.8" r="2.2"/><circle class="cls-4" cx="296.4" cy="109.8" r="2.2"/><circle class="cls-4" cx="300.9" cy="109.8" r="2.2"/><circle class="cls-4" cx="305.4" cy="109.8" r="2.2"/><circle class="cls-4" cx="309.8" cy="109.8" r="2.2"/><circle class="cls-4" cx="318.8" cy="109.8" r="2.2"/><circle class="cls-4" cx="229.1" cy="114.3" r="2.2"/><circle class="cls-4" cx="233.6" cy="114.3" r="2.2"/><circle class="cls-4" cx="238.1" cy="114.3" r="2.2"/><circle class="cls-4" cx="242.6" cy="114.3" r="2.2"/><circle class="cls-4" cx="251.6" cy="114.3" r="2.2"/><circle class="cls-4" cx="256" cy="114.3" r="2.2" transform="rotate(-71.6 255.889 114.26)"/><circle class="cls-4" cx="260.6" cy="114.4" r="2.2" transform="rotate(-53.1 260.567 114.442)"/><circle class="cls-4" cx="278.5" cy="114.3" r="2.2"/><circle class="cls-4" cx="282.9" cy="114.3" r="2.2"/><circle class="cls-4" cx="287.4" cy="114.3" r="2.2"/><circle class="cls-4" cx="296.4" cy="114.3" r="2.2"/><circle class="cls-4" cx="314.3" cy="114.3" r="2.2"/><circle class="cls-4" cx="229.1" cy="118.8" r="2.2"/><circle class="cls-4" cx="233.6" cy="118.8" r="2.2"/><circle class="cls-4" cx="247.1" cy="118.8" r="2.2"/><circle class="cls-4" cx="251.6" cy="118.8" r="2.2"/><circle class="cls-4" cx="265" cy="118.8" r="2.2"/><circle class="cls-4" cx="269.5" cy="118.8" r="2.2"/><circle class="cls-4" cx="274" cy="118.8" r="2.2"/><circle class="cls-4" cx="278.5" cy="118.8" r="2.2"/><circle class="cls-4" cx="282.9" cy="118.8" r="2.2"/><circle class="cls-4" cx="287.4" cy="118.8" r="2.2"/><circle class="cls-4" cx="291.9" cy="118.8" r="2.2"/><circle class="cls-4" cx="296.4" cy="118.8" r="2.2"/><circle class="cls-4" cx="300.9" cy="118.8" r="2.2"/><circle class="cls-4" cx="309.8" cy="118.8" r="2.2"/><circle class="cls-4" cx="314.3" cy="118.8" r="2.2"/><circle class="cls-4" cx="233.6" cy="123.3" r="2.2"/><circle class="cls-4" cx="269.5" cy="123.3" r="2.2"/><circle class="cls-4" cx="282.9" cy="123.3" r="2.2"/><circle class="cls-4" cx="287.4" cy="123.3" r="2.2"/><circle class="cls-4" cx="291.9" cy="123.3" r="2.2"/><circle class="cls-4" cx="300.9" cy="123.3" r="2.2"/><circle class="cls-4" cx="314.3" cy="123.3" r="2.2"/><circle class="cls-4" cx="238.1" cy="127.8" r="2.2"/><circle class="cls-4" cx="247.1" cy="127.8" r="2.2"/><circle class="cls-4" cx="255.9" cy="127.7" r="2.2" transform="rotate(-71.6 255.867 127.733)"/><circle class="cls-4" cx="269.5" cy="127.8" r="2.2"/><circle class="cls-4" cx="274" cy="127.8" r="2.2"/><circle class="cls-4" cx="282.9" cy="127.8" r="2.2"/><circle class="cls-4" cx="287.4" cy="127.8" r="2.2"/><circle class="cls-4" cx="291.9" cy="127.8" r="2.2"/><circle class="cls-4" cx="300.9" cy="127.8" r="2.2"/><path class="cls-4" d="M191 15.7c0 8.7 6.9 15.7 15.7 15.7 8.7 0 15.7-6.9 15.7-15.7C222.4 7 215.5 0 206.7 0 198 0 191 6.9 191 15.7zm15.7 11.2c-6.3 0-11.2-4.9-11.2-11.2 0-6.3 4.9-11.2 11.2-11.2 6.3 0 11.2 4.9 11.2 11.2 0 6.3-4.9 11.2-11.2 11.2zM289.7 15.7c0 8.7 6.9 15.7 15.7 15.7 8.7 0 15.7-6.9 15.7-15.7-.1-8.8-7-15.7-15.7-15.7-8.8 0-15.7 6.9-15.7 15.7zm15.7 11.2c-6.3 0-11.2-4.9-11.2-11.2 0-6.3 4.9-11.2 11.2-11.2 6.3 0 11.2 4.9 11.2 11.2 0 6.3-5 11.2-11.2 11.2zM191 114.3c0 8.7 6.9 15.7 15.7 15.7 8.7 0 15.7-6.9 15.7-15.7 0-8.7-6.9-15.7-15.7-15.7-8.7 0-15.7 7-15.7 15.7zm15.7 11.2c-6.3 0-11.2-4.9-11.2-11.2 0-6.3 4.9-11.2 11.2-11.2 6.3 0 11.2 4.9 11.2 11.2 0 6.3-4.9 11.2-11.2 11.2z"/><circle class="cls-4" cx="206.7" cy="15.7" r="6.7"/><circle class="cls-4" cx="305.4" cy="15.7" r="6.7"/><circle class="cls-4" cx="206.7" cy="114.3" r="6.7"/><path class="cls-4" d="M237.6 46.5h37v37h-37z"/><path d="M240 50.5v29c0 .9.7 1.6 1.6 1.6h29c.9 0 1.6-.7 1.6-1.6v-29c0-.9-.7-1.6-1.6-1.6h-29c-.9 0-1.6.8-1.6 1.6z" fill="#020202" stroke-width="0"/><path class="cls-4" d="M251.4 63.3h15.2v3.3h-15.2z"/><path class="cls-4" d="M264 69.2c-1.5 2.6-4.2 4.3-7.4 4.3-4.7 0-8.5-3.8-8.5-8.5s3.8-8.5 8.5-8.5 6.1 1.8 7.5 4.5l2.4-2.5c-2.1-3.2-5.8-5.4-9.9-5.4-6.5 0-11.9 5.3-11.9 11.9s5.3 11.9 11.9 11.9 7.7-2.1 9.9-5.3l-2.5-2.4zM140 18.1V2c0-1.5 1.6-2.5 3-1.7l14 8c1.3.8 1.3 2.7 0 3.4l-14 8c-1.3.9-3-.1-3-1.6zM54.8 72.7l2.8 5.7c0 .2.2.3.4.3l6.3.9c.4 0 .6.6.3.9L60 84.9s-.2.3 0 .5l1.1 6.3c0 .4-.4.7-.7.5l-5.6-3h-.5l-5.6 3c-.4.2-.8 0-.7-.5l1.1-6.3v-.5l-4.6-4.4c-.3-.3 0-.8.3-.9l6.3-.9c.2 0 .3 0 .4-.3l2.8-5.7c0-.4.4-.4.6 0h-.1zM27.1 81.6l-9.6-7c-.4-.3-.9 0-.9.5V79c0 .3-.3.6-.6.6H6.3c-.3 0-.6.3-.6.6v4.2c0 .3.3.6.6.6H16c.3 0 .6.3.6.6v3.9c0 .5.5.7.9.5l9.6-7.1c.3-.6.3-1 0-1.3zM88.5 91L81 83.5c-.3-.3-.3-.7 0-1l2-2c.3-.3.7-.3 1 0l4.5 4.5c.3.3.7.3 1 0L101 73.6c.3-.3.7-.3 1 0l2 2c.3.3.3.7 0 1L89.6 91c-.3.3-.8.3-1.1 0zM176.6 76.4l-2.3-2.3c-.2-.2-.5-.2-.7 0l-4.8 4.8c-.2.2-.5.2-.7 0l-4.8-4.8c-.2-.2-.5-.2-.7 0l-2.3 2.3c-.2.2-.2.5 0 .7l4.8 4.8c.2.2.2.5 0 .7l-4.8 4.8c-.2.2-.2.5 0 .7l2.3 2.3c.2.2.5.2.7 0l4.8-4.8c.2-.2.5-.2.7 0l4.8 4.8c.2.2.5.2.7 0l2.3-2.3c.2-.2.2-.5 0-.7l-4.8-4.8c-.2-.2-.2-.5 0-.7l4.8-4.8c.3-.2.3-.4 0-.7z"/><g><path class="cls-4" d="M132.4 83.2c-.1.7-.9 1.3-1.9 1.3s-1.8-.6-1.9-1.3l-1-7.9c0-.8.8-1.6 1.9-1.6h2c1.1 0 2 .7 1.9 1.6l-1 7.9zM130.4 90.8c-1.2 0-2.2-1-2.2-2.3s1-2.3 2.2-2.3 2.2 1 2.2 2.3-.9 2.3-2.2 2.3z"/></g><g><path class="cls-4" d="M42.7 21.5c-2.8 0-4.8-1.1-4.8-4.9V8.8h-2v-4h2V.7h4.6v4.2h3.8v4h-3.8v7c0 1.1.5 1.6 1.5 1.6h2.3v4.1h-3.7.1z"/><path class="cls-1" d="M47.5 17.4h4.3v4.1h-4.3z"/><path class="cls-4" d="M28.5 21.5c-2.5 0-4-1.1-5.1-2.4v7h-4.6V4.9h4.6v2.4c1.1-1.5 2.7-2.7 5.1-2.7 3.8 0 7.4 3 7.4 8.5s-3.6 8.5-7.4 8.5zm2.8-8.5c0-2.7-1.8-4.5-4-4.5s-4 1.8-4 4.5c0 2.8 1.8 4.6 4 4.6s4-1.8 4-4.5zM73.3 21.5v-9.4c0-2.2-1-3.3-2.7-3.3s-2.8 1.1-2.8 3.3v9.4h-4.6v-9.4c0-2.2-1-3.3-2.7-3.3s-2.8 1.1-2.8 3.3v9.4h-4.6V4.9h4.6v2.3c1.1-1.4 2.5-2.6 4.8-2.6s3.8.9 4.6 2.6c1.4-1.7 3.1-2.6 5.4-2.6 3.4 0 5.5 2.1 5.5 6v10.9h-4.7zM95.1 14.7H83.7c.5 2.1 1.9 3.2 4 3.2s2.7-.5 4-1.7l2.7 2.4c-1.5 1.9-3.7 3.1-6.7 3.1-4.9 0-8.5-3.4-8.5-8.5 0-4.7 3.3-8.6 8.1-8.6s8 4.2 8 8.9v1.2h-.2zm-7.9-6.4c-1.9 0-3.2 1.4-3.5 3.5h7c-.3-2.1-1.5-3.5-3.4-3.5z"/><rect class="cls-1" x="7.2" y="2.8" width="3.2" height="10.3" rx="1.5" ry="1.5"/><path class="cls-4" d="M11.5 4.9v4.4c1.2.9 1.9 2.3 1.9 3.8 0 2.3-2 4.3-4.3 4.4s-4.8-2-4.8-4.5.7-2.9 1.9-3.7V4.9C2.6 6.1.1 9.6.4 13.6c.3 4 3.7 7.6 7.9 7.9 4.2.3 9.1-3.6 9.1-8.5s-2.5-7-5.9-8.1z"/></g><path class="cls-4" d="M23.2 100H2.6c-1.4 0-2.6 1.2-2.6 2.6v20.6c0 1.4 1.2 2.6 2.6 2.6h20.6c1.4 0 2.6-1.2 2.6-2.6v-20.6c0-1.4-1.2-2.6-2.6-2.6zm-2.8 17.4c-1.5 2.6-4.3 4.3-7.6 4.3-4.9 0-8.8-4-8.8-8.8s4.1-8.9 8.9-8.8c3.2 0 5.9 1.7 7.4 4.3 0 0 0 .2-.1.2l-2.1 1.2h-.2c-1.1-1.8-3-2.9-5.2-2.9-3.4 0-6.1 2.8-6.1 6.2s2.8 6 6.1 6 4.1-1.2 5.2-2.9h.2l2.1 1.2c.2 0 .3.2.2.2zm1.2-3.3H9.5c-.1-.4-.1-.8-.1-1.2s0-.8.1-1.2H21.6c.1.4.1.8.1 1.2s0 .8-.1 1.2z"/><g><path d="M48.5 101.3H29.9c-1.3 0-2.3 1-2.3 2.3v18.6c0 1.3 1 2.3 2.3 2.3h18.6c1.3 0 2.3-1 2.3-2.3v-18.6c0-1.3-1-2.3-2.3-2.3z" fill="#030304" stroke-width="0"/><path class="cls-4" d="M49.5 100H28.9c-1.4 0-2.6 1.2-2.6 2.6v20.6c0 1.4 1.2 2.6 2.6 2.6h20.6c1.4 0 2.6-1.2 2.6-2.6v-20.6c0-1.4-1.2-2.6-2.6-2.6zm-2.8 17.4c-1.5 2.6-4.3 4.3-7.6 4.3-4.9 0-8.8-4-8.8-8.8 0-4.9 4.1-8.9 8.9-8.8 3.2 0 5.9 1.7 7.4 4.3 0 .1 0 .2-.1.2l-2.1 1.2c-.1 0-.2 0-.2-.1-1.1-1.8-3-2.9-5.2-2.9-3.4 0-6.1 2.8-6.1 6.2s2.8 6 6.1 6 4.1-1.2 5.2-2.9c0-.1.1-.1.2-.1l2.1 1.2c.2.1.3.2.2.2zm1.2-3.3c0 .1-.1.1-.2.1H36c-.1 0-.1-.1-.2-.1-.1-.4-.1-.8-.1-1.2s0-.8.1-1.2c0-.1.1-.1.2-.1h11.7c.1 0 .1.1.2.1.1.4.1.8.1 1.2s0 .8-.1 1.2z"/></g></svg>