<svg xmlns="http://www.w3.org/2000/svg" xmlns:xlink="http://www.w3.org/1999/xlink" width="846" zoomAndPan="magnify" viewBox="0 0 634.5 219.75" height="293" preserveAspectRatio="xMidYMid meet" version="1.0"><defs><g/><clipPath id="08757b6f54"><path d="M 0.109375 33 L 150 33 L 150 187 L 0.109375 187 Z M 0.109375 33 " clip-rule="nonzero"/></clipPath><clipPath id="f18d4eb2c6"><path d="M 0.109375 60.105469 L 30.628906 60.105469 L 30.628906 153.433594 L 0.109375 153.433594 Z M 0.109375 60.105469 " clip-rule="nonzero"/></clipPath><clipPath id="81495f5e0b"><path d="M 0.109375 89.316406 L 30.507812 60.105469 L 30.507812 153.433594 L 0.109375 153.433594 Z M 0.109375 89.316406 " clip-rule="nonzero"/></clipPath><clipPath id="f4bea654be"><path d="M 0.109375 0.105469 L 30.554688 0.105469 L 30.554688 93.433594 L 0.109375 93.433594 Z M 0.109375 0.105469 " clip-rule="nonzero"/></clipPath><clipPath id="6499132062"><path d="M 0.109375 29.316406 L 30.507812 0.105469 L 30.507812 93.433594 L 0.109375 93.433594 Z M 0.109375 29.316406 " clip-rule="nonzero"/></clipPath><clipPath id="33b5095783"><rect x="0" width="31" y="0" height="94"/></clipPath><clipPath id="283442b70a"><path d="M 59.71875 0.988281 L 90.253906 0.988281 L 90.253906 112.75 L 59.71875 112.75 Z M 59.71875 0.988281 " clip-rule="nonzero"/></clipPath><clipPath id="499b82adfe"><path d="M 59.71875 83.019531 L 59.71875 31.003906 L 90.253906 0.988281 L 90.253906 112.707031 Z M 59.71875 83.019531 " clip-rule="nonzero"/></clipPath><clipPath id="bcb7e7a885"><path d="M 0.71875 0.988281 L 31.253906 0.988281 L 31.253906 112.75 L 0.71875 112.75 Z M 0.71875 0.988281 " clip-rule="nonzero"/></clipPath><clipPath id="cd633a0431"><path d="M 0.71875 83.019531 L 0.71875 31.003906 L 31.253906 0.988281 L 31.253906 112.707031 Z M 0.71875 83.019531 " clip-rule="nonzero"/></clipPath><clipPath id="2f091a9887"><rect x="0" width="32" y="0" height="113"/></clipPath><clipPath id="0a49811d0f"><path d="M 59.71875 122.5625 L 90.253906 122.5625 L 90.253906 153.453125 L 59.71875 153.453125 Z M 59.71875 122.5625 " clip-rule="nonzero"/></clipPath><clipPath id="29c25b3dba"><path d="M 59.71875 122.5625 L 59.71875 153.433594 L 90.253906 153.433594 Z M 59.71875 122.5625 " clip-rule="nonzero"/></clipPath><clipPath id="ee02a6bc8b"><path d="M 0.71875 0.5625 L 31.253906 0.5625 L 31.253906 31.453125 L 0.71875 31.453125 Z M 0.71875 0.5625 " clip-rule="nonzero"/></clipPath><clipPath id="916fd313ce"><path d="M 0.71875 0.5625 L 0.71875 31.433594 L 31.253906 31.433594 Z M 0.71875 0.5625 " clip-rule="nonzero"/></clipPath><clipPath id="3dcfa2e63c"><rect x="0" width="32" y="0" height="32"/></clipPath><clipPath id="8e45988525"><path d="M 119.089844 27.636719 L 149.605469 27.636719 L 149.605469 153.5 L 119.089844 153.5 Z M 119.089844 27.636719 " clip-rule="nonzero"/></clipPath><clipPath id="0c636df7bf"><path d="M 149.488281 56.847656 L 119.089844 27.636719 L 119.089844 153.4375 L 149.488281 153.4375 Z M 149.488281 56.847656 " clip-rule="nonzero"/></clipPath><clipPath id="f594fba130"><path d="M 0.0898438 0.636719 L 30.605469 0.636719 L 30.605469 126.5 L 0.0898438 126.5 Z M 0.0898438 0.636719 " clip-rule="nonzero"/></clipPath><clipPath id="9be5f32d4b"><path d="M 30.488281 29.847656 L 0.0898438 0.636719 L 0.0898438 126.4375 L 30.488281 126.4375 Z M 30.488281 29.847656 " clip-rule="nonzero"/></clipPath><clipPath id="e8de2d1ed5"><rect x="0" width="31" y="0" height="127"/></clipPath><clipPath id="5d78f279e8"><rect x="0" width="150" y="0" height="154"/></clipPath><clipPath id="a08947c662"><path d="M 1 94 L 418.386719 94 L 418.386719 149.179688 L 1 149.179688 Z M 1 94 " clip-rule="nonzero"/></clipPath><clipPath id="04ecdcc5bd"><rect x="0" width="418" y="0" height="56"/></clipPath><clipPath id="afa8089627"><path d="M 0.0625 0.308594 L 417 0.308594 L 417 128 L 0.0625 128 Z M 0.0625 0.308594 " clip-rule="nonzero"/></clipPath><clipPath id="1eaebdf32f"><path d="M 3 0.308594 L 57 0.308594 L 57 91 L 3 91 Z M 3 0.308594 " clip-rule="nonzero"/></clipPath><clipPath id="bc4bdb46d5"><path d="M 160 0.308594 L 213 0.308594 L 213 93 L 160 93 Z M 160 0.308594 " clip-rule="nonzero"/></clipPath><clipPath id="f58d96e018"><rect x="0" width="417" y="0" height="128"/></clipPath><clipPath id="5dfe76c75b"><rect x="0" width="419" y="0" height="150"/></clipPath></defs><g clip-path="url(#08757b6f54)"><g transform="matrix(1, 0, 0, 1, 0, 33)"><g clip-path="url(#5d78f279e8)"><g clip-path="url(#f18d4eb2c6)"><g clip-path="url(#81495f5e0b)"><g transform="matrix(1, 0, 0, 1, 0, 60)"><g clip-path="url(#33b5095783)"><g clip-path="url(#f4bea654be)"><g clip-path="url(#6499132062)"><path fill="#f08025" d="M 0.109375 0.105469 L 30.507812 0.105469 L 30.507812 93.433594 L 0.109375 93.433594 Z M 0.109375 0.105469 " fill-opacity="1" fill-rule="nonzero"/></g></g></g></g></g></g><g clip-path="url(#283442b70a)"><g clip-path="url(#499b82adfe)"><g transform="matrix(1, 0, 0, 1, 59, -0.000000000000007105)"><g clip-path="url(#2f091a9887)"><g clip-path="url(#bcb7e7a885)"><g clip-path="url(#cd633a0431)"><path fill="#f08025" d="M 0.71875 0.988281 L 31.253906 0.988281 L 31.253906 112.75 L 0.71875 112.75 Z M 0.71875 0.988281 " fill-opacity="1" fill-rule="nonzero"/></g></g></g></g></g></g><g clip-path="url(#0a49811d0f)"><g clip-path="url(#29c25b3dba)"><g transform="matrix(1, 0, 0, 1, 59, 122)"><g clip-path="url(#3dcfa2e63c)"><g clip-path="url(#ee02a6bc8b)"><g clip-path="url(#916fd313ce)"><path fill="#f08025" d="M 0.71875 0.5625 L 31.253906 0.5625 L 31.253906 31.453125 L 0.71875 31.453125 Z M 0.71875 0.5625 " fill-opacity="1" fill-rule="nonzero"/></g></g></g></g></g></g><g clip-path="url(#8e45988525)"><g clip-path="url(#0c636df7bf)"><g transform="matrix(1, 0, 0, 1, 119, 27)"><g clip-path="url(#e8de2d1ed5)"><g clip-path="url(#f594fba130)"><g clip-path="url(#9be5f32d4b)"><path fill="#f08025" d="M 0.0898438 0.636719 L 30.488281 0.636719 L 30.488281 126.382812 L 0.0898438 126.382812 Z M 0.0898438 0.636719 " fill-opacity="1" fill-rule="nonzero"/></g></g></g></g></g></g></g></g></g><g transform="matrix(1, 0, 0, 1, 182, 45)"><g clip-path="url(#5dfe76c75b)"><g clip-path="url(#a08947c662)"><g transform="matrix(1, 0, 0, 1, 1, 94)"><g clip-path="url(#04ecdcc5bd)"><g fill="#ffffff" fill-opacity="1"><g transform="translate(0.545466, 40.969429)"><g><path d="M 9.0625 -21.984375 L 9.0625 -16.46875 L 17.984375 -16.46875 L 17.984375 -11.328125 L 9.0625 -11.328125 L 9.0625 -5.328125 L 19.15625 -5.328125 L 19.15625 0 L 2.40625 0 L 2.40625 -27.328125 L 19.15625 -27.328125 L 19.15625 -21.984375 Z M 9.0625 -21.984375 "/></g></g></g><g fill="#ffffff" fill-opacity="1"><g transform="translate(23.937577, 40.969429)"><g><path d="M 33.359375 -27.328125 L 33.359375 0 L 26.703125 0 L 26.703125 -16.390625 L 20.59375 0 L 15.21875 0 L 9.0625 -16.421875 L 9.0625 0 L 2.40625 0 L 2.40625 -27.328125 L 10.28125 -27.328125 L 17.9375 -8.40625 L 25.53125 -27.328125 Z M 33.359375 -27.328125 "/></g></g></g><g fill="#ffffff" fill-opacity="1"><g transform="translate(62.003127, 40.969429)"><g><path d="M 23.234375 -18.53125 C 23.234375 -16.945312 22.867188 -15.5 22.140625 -14.1875 C 21.421875 -12.875 20.304688 -11.816406 18.796875 -11.015625 C 17.296875 -10.210938 15.425781 -9.8125 13.1875 -9.8125 L 9.0625 -9.8125 L 9.0625 0 L 2.40625 0 L 2.40625 -27.328125 L 13.1875 -27.328125 C 15.375 -27.328125 17.21875 -26.945312 18.71875 -26.1875 C 20.226562 -25.4375 21.359375 -24.398438 22.109375 -23.078125 C 22.859375 -21.753906 23.234375 -20.238281 23.234375 -18.53125 Z M 12.6875 -15.109375 C 13.957031 -15.109375 14.90625 -15.40625 15.53125 -16 C 16.15625 -16.59375 16.46875 -17.4375 16.46875 -18.53125 C 16.46875 -19.613281 16.15625 -20.453125 15.53125 -21.046875 C 14.90625 -21.648438 13.957031 -21.953125 12.6875 -21.953125 L 9.0625 -21.953125 L 9.0625 -15.109375 Z M 12.6875 -15.109375 "/></g></g></g><g fill="#ffffff" fill-opacity="1"><g transform="translate(88.625733, 40.969429)"><g><path d="M 16.34375 0 L 10.671875 -10.3125 L 9.0625 -10.3125 L 9.0625 0 L 2.40625 0 L 2.40625 -27.328125 L 13.578125 -27.328125 C 15.734375 -27.328125 17.570312 -26.945312 19.09375 -26.1875 C 20.613281 -25.4375 21.75 -24.40625 22.5 -23.09375 C 23.25 -21.789062 23.625 -20.332031 23.625 -18.71875 C 23.625 -16.90625 23.109375 -15.285156 22.078125 -13.859375 C 21.054688 -12.429688 19.546875 -11.414062 17.546875 -10.8125 L 23.859375 0 Z M 9.0625 -15.03125 L 13.1875 -15.03125 C 14.414062 -15.03125 15.332031 -15.328125 15.9375 -15.921875 C 16.550781 -16.515625 16.859375 -17.359375 16.859375 -18.453125 C 16.859375 -19.484375 16.550781 -20.296875 15.9375 -20.890625 C 15.332031 -21.492188 14.414062 -21.796875 13.1875 -21.796875 L 9.0625 -21.796875 Z M 9.0625 -15.03125 "/></g></g></g><g fill="#ffffff" fill-opacity="1"><g transform="translate(116.33814, 40.969429)"><g><path d="M 9.0625 -21.984375 L 9.0625 -16.46875 L 17.984375 -16.46875 L 17.984375 -11.328125 L 9.0625 -11.328125 L 9.0625 -5.328125 L 19.15625 -5.328125 L 19.15625 0 L 2.40625 0 L 2.40625 -27.328125 L 19.15625 -27.328125 L 19.15625 -21.984375 Z M 9.0625 -21.984375 "/></g></g></g><g fill="#ffffff" fill-opacity="1"><g transform="translate(139.730251, 40.969429)"><g><path d="M 9.0625 -21.984375 L 9.0625 -16.46875 L 17.984375 -16.46875 L 17.984375 -11.328125 L 9.0625 -11.328125 L 9.0625 -5.328125 L 19.15625 -5.328125 L 19.15625 0 L 2.40625 0 L 2.40625 -27.328125 L 19.15625 -27.328125 L 19.15625 -21.984375 Z M 9.0625 -21.984375 "/></g></g></g><g fill="#ffffff" fill-opacity="1"><g transform="translate(163.122361, 40.969429)"><g><path d="M 26.859375 0 L 20.203125 0 L 9.0625 -16.859375 L 9.0625 0 L 2.40625 0 L 2.40625 -27.328125 L 9.0625 -27.328125 L 20.203125 -10.390625 L 20.203125 -27.328125 L 26.859375 -27.328125 Z M 26.859375 0 "/></g></g></g><g fill="#ffffff" fill-opacity="1"><g transform="translate(194.726931, 40.969429)"><g><path d="M 12.65625 -27.328125 C 15.53125 -27.328125 18.046875 -26.753906 20.203125 -25.609375 C 22.359375 -24.460938 24.023438 -22.859375 25.203125 -20.796875 C 26.378906 -18.734375 26.96875 -16.351562 26.96875 -13.65625 C 26.96875 -10.988281 26.378906 -8.613281 25.203125 -6.53125 C 24.023438 -4.457031 22.351562 -2.847656 20.1875 -1.703125 C 18.019531 -0.566406 15.507812 0 12.65625 0 L 2.40625 0 L 2.40625 -27.328125 Z M 12.21875 -5.765625 C 14.738281 -5.765625 16.695312 -6.453125 18.09375 -7.828125 C 19.5 -9.203125 20.203125 -11.144531 20.203125 -13.65625 C 20.203125 -16.175781 19.5 -18.132812 18.09375 -19.53125 C 16.695312 -20.9375 14.738281 -21.640625 12.21875 -21.640625 L 9.0625 -21.640625 L 9.0625 -5.765625 Z M 12.21875 -5.765625 "/></g></g></g><g fill="#ffffff" fill-opacity="1"><g transform="translate(225.358445, 40.969429)"><g><path d="M 9.0625 -27.328125 L 9.0625 0 L 2.40625 0 L 2.40625 -27.328125 Z M 9.0625 -27.328125 "/></g></g></g><g fill="#ffffff" fill-opacity="1"><g transform="translate(239.175842, 40.969429)"><g><path d="M 33.359375 -27.328125 L 33.359375 0 L 26.703125 0 L 26.703125 -16.390625 L 20.59375 0 L 15.21875 0 L 9.0625 -16.421875 L 9.0625 0 L 2.40625 0 L 2.40625 -27.328125 L 10.28125 -27.328125 L 17.9375 -8.40625 L 25.53125 -27.328125 Z M 33.359375 -27.328125 "/></g></g></g><g fill="#ffffff" fill-opacity="1"><g transform="translate(277.241402, 40.969429)"><g><path d="M 9.0625 -21.984375 L 9.0625 -16.46875 L 17.984375 -16.46875 L 17.984375 -11.328125 L 9.0625 -11.328125 L 9.0625 -5.328125 L 19.15625 -5.328125 L 19.15625 0 L 2.40625 0 L 2.40625 -27.328125 L 19.15625 -27.328125 L 19.15625 -21.984375 Z M 9.0625 -21.984375 "/></g></g></g><g fill="#ffffff" fill-opacity="1"><g transform="translate(300.633513, 40.969429)"><g><path d="M 26.859375 0 L 20.203125 0 L 9.0625 -16.859375 L 9.0625 0 L 2.40625 0 L 2.40625 -27.328125 L 9.0625 -27.328125 L 20.203125 -10.390625 L 20.203125 -27.328125 L 26.859375 -27.328125 Z M 26.859375 0 "/></g></g></g><g fill="#ffffff" fill-opacity="1"><g transform="translate(332.238083, 40.969429)"><g><path d="M 22.0625 -27.328125 L 22.0625 -21.984375 L 14.828125 -21.984375 L 14.828125 0 L 8.171875 0 L 8.171875 -21.984375 L 0.9375 -21.984375 L 0.9375 -27.328125 Z M 22.0625 -27.328125 "/></g></g></g><g fill="#ffffff" fill-opacity="1"><g transform="translate(357.576271, 40.969429)"><g><path d="M 15.328125 0.265625 C 12.765625 0.265625 10.410156 -0.328125 8.265625 -1.515625 C 6.128906 -2.710938 4.429688 -4.378906 3.171875 -6.515625 C 1.910156 -8.660156 1.28125 -11.066406 1.28125 -13.734375 C 1.28125 -16.410156 1.910156 -18.8125 3.171875 -20.9375 C 4.429688 -23.0625 6.128906 -24.722656 8.265625 -25.921875 C 10.410156 -27.117188 12.765625 -27.71875 15.328125 -27.71875 C 17.898438 -27.71875 20.253906 -27.117188 22.390625 -25.921875 C 24.535156 -24.722656 26.222656 -23.0625 27.453125 -20.9375 C 28.691406 -18.8125 29.3125 -16.410156 29.3125 -13.734375 C 29.3125 -11.066406 28.6875 -8.660156 27.4375 -6.515625 C 26.195312 -4.378906 24.507812 -2.710938 22.375 -1.515625 C 20.25 -0.328125 17.898438 0.265625 15.328125 0.265625 Z M 15.328125 -5.796875 C 17.515625 -5.796875 19.257812 -6.519531 20.5625 -7.96875 C 21.875 -9.425781 22.53125 -11.347656 22.53125 -13.734375 C 22.53125 -16.148438 21.875 -18.078125 20.5625 -19.515625 C 19.257812 -20.953125 17.515625 -21.671875 15.328125 -21.671875 C 13.128906 -21.671875 11.375 -20.957031 10.0625 -19.53125 C 8.75 -18.101562 8.09375 -16.171875 8.09375 -13.734375 C 8.09375 -11.328125 8.75 -9.398438 10.0625 -7.953125 C 11.375 -6.515625 13.128906 -5.796875 15.328125 -5.796875 Z M 15.328125 -5.796875 "/></g></g></g><g fill="#ffffff" fill-opacity="1"><g transform="translate(390.504158, 40.969429)"><g><path d="M 12.296875 0.265625 C 10.296875 0.265625 8.503906 -0.0546875 6.921875 -0.703125 C 5.335938 -1.347656 4.070312 -2.304688 3.125 -3.578125 C 2.1875 -4.847656 1.691406 -6.378906 1.640625 -8.171875 L 8.71875 -8.171875 C 8.820312 -7.160156 9.171875 -6.390625 9.765625 -5.859375 C 10.367188 -5.328125 11.148438 -5.0625 12.109375 -5.0625 C 13.085938 -5.0625 13.863281 -5.285156 14.4375 -5.734375 C 15.007812 -6.191406 15.296875 -6.820312 15.296875 -7.625 C 15.296875 -8.300781 15.066406 -8.859375 14.609375 -9.296875 C 14.160156 -9.742188 13.601562 -10.109375 12.9375 -10.390625 C 12.28125 -10.671875 11.34375 -10.992188 10.125 -11.359375 C 8.351562 -11.910156 6.910156 -12.457031 5.796875 -13 C 4.679688 -13.539062 3.722656 -14.34375 2.921875 -15.40625 C 2.117188 -16.476562 1.71875 -17.867188 1.71875 -19.578125 C 1.71875 -22.117188 2.632812 -24.109375 4.46875 -25.546875 C 6.3125 -26.992188 8.710938 -27.71875 11.671875 -27.71875 C 14.679688 -27.71875 17.109375 -26.992188 18.953125 -25.546875 C 20.796875 -24.109375 21.78125 -22.101562 21.90625 -19.53125 L 14.71875 -19.53125 C 14.664062 -20.414062 14.335938 -21.109375 13.734375 -21.609375 C 13.140625 -22.117188 12.375 -22.375 11.4375 -22.375 C 10.632812 -22.375 9.984375 -22.160156 9.484375 -21.734375 C 8.992188 -21.304688 8.75 -20.691406 8.75 -19.890625 C 8.75 -19.003906 9.164062 -18.316406 10 -17.828125 C 10.832031 -17.335938 12.128906 -16.804688 13.890625 -16.234375 C 15.660156 -15.628906 17.09375 -15.054688 18.1875 -14.515625 C 19.289062 -13.972656 20.242188 -13.179688 21.046875 -12.140625 C 21.859375 -11.109375 22.265625 -9.773438 22.265625 -8.140625 C 22.265625 -6.578125 21.867188 -5.160156 21.078125 -3.890625 C 20.285156 -2.617188 19.132812 -1.609375 17.625 -0.859375 C 16.125 -0.109375 14.347656 0.265625 12.296875 0.265625 Z M 12.296875 0.265625 "/></g></g></g></g></g></g><g clip-path="url(#afa8089627)"><g transform="matrix(1, 0, 0, 1, -0.000000000000028422, -0.000000000000007105)"><g clip-path="url(#f58d96e018)"><g clip-path="url(#1eaebdf32f)"><g fill="#ffffff" fill-opacity="1"><g transform="translate(0.606065, 90.817129)"><g><path d="M 35.6875 -45.265625 L 35.9375 -45.265625 L 35.9375 -90.046875 L 55.609375 -90.046875 L 55.609375 0 L 35.9375 0 L 22.828125 -50.3125 L 22.453125 -50.3125 L 22.453125 0 L 2.78125 0 L 2.78125 -90.046875 L 22.453125 -90.046875 Z M 35.6875 -45.265625 "/></g></g></g></g><g fill="#ffffff" fill-opacity="1"><g transform="translate(58.993386, 90.817129)"><g><path d="M 29.25 -75.796875 C 37.75 -75.796875 44.285156 -73.628906 48.859375 -69.296875 C 53.441406 -64.960938 55.734375 -59.140625 55.734375 -51.828125 L 55.734375 -22.0625 C 55.734375 -14.75 53.441406 -8.925781 48.859375 -4.59375 C 44.285156 -0.269531 37.75 1.890625 29.25 1.890625 C 20.757812 1.890625 14.222656 -0.269531 9.640625 -4.59375 C 5.066406 -8.925781 2.78125 -14.75 2.78125 -22.0625 L 2.78125 -51.828125 C 2.78125 -59.140625 5.066406 -64.960938 9.640625 -69.296875 C 14.222656 -73.628906 20.757812 -75.796875 29.25 -75.796875 Z M 25.21875 -57.5 L 25.21875 -17.90625 C 25.21875 -16.5625 25.59375 -15.445312 26.34375 -14.5625 C 27.101562 -13.675781 28.070312 -13.234375 29.25 -13.234375 C 30.425781 -13.234375 31.394531 -13.675781 32.15625 -14.5625 C 32.914062 -15.445312 33.296875 -16.5625 33.296875 -17.90625 L 33.296875 -57.5 C 33.296875 -58.851562 32.914062 -59.96875 32.15625 -60.84375 C 31.394531 -61.726562 30.425781 -62.171875 29.25 -62.171875 C 27.820312 -62.171875 26.789062 -61.644531 26.15625 -60.59375 C 25.53125 -59.539062 25.21875 -58.507812 25.21875 -57.5 Z M 25.21875 -57.5 "/></g></g></g><g fill="#ffffff" fill-opacity="1"><g transform="translate(117.506819, 90.817129)"><g><path d="M 39.21875 -75.796875 L 39.21875 -48.9375 C 37.539062 -49.101562 36.28125 -49.1875 35.4375 -49.1875 C 32.238281 -49.1875 29.84375 -48.238281 28.25 -46.34375 C 26.65625 -44.445312 25.859375 -42.238281 25.859375 -39.71875 L 25.859375 0 L 3.40625 0 L 3.40625 -73.90625 L 25.09375 -73.90625 L 25.09375 -64.4375 L 25.34375 -64.4375 C 26.019531 -67.21875 27.742188 -69.738281 30.515625 -72 C 33.296875 -74.269531 36.195312 -75.535156 39.21875 -75.796875 Z M 39.21875 -75.796875 "/></g></g></g><g clip-path="url(#bc4bdb46d5)"><g fill="#ffffff" fill-opacity="1"><g transform="translate(157.230379, 90.817129)"><g><path d="M 55.609375 -90.046875 L 55.609375 0 L 32.03125 0 L 33.171875 -4.40625 L 32.921875 -4.40625 C 28.296875 -0.207031 23.289062 1.890625 17.90625 1.890625 C 13.113281 1.890625 9.394531 0.460938 6.75 -2.390625 C 4.101562 -5.253906 2.78125 -9.332031 2.78125 -14.625 L 2.78125 -58.515625 C 2.78125 -70.035156 8.160156 -75.796875 18.921875 -75.796875 C 21.773438 -75.796875 24.441406 -75.1875 26.921875 -73.96875 C 29.398438 -72.75 31.398438 -71.046875 32.921875 -68.859375 L 33.171875 -68.859375 L 33.171875 -90.046875 Z M 25.21875 -56 L 25.21875 -17.90625 C 25.21875 -14.789062 26.4375 -13.234375 28.875 -13.234375 C 30.394531 -13.234375 31.488281 -13.59375 32.15625 -14.3125 C 32.832031 -15.03125 33.171875 -16.1875 33.171875 -17.78125 L 33.171875 -56.125 C 33.171875 -58.132812 32.832031 -59.519531 32.15625 -60.28125 C 31.488281 -61.039062 30.476562 -61.421875 29.125 -61.421875 C 27.78125 -61.421875 26.789062 -61.019531 26.15625 -60.21875 C 25.53125 -59.414062 25.21875 -58.007812 25.21875 -56 Z M 25.21875 -56 "/></g></g></g></g><g fill="#ffffff" fill-opacity="1"><g transform="translate(215.61769, 90.817129)"><g><path d="M 29.25 -75.796875 C 33.875 -75.796875 38.078125 -74.847656 41.859375 -72.953125 C 45.648438 -71.054688 48.660156 -68.300781 50.890625 -64.6875 C 53.117188 -61.070312 54.234375 -56.785156 54.234375 -51.828125 L 54.234375 -35.8125 L 25.21875 -35.8125 L 25.21875 -16.140625 C 25.21875 -13.203125 26.351562 -11.734375 28.625 -11.734375 C 31.226562 -11.734375 32.53125 -13.367188 32.53125 -16.640625 L 32.53125 -30.140625 L 54.234375 -30.140625 L 54.234375 -22.0625 C 54.234375 -14.832031 52.109375 -9.03125 47.859375 -4.65625 C 43.609375 -0.289062 37.40625 1.890625 29.25 1.890625 C 20.675781 1.890625 14.117188 -0.269531 9.578125 -4.59375 C 5.046875 -8.925781 2.78125 -14.75 2.78125 -22.0625 L 2.78125 -51.828125 C 2.78125 -59.222656 5.085938 -65.066406 9.703125 -69.359375 C 14.328125 -73.648438 20.84375 -75.796875 29.25 -75.796875 Z M 25.21875 -57.765625 L 25.21875 -47.921875 L 32.53125 -47.921875 L 32.53125 -57.25 C 32.53125 -60.53125 31.226562 -62.171875 28.625 -62.171875 C 26.351562 -62.171875 25.21875 -60.703125 25.21875 -57.765625 Z M 25.21875 -57.765625 "/></g></g></g><g fill="#ffffff" fill-opacity="1"><g transform="translate(271.608999, 90.817129)"><g><path d="M 27.359375 -75.796875 C 34.171875 -75.796875 39.828125 -74.21875 44.328125 -71.0625 C 48.828125 -67.90625 51.078125 -63.34375 51.078125 -57.375 L 51.078125 -50.0625 L 30.265625 -50.0625 L 30.265625 -57.25 C 30.265625 -60.03125 29.128906 -61.421875 26.859375 -61.421875 C 24.421875 -61.421875 23.203125 -60.03125 23.203125 -57.25 L 23.203125 -53.96875 C 23.203125 -52.457031 24.125 -51.03125 25.96875 -49.6875 C 27.820312 -48.34375 30.515625 -46.742188 34.046875 -44.890625 L 36.578125 -43.640625 C 40.859375 -41.367188 44.050781 -39.285156 46.15625 -37.390625 C 48.257812 -35.492188 49.75 -33.203125 50.625 -30.515625 C 51.507812 -27.828125 51.953125 -24.210938 51.953125 -19.671875 C 51.953125 -12.273438 49.804688 -6.832031 45.515625 -3.34375 C 41.234375 0.144531 34.507812 1.890625 25.34375 1.890625 C 17.695312 1.890625 11.851562 0.378906 7.8125 -2.640625 C 3.78125 -5.671875 1.765625 -10.800781 1.765625 -18.03125 L 1.765625 -26.609375 L 22.578125 -26.609375 L 22.578125 -16.390625 C 22.578125 -15.210938 22.910156 -14.265625 23.578125 -13.546875 C 24.253906 -12.835938 25.140625 -12.484375 26.234375 -12.484375 C 27.492188 -12.484375 28.476562 -12.878906 29.1875 -13.671875 C 29.90625 -14.472656 30.265625 -15.421875 30.265625 -16.515625 L 30.265625 -20.8125 C 30.265625 -22.738281 29.460938 -24.351562 27.859375 -25.65625 C 26.265625 -26.96875 24.039062 -28.335938 21.1875 -29.765625 L 17.90625 -31.40625 C 12.78125 -34.007812 8.910156 -36.90625 6.296875 -40.09375 C 3.691406 -43.289062 2.390625 -47.539062 2.390625 -52.84375 C 2.390625 -60.738281 4.425781 -66.535156 8.5 -70.234375 C 12.582031 -73.941406 18.867188 -75.796875 27.359375 -75.796875 Z M 27.359375 -75.796875 "/></g></g></g><g fill="#ffffff" fill-opacity="1"><g transform="translate(325.330381, 90.817129)"><g><path d="M 28.5 -85.25 L 28.5 -73.90625 L 34.421875 -73.90625 L 34.421875 -61.796875 L 28.5 -61.796875 L 28.5 -14.875 C 28.5 -13.03125 29.335938 -12.109375 31.015625 -12.109375 L 34.421875 -12.109375 L 34.421875 0 L 21.4375 0 C 16.894531 0 13.445312 -0.628906 11.09375 -1.890625 C 8.738281 -3.148438 7.179688 -4.9375 6.421875 -7.25 C 5.671875 -9.5625 5.296875 -12.648438 5.296875 -16.515625 L 5.296875 -61.796875 L 0.625 -61.796875 L 0.625 -73.90625 L 5.296875 -73.90625 L 5.296875 -85.25 Z M 28.5 -85.25 "/></g></g></g><g fill="#ffffff" fill-opacity="1"><g transform="translate(360.387994, 90.817129)"><g><path d="M 29.25 -75.796875 C 33.875 -75.796875 38.078125 -74.847656 41.859375 -72.953125 C 45.648438 -71.054688 48.660156 -68.300781 50.890625 -64.6875 C 53.117188 -61.070312 54.234375 -56.785156 54.234375 -51.828125 L 54.234375 -35.8125 L 25.21875 -35.8125 L 25.21875 -16.140625 C 25.21875 -13.203125 26.351562 -11.734375 28.625 -11.734375 C 31.226562 -11.734375 32.53125 -13.367188 32.53125 -16.640625 L 32.53125 -30.140625 L 54.234375 -30.140625 L 54.234375 -22.0625 C 54.234375 -14.832031 52.109375 -9.03125 47.859375 -4.65625 C 43.609375 -0.289062 37.40625 1.890625 29.25 1.890625 C 20.675781 1.890625 14.117188 -0.269531 9.578125 -4.59375 C 5.046875 -8.925781 2.78125 -14.75 2.78125 -22.0625 L 2.78125 -51.828125 C 2.78125 -59.222656 5.085938 -65.066406 9.703125 -69.359375 C 14.328125 -73.648438 20.84375 -75.796875 29.25 -75.796875 Z M 25.21875 -57.765625 L 25.21875 -47.921875 L 32.53125 -47.921875 L 32.53125 -57.25 C 32.53125 -60.53125 31.226562 -62.171875 28.625 -62.171875 C 26.351562 -62.171875 25.21875 -60.703125 25.21875 -57.765625 Z M 25.21875 -57.765625 "/></g></g></g></g></g></g></g></g></svg>