<svg xmlns="http://www.w3.org/2000/svg" xmlns:xlink="http://www.w3.org/1999/xlink" width="200" zoomAndPan="magnify" viewBox="0 0 150 44.999999" height="60" preserveAspectRatio="xMidYMid meet" version="1.0"><defs><g/><clipPath id="53e4ebe187"><rect x="0" width="116" y="0" height="45"/></clipPath><clipPath id="360fe5099f"><path d="M 19 31 L 28 31 L 28 41.726562 L 19 41.726562 Z M 19 31 " clip-rule="nonzero"/></clipPath><clipPath id="c18499f940"><path d="M 0.75 26 L 11 26 L 11 38 L 0.75 38 Z M 0.75 26 " clip-rule="nonzero"/></clipPath><clipPath id="f98d8361f0"><path d="M 4 2 L 33 2 L 33 41.726562 L 4 41.726562 Z M 4 2 " clip-rule="nonzero"/></clipPath><clipPath id="fa6c5cc5ee"><path d="M 3 1.976562 L 33 1.976562 L 33 41.726562 L 3 41.726562 Z M 3 1.976562 " clip-rule="nonzero"/></clipPath></defs><g transform="matrix(1, 0, 0, 1, 34, 0)"><g clip-path="url(#53e4ebe187)"><g fill="#d9d9d9" fill-opacity="1"><g transform="translate(0.999662, 36.877094)"><g><path d="M 9.484375 0.390625 C 7.691406 0.390625 6.128906 0.0351562 4.796875 -0.671875 C 3.472656 -1.390625 2.453125 -2.382812 1.734375 -3.65625 C 1.023438 -4.925781 0.671875 -6.394531 0.671875 -8.0625 C 0.671875 -8.425781 0.691406 -8.78125 0.734375 -9.125 C 0.773438 -9.46875 0.820312 -9.828125 0.875 -10.203125 L 2.03125 -10.203125 C 1.976562 -9.859375 1.9375 -9.523438 1.90625 -9.203125 C 1.875 -8.890625 1.859375 -8.578125 1.859375 -8.265625 C 1.859375 -6.066406 2.546875 -4.273438 3.921875 -2.890625 C 5.304688 -1.515625 7.242188 -0.828125 9.734375 -0.828125 C 11.472656 -0.828125 13.128906 -1.175781 14.703125 -1.875 C 16.285156 -2.582031 17.628906 -3.625 18.734375 -5 C 19.847656 -6.375 20.578125 -8.082031 20.921875 -10.125 L 23.828125 -26.5625 L 12.578125 -26.5625 L 12.78125 -27.796875 L 25.296875 -27.796875 L 22.1875 -10.125 C 21.789062 -7.90625 20.960938 -6.003906 19.703125 -4.421875 C 18.453125 -2.847656 16.929688 -1.648438 15.140625 -0.828125 C 13.359375 -0.015625 11.472656 0.390625 9.484375 0.390625 Z M 9.484375 0.390625 "/></g></g></g><g fill="#d9d9d9" fill-opacity="1"><g transform="translate(28.751523, 36.877094)"><g><path d="M 14.140625 0.390625 C 11.484375 0.390625 9.289062 -0.171875 7.5625 -1.296875 C 5.832031 -2.421875 4.550781 -3.894531 3.71875 -5.71875 C 2.882812 -7.539062 2.46875 -9.5 2.46875 -11.59375 C 2.46875 -13.46875 2.8125 -15.378906 3.5 -17.328125 C 4.1875 -19.273438 5.222656 -21.0625 6.609375 -22.6875 C 7.992188 -24.3125 9.734375 -25.628906 11.828125 -26.640625 C 13.921875 -27.648438 16.359375 -28.15625 19.140625 -28.15625 C 21.835938 -28.15625 24.050781 -27.632812 25.78125 -26.59375 C 27.519531 -25.5625 28.796875 -24.1875 29.609375 -22.46875 C 30.429688 -20.75 30.84375 -18.859375 30.84375 -16.796875 C 30.84375 -15.867188 30.765625 -14.898438 30.609375 -13.890625 C 30.296875 -12.066406 29.691406 -10.300781 28.796875 -8.59375 C 27.910156 -6.882812 26.757812 -5.351562 25.34375 -4 C 23.925781 -2.65625 22.28125 -1.585938 20.40625 -0.796875 C 18.53125 -0.00390625 16.441406 0.390625 14.140625 0.390625 Z M 14.328125 -0.828125 C 16.421875 -0.828125 18.320312 -1.191406 20.03125 -1.921875 C 21.738281 -2.648438 23.238281 -3.628906 24.53125 -4.859375 C 25.832031 -6.085938 26.882812 -7.484375 27.6875 -9.046875 C 28.5 -10.609375 29.050781 -12.222656 29.34375 -13.890625 C 29.445312 -14.398438 29.519531 -14.890625 29.5625 -15.359375 C 29.601562 -15.835938 29.625 -16.300781 29.625 -16.75 C 29.625 -18.632812 29.238281 -20.34375 28.46875 -21.875 C 27.695312 -23.40625 26.523438 -24.628906 24.953125 -25.546875 C 23.378906 -26.460938 21.363281 -26.921875 18.90625 -26.921875 C 16.488281 -26.921875 14.335938 -26.484375 12.453125 -25.609375 C 10.578125 -24.734375 9 -23.566406 7.71875 -22.109375 C 6.4375 -20.660156 5.457031 -19.039062 4.78125 -17.25 C 4.101562 -15.46875 3.765625 -13.675781 3.765625 -11.875 C 3.765625 -10.445312 3.960938 -9.078125 4.359375 -7.765625 C 4.765625 -6.453125 5.390625 -5.269531 6.234375 -4.21875 C 7.078125 -3.175781 8.164062 -2.347656 9.5 -1.734375 C 10.84375 -1.128906 12.453125 -0.828125 14.328125 -0.828125 Z M 14.328125 -0.828125 "/></g></g></g><g fill="#d9d9d9" fill-opacity="1"><g transform="translate(62.736616, 36.877094)"><g><path d="M 13.5 -26.5625 L 3.09375 -26.5625 L 3.296875 -27.796875 L 25.40625 -27.796875 L 25.21875 -26.5625 L 14.765625 -26.5625 L 10.078125 0 L 8.8125 0 Z M 13.5 -26.5625 "/></g></g></g><g fill="#d9d9d9" fill-opacity="1"><g transform="translate(87.391713, 36.877094)"><g><path d="M 18.1875 -27.796875 L 19.5 -27.796875 L 27.59375 0 L 0.3125 0 Z M 25.96875 -1.1875 L 18.65625 -26.4375 L 2.46875 -1.1875 Z M 25.96875 -1.1875 "/></g></g></g></g></g><g clip-path="url(#360fe5099f)"><path fill="#d9d9d9" d="M 24.691406 31.574219 L 24.6875 31.574219 C 23.828125 31.46875 22.667969 31.335938 21.765625 31.65625 C 23.039062 32.613281 24.046875 33.90625 23.5625 35.285156 C 22.664062 37.832031 20.847656 38.441406 21.777344 38.941406 C 21.777344 38.941406 19.269531 40.089844 19.269531 41.878906 L 23.425781 41.878906 C 23.425781 41.878906 23.929688 40.949219 23.425781 39.730469 C 23.425781 39.730469 24.429688 39.800781 24.574219 38.871094 C 24.71875 37.9375 24.378906 35.734375 26.425781 35.144531 C 27.15625 34.933594 27.28125 34.554688 27.324219 34.121094 C 26.234375 33.601562 25.289062 32.640625 24.691406 31.574219 " fill-opacity="1" fill-rule="nonzero"/><path fill="#2a2a2a" d="M 24.691406 31.574219 L 24.699219 31.460938 L 24.699219 31.457031 L 24.6875 31.574219 L 24.703125 31.460938 C 24.246094 31.402344 23.707031 31.339844 23.160156 31.339844 C 22.667969 31.339844 22.171875 31.390625 21.726562 31.546875 C 21.6875 31.558594 21.660156 31.59375 21.652344 31.636719 C 21.644531 31.679688 21.664062 31.722656 21.695312 31.746094 C 22.214844 32.136719 22.6875 32.582031 23.023438 33.058594 C 23.363281 33.539062 23.570312 34.046875 23.570312 34.570312 C 23.570312 34.792969 23.535156 35.019531 23.453125 35.25 C 23.097656 36.257812 22.597656 36.953125 22.179688 37.464844 C 21.972656 37.722656 21.785156 37.929688 21.644531 38.113281 C 21.578125 38.203125 21.519531 38.285156 21.476562 38.371094 C 21.433594 38.453125 21.40625 38.535156 21.40625 38.621094 C 21.40625 38.707031 21.4375 38.792969 21.492188 38.863281 C 21.546875 38.933594 21.625 38.988281 21.722656 39.042969 L 21.777344 38.941406 L 21.730469 38.835938 C 21.726562 38.839844 21.09375 39.128906 20.453125 39.652344 C 20.132812 39.910156 19.808594 40.230469 19.566406 40.601562 C 19.320312 40.976562 19.15625 41.40625 19.15625 41.878906 C 19.15625 41.910156 19.167969 41.941406 19.1875 41.960938 C 19.210938 41.984375 19.238281 41.996094 19.269531 41.996094 L 23.425781 41.996094 C 23.46875 41.996094 23.507812 41.972656 23.527344 41.933594 C 23.535156 41.925781 23.765625 41.492188 23.765625 40.828125 C 23.765625 40.496094 23.707031 40.109375 23.535156 39.6875 L 23.425781 39.730469 L 23.417969 39.84375 C 23.421875 39.84375 23.441406 39.847656 23.476562 39.847656 C 23.589844 39.847656 23.847656 39.832031 24.105469 39.707031 C 24.234375 39.644531 24.363281 39.550781 24.46875 39.417969 C 24.574219 39.28125 24.652344 39.105469 24.6875 38.886719 C 24.726562 38.640625 24.730469 38.328125 24.75 37.984375 C 24.78125 37.46875 24.847656 36.886719 25.082031 36.386719 C 25.203125 36.136719 25.363281 35.90625 25.585938 35.714844 C 25.804688 35.519531 26.089844 35.359375 26.460938 35.253906 C 26.648438 35.199219 26.804688 35.132812 26.929688 35.054688 C 27.117188 34.9375 27.242188 34.789062 27.316406 34.628906 C 27.390625 34.46875 27.421875 34.300781 27.4375 34.132812 C 27.445312 34.085938 27.417969 34.039062 27.375 34.019531 C 26.308594 33.511719 25.378906 32.566406 24.792969 31.515625 C 24.773438 31.484375 24.738281 31.460938 24.699219 31.460938 L 24.691406 31.574219 L 24.589844 31.628906 C 25.199219 32.714844 26.15625 33.691406 27.273438 34.226562 L 27.324219 34.121094 L 27.210938 34.109375 C 27.1875 34.320312 27.148438 34.5 27.039062 34.648438 C 26.984375 34.722656 26.910156 34.792969 26.808594 34.859375 C 26.703125 34.921875 26.570312 34.980469 26.394531 35.03125 C 25.863281 35.1875 25.480469 35.449219 25.207031 35.769531 C 24.796875 36.253906 24.640625 36.859375 24.570312 37.421875 C 24.535156 37.707031 24.519531 37.980469 24.507812 38.226562 C 24.496094 38.46875 24.484375 38.6875 24.460938 38.851562 C 24.433594 39.039062 24.367188 39.171875 24.289062 39.273438 C 24.167969 39.429688 24.003906 39.515625 23.847656 39.5625 C 23.691406 39.609375 23.546875 39.617188 23.476562 39.617188 C 23.460938 39.617188 23.453125 39.617188 23.445312 39.617188 L 23.433594 39.617188 C 23.394531 39.613281 23.359375 39.632812 23.335938 39.664062 C 23.3125 39.695312 23.304688 39.738281 23.320312 39.773438 C 23.484375 40.164062 23.535156 40.523438 23.535156 40.828125 C 23.535156 41.132812 23.480469 41.386719 23.429688 41.5625 C 23.402344 41.648438 23.375 41.714844 23.355469 41.761719 C 23.347656 41.785156 23.339844 41.800781 23.332031 41.8125 L 23.328125 41.824219 L 23.328125 41.828125 L 23.425781 41.878906 L 23.425781 41.765625 L 19.269531 41.765625 L 19.269531 41.878906 L 19.386719 41.878906 C 19.386719 41.460938 19.53125 41.074219 19.757812 40.726562 C 20.097656 40.210938 20.617188 39.785156 21.050781 39.496094 C 21.265625 39.347656 21.460938 39.238281 21.601562 39.160156 C 21.671875 39.121094 21.730469 39.09375 21.769531 39.074219 C 21.789062 39.066406 21.800781 39.058594 21.8125 39.054688 L 21.828125 39.046875 C 21.867188 39.027344 21.890625 38.988281 21.894531 38.945312 C 21.894531 38.902344 21.871094 38.863281 21.832031 38.839844 C 21.75 38.796875 21.699219 38.753906 21.671875 38.71875 C 21.644531 38.683594 21.636719 38.65625 21.636719 38.621094 C 21.632812 38.585938 21.648438 38.539062 21.679688 38.472656 C 21.738281 38.363281 21.851562 38.21875 21.996094 38.042969 C 22.441406 37.511719 23.1875 36.691406 23.667969 35.324219 C 23.757812 35.070312 23.800781 34.816406 23.800781 34.570312 C 23.800781 33.984375 23.570312 33.429688 23.210938 32.925781 C 22.855469 32.421875 22.367188 31.964844 21.835938 31.5625 L 21.765625 31.65625 L 21.804688 31.761719 C 22.214844 31.621094 22.683594 31.570312 23.160156 31.570312 C 23.691406 31.570312 24.222656 31.632812 24.675781 31.6875 L 24.679688 31.6875 L 24.691406 31.574219 L 24.589844 31.628906 L 24.691406 31.574219 " fill-opacity="1" fill-rule="nonzero"/></g><path fill="#d9d9d9" d="M 8.078125 30.628906 C 8.882812 30.628906 9.582031 30.320312 10.0625 30.035156 C 9.78125 29.917969 9.507812 29.78125 9.234375 29.601562 C 8.707031 29.257812 8.179688 28.90625 7.707031 28.484375 C 7.023438 27.871094 6.457031 27.167969 6.054688 26.359375 C 3.96875 26.390625 1.351562 27.757812 1.089844 28.511719 C 0.769531 29.445312 2.058594 30.808594 2.703125 32.023438 C 3.347656 33.242188 2.738281 33.601562 2.882812 34.320312 C 3.027344 35.035156 3.742188 34.929688 3.742188 34.929688 C 3.242188 36.972656 4.675781 37.832031 4.675781 37.832031 C 5.964844 37.222656 6.679688 35.324219 6.679688 35.324219 C 6.25 34.664062 5.03125 34.03125 5.03125 34.03125 C 5.425781 33.496094 5.246094 32.8125 5.246094 32.8125 C 4.316406 32.417969 3.742188 30.449219 3.742188 30.449219 C 3.742188 30.449219 4.171875 30.304688 4.996094 30.199219 C 5.820312 30.089844 6.574219 30.628906 8.078125 30.628906 " fill-opacity="1" fill-rule="nonzero"/><g clip-path="url(#c18499f940)"><path fill="#2a2a2a" d="M 8.078125 30.628906 L 8.078125 30.742188 C 8.914062 30.742188 9.628906 30.425781 10.121094 30.132812 C 10.15625 30.113281 10.179688 30.070312 10.175781 30.027344 C 10.171875 29.984375 10.144531 29.945312 10.105469 29.929688 C 9.828125 29.8125 9.5625 29.679688 9.296875 29.507812 C 8.769531 29.164062 8.246094 28.8125 7.785156 28.398438 C 7.109375 27.792969 6.550781 27.101562 6.160156 26.308594 C 6.140625 26.265625 6.097656 26.242188 6.054688 26.242188 C 4.984375 26.261719 3.800781 26.617188 2.839844 27.0625 C 2.359375 27.285156 1.9375 27.53125 1.613281 27.769531 C 1.453125 27.890625 1.316406 28.011719 1.207031 28.128906 C 1.101562 28.246094 1.023438 28.359375 0.980469 28.476562 C 0.941406 28.589844 0.925781 28.707031 0.925781 28.832031 C 0.925781 29.078125 1 29.339844 1.113281 29.605469 C 1.285156 30.003906 1.550781 30.421875 1.828125 30.839844 C 2.105469 31.257812 2.390625 31.679688 2.601562 32.078125 C 2.828125 32.507812 2.890625 32.816406 2.890625 33.066406 C 2.890625 33.253906 2.855469 33.410156 2.820312 33.574219 C 2.785156 33.734375 2.746094 33.902344 2.746094 34.089844 C 2.746094 34.167969 2.753906 34.253906 2.769531 34.339844 C 2.800781 34.492188 2.855469 34.617188 2.925781 34.714844 C 3.035156 34.863281 3.175781 34.945312 3.304688 34.992188 C 3.4375 35.039062 3.558594 35.046875 3.644531 35.046875 C 3.710938 35.046875 3.753906 35.042969 3.757812 35.042969 L 3.742188 34.929688 L 3.632812 34.902344 C 3.554688 35.214844 3.519531 35.5 3.519531 35.761719 C 3.519531 36.515625 3.792969 37.058594 4.0625 37.410156 C 4.335938 37.761719 4.605469 37.925781 4.613281 37.929688 C 4.648438 37.949219 4.6875 37.949219 4.722656 37.933594 C 5.402344 37.613281 5.910156 36.96875 6.257812 36.410156 C 6.605469 35.847656 6.785156 35.367188 6.789062 35.363281 C 6.800781 35.328125 6.796875 35.289062 6.777344 35.257812 C 6.542969 34.90625 6.121094 34.582031 5.757812 34.335938 C 5.394531 34.089844 5.089844 33.929688 5.085938 33.929688 L 5.03125 34.03125 L 5.125 34.101562 C 5.351562 33.789062 5.402344 33.445312 5.402344 33.1875 C 5.402344 32.953125 5.359375 32.789062 5.359375 32.785156 C 5.347656 32.75 5.324219 32.722656 5.292969 32.707031 C 5.085938 32.621094 4.886719 32.4375 4.710938 32.207031 C 4.445312 31.863281 4.226562 31.410156 4.078125 31.050781 C 4.003906 30.867188 3.949219 30.710938 3.910156 30.597656 C 3.890625 30.539062 3.875 30.496094 3.867188 30.464844 C 3.863281 30.449219 3.859375 30.4375 3.855469 30.429688 L 3.851562 30.417969 L 3.742188 30.449219 L 3.777344 30.558594 L 3.78125 30.554688 C 3.828125 30.542969 4.246094 30.410156 5.011719 30.3125 C 5.082031 30.300781 5.152344 30.296875 5.21875 30.296875 C 5.570312 30.296875 5.933594 30.40625 6.386719 30.515625 C 6.839844 30.628906 7.382812 30.742188 8.078125 30.742188 L 8.078125 30.511719 C 7.40625 30.511719 6.890625 30.402344 6.441406 30.292969 C 5.996094 30.183594 5.617188 30.070312 5.21875 30.070312 C 5.140625 30.070312 5.0625 30.074219 4.980469 30.082031 C 4.148438 30.191406 3.710938 30.335938 3.707031 30.339844 C 3.648438 30.359375 3.613281 30.421875 3.632812 30.480469 C 3.632812 30.484375 3.777344 30.980469 4.042969 31.53125 C 4.175781 31.808594 4.335938 32.097656 4.527344 32.347656 C 4.71875 32.597656 4.941406 32.808594 5.203125 32.917969 L 5.246094 32.8125 L 5.136719 32.84375 C 5.140625 32.855469 5.171875 32.996094 5.171875 33.1875 C 5.171875 33.414062 5.125 33.710938 4.941406 33.964844 C 4.921875 33.992188 4.914062 34.027344 4.921875 34.058594 C 4.929688 34.089844 4.949219 34.117188 4.980469 34.132812 L 4.992188 34.140625 C 5.058594 34.175781 5.363281 34.339844 5.699219 34.570312 C 6.03125 34.800781 6.398438 35.101562 6.585938 35.386719 L 6.679688 35.324219 L 6.574219 35.28125 L 6.570312 35.285156 C 6.550781 35.335938 6.367188 35.808594 6.03125 36.339844 C 5.699219 36.867188 5.21875 37.449219 4.625 37.726562 L 4.675781 37.832031 L 4.734375 37.734375 L 4.730469 37.738281 L 4.734375 37.734375 L 4.730469 37.738281 L 4.734375 37.734375 C 4.726562 37.726562 4.476562 37.574219 4.234375 37.253906 C 3.992188 36.933594 3.75 36.445312 3.75 35.761719 C 3.75 35.519531 3.78125 35.25 3.855469 34.957031 C 3.863281 34.917969 3.851562 34.878906 3.828125 34.851562 C 3.800781 34.824219 3.761719 34.808594 3.726562 34.816406 C 3.722656 34.816406 3.691406 34.820312 3.644531 34.820312 C 3.554688 34.820312 3.410156 34.804688 3.285156 34.734375 C 3.222656 34.699219 3.164062 34.648438 3.113281 34.582031 C 3.0625 34.511719 3.019531 34.417969 2.996094 34.296875 C 2.980469 34.222656 2.972656 34.15625 2.972656 34.089844 C 2.972656 33.933594 3.007812 33.789062 3.042969 33.625 C 3.082031 33.460938 3.121094 33.28125 3.121094 33.066406 C 3.121094 32.773438 3.042969 32.425781 2.804688 31.972656 C 2.511719 31.417969 2.09375 30.84375 1.753906 30.300781 C 1.582031 30.027344 1.429688 29.761719 1.324219 29.515625 C 1.214844 29.265625 1.152344 29.035156 1.15625 28.832031 C 1.15625 28.730469 1.167969 28.636719 1.199219 28.550781 C 1.222656 28.480469 1.285156 28.386719 1.378906 28.28125 C 1.542969 28.101562 1.808594 27.898438 2.136719 27.695312 C 3.128906 27.082031 4.71875 26.492188 6.058594 26.472656 L 6.054688 26.359375 L 5.953125 26.410156 C 6.363281 27.234375 6.9375 27.949219 7.632812 28.570312 C 8.109375 29 8.644531 29.355469 9.171875 29.699219 C 9.449219 29.882812 9.730469 30.019531 10.015625 30.140625 L 10.0625 30.035156 L 10.003906 29.9375 C 9.535156 30.214844 8.851562 30.511719 8.078125 30.511719 L 8.078125 30.628906 " fill-opacity="1" fill-rule="nonzero"/></g><path fill="#d9d9d9" d="M 31.375 18.585938 C 28.828125 18.585938 28.578125 19.304688 26.320312 19.304688 C 24.972656 19.304688 24.136719 19.113281 23.679688 18.957031 C 23.824219 18.402344 23.585938 17.699219 22.8125 17.363281 C 22.058594 17.035156 20.945312 17.445312 20.550781 16.507812 C 20.570312 17.242188 20.835938 17.988281 21.386719 18.5 C 21.121094 18.386719 20.890625 18.1875 20.710938 17.964844 C 20.710938 17.980469 21.050781 19.0625 21.949219 19.535156 C 22.53125 19.84375 23.007812 19.78125 23.316406 19.53125 C 24.027344 19.914062 25.269531 20.269531 26.464844 20.269531 C 27.933594 20.269531 29.761719 19.660156 31.195312 19.660156 C 32.628906 19.660156 33.238281 20.519531 33.238281 21.203125 C 33.238281 21.882812 32.914062 24.5 29.292969 24.5 C 28.644531 24.5 28.011719 24.425781 27.402344 24.308594 C 27.917969 24.5625 28.441406 24.789062 28.992188 24.976562 C 29.863281 25.277344 30.703125 25.601562 31.410156 26.179688 C 33.960938 25.667969 34.886719 22.734375 34.886719 21.542969 C 34.886719 20.234375 33.917969 18.585938 31.375 18.585938 " fill-opacity="1" fill-rule="nonzero"/><path fill="#2a2a2a" d="M 31.375 18.585938 L 31.375 18.472656 C 30.089844 18.472656 29.375 18.652344 28.710938 18.832031 C 28.042969 19.011719 27.4375 19.1875 26.320312 19.1875 C 24.984375 19.1875 24.160156 19 23.71875 18.847656 L 23.679688 18.957031 L 23.792969 18.984375 C 23.820312 18.875 23.835938 18.761719 23.835938 18.644531 C 23.835938 18.378906 23.761719 18.105469 23.597656 17.863281 C 23.4375 17.617188 23.191406 17.402344 22.859375 17.257812 C 22.652344 17.167969 22.429688 17.132812 22.207031 17.109375 C 21.878906 17.074219 21.542969 17.070312 21.273438 16.992188 C 21.136719 16.957031 21.015625 16.898438 20.914062 16.816406 C 20.8125 16.734375 20.722656 16.625 20.65625 16.460938 C 20.632812 16.410156 20.578125 16.382812 20.527344 16.394531 C 20.472656 16.40625 20.433594 16.457031 20.4375 16.511719 C 20.457031 17.269531 20.730469 18.046875 21.308594 18.582031 L 21.386719 18.5 L 21.429688 18.390625 C 21.1875 18.292969 20.96875 18.105469 20.800781 17.894531 C 20.769531 17.855469 20.714844 17.839844 20.671875 17.855469 C 20.625 17.875 20.59375 17.921875 20.597656 17.96875 L 20.597656 17.988281 L 20.601562 18.003906 C 20.609375 18.035156 20.636719 18.117188 20.691406 18.234375 C 20.765625 18.414062 20.898438 18.671875 21.09375 18.933594 C 21.289062 19.195312 21.550781 19.457031 21.894531 19.636719 C 22.183594 19.789062 22.449219 19.859375 22.691406 19.859375 C 22.964844 19.859375 23.203125 19.769531 23.386719 19.621094 L 23.316406 19.53125 L 23.261719 19.632812 C 23.628906 19.832031 24.125 20.019531 24.683594 20.15625 C 25.238281 20.296875 25.855469 20.386719 26.464844 20.386719 C 27.214844 20.386719 28.042969 20.230469 28.863281 20.078125 C 29.683594 19.925781 30.492188 19.777344 31.195312 19.777344 C 31.886719 19.777344 32.367188 19.984375 32.675781 20.261719 C 32.984375 20.539062 33.121094 20.894531 33.121094 21.203125 C 33.121094 21.527344 33.042969 22.328125 32.53125 23.039062 C 32.273438 23.394531 31.910156 23.730469 31.386719 23.976562 C 30.867188 24.222656 30.1875 24.382812 29.292969 24.382812 C 28.652344 24.382812 28.027344 24.3125 27.425781 24.199219 C 27.367188 24.1875 27.3125 24.21875 27.292969 24.273438 C 27.277344 24.328125 27.300781 24.386719 27.351562 24.414062 C 27.871094 24.667969 28.398438 24.894531 28.953125 25.085938 C 29.820312 25.382812 30.648438 25.707031 31.335938 26.265625 C 31.363281 26.289062 31.398438 26.296875 31.433594 26.289062 C 32.089844 26.160156 32.644531 25.871094 33.101562 25.496094 C 33.789062 24.929688 34.261719 24.171875 34.566406 23.441406 C 34.867188 22.710938 35 22.011719 35 21.542969 C 35 20.859375 34.75 20.09375 34.164062 19.492188 C 33.582031 18.894531 32.667969 18.46875 31.375 18.472656 L 31.375 18.699219 C 32.621094 18.703125 33.464844 19.101562 34 19.652344 C 34.539062 20.207031 34.769531 20.917969 34.769531 21.542969 C 34.769531 21.828125 34.714844 22.226562 34.589844 22.667969 C 34.40625 23.332031 34.066406 24.09375 33.542969 24.730469 C 33.019531 25.367188 32.3125 25.878906 31.386719 26.066406 L 31.410156 26.179688 L 31.480469 26.089844 C 30.757812 25.5 29.902344 25.167969 29.027344 24.867188 C 28.484375 24.679688 27.964844 24.457031 27.453125 24.207031 L 27.402344 24.308594 L 27.382812 24.421875 C 27.996094 24.542969 28.636719 24.613281 29.292969 24.613281 C 30.214844 24.613281 30.929688 24.449219 31.488281 24.183594 C 32.324219 23.789062 32.792969 23.171875 33.046875 22.589844 C 33.304688 22.011719 33.351562 21.472656 33.351562 21.203125 C 33.351562 20.828125 33.183594 20.414062 32.828125 20.089844 C 32.476562 19.769531 31.933594 19.546875 31.195312 19.546875 C 30.460938 19.546875 29.640625 19.699219 28.820312 19.851562 C 28 20.003906 27.183594 20.15625 26.464844 20.15625 C 25.878906 20.15625 25.277344 20.070312 24.738281 19.933594 C 24.195312 19.800781 23.714844 19.617188 23.371094 19.433594 C 23.332031 19.410156 23.28125 19.414062 23.246094 19.441406 C 23.101562 19.558594 22.917969 19.628906 22.691406 19.628906 C 22.496094 19.628906 22.261719 19.574219 22.003906 19.433594 C 21.582031 19.210938 21.28125 18.839844 21.09375 18.519531 C 20.996094 18.359375 20.929688 18.210938 20.882812 18.105469 C 20.863281 18.050781 20.847656 18.007812 20.835938 17.980469 C 20.832031 17.964844 20.828125 17.953125 20.824219 17.945312 L 20.824219 17.9375 L 20.792969 17.945312 L 20.824219 17.941406 L 20.824219 17.9375 L 20.792969 17.945312 L 20.824219 17.941406 L 20.734375 17.960938 L 20.824219 17.945312 L 20.824219 17.941406 L 20.734375 17.960938 L 20.824219 17.945312 L 20.714844 17.964844 L 20.824219 17.957031 L 20.824219 17.945312 L 20.714844 17.964844 L 20.824219 17.957031 L 20.710938 17.964844 L 20.621094 18.035156 C 20.808594 18.269531 21.050781 18.484375 21.34375 18.605469 C 21.394531 18.625 21.453125 18.605469 21.484375 18.5625 C 21.511719 18.515625 21.503906 18.453125 21.464844 18.414062 C 20.941406 17.929688 20.683594 17.214844 20.664062 16.503906 L 20.550781 16.507812 L 20.445312 16.550781 C 20.550781 16.808594 20.714844 16.980469 20.90625 17.089844 C 21.195312 17.253906 21.535156 17.285156 21.863281 17.3125 C 22.191406 17.335938 22.511719 17.355469 22.765625 17.46875 C 23.0625 17.597656 23.273438 17.78125 23.40625 17.988281 C 23.542969 18.195312 23.605469 18.421875 23.605469 18.644531 C 23.605469 18.742188 23.59375 18.835938 23.570312 18.929688 C 23.554688 18.988281 23.585938 19.046875 23.644531 19.066406 C 24.113281 19.226562 24.960938 19.417969 26.320312 19.417969 C 27.460938 19.417969 28.105469 19.234375 28.769531 19.054688 C 29.429688 18.875 30.109375 18.703125 31.375 18.699219 L 31.375 18.585938 " fill-opacity="1" fill-rule="nonzero"/><g clip-path="url(#f98d8361f0)"><path fill="#d9d9d9" d="M 31.984375 36.5 C 32.628906 35.644531 33.773438 33.566406 31.121094 31.703125 C 31.121094 31.703125 32.984375 27.617188 30.621094 26.253906 C 28.253906 24.894531 19.152344 22.957031 16.859375 14.789062 C 16.859375 14.789062 17.453125 14.789062 18.445312 13.425781 C 19.4375 12.0625 19.941406 11.488281 20.730469 11.488281 C 21.519531 11.488281 21.734375 12.277344 22.234375 11.488281 C 22.738281 10.703125 22.738281 9.839844 22.449219 9.269531 C 22.164062 8.695312 21.875 7.976562 20.011719 7.976562 C 18.328125 7.976562 16.644531 6.574219 15.277344 6.726562 C 15.171875 6.59375 15.066406 6.476562 14.957031 6.386719 C 14.957031 6.386719 14.363281 4.628906 16.34375 2.101562 C 16.34375 2.101562 13.824219 3.152344 13.113281 4.289062 C 12.476562 5.3125 12.449219 6.761719 13.316406 7.824219 C 13.21875 7.898438 13.121094 7.976562 13.019531 8.0625 C 12.769531 8.09375 12.496094 8.140625 12.191406 8.195312 C 11.398438 8.347656 10.617188 9.003906 10.125 9.53125 L 10.105469 9.550781 L 10.105469 9.554688 L 10.105469 9.550781 C 9.632812 10.089844 9.359375 10.578125 9.359375 10.578125 C 9.523438 10.519531 9.953125 10.542969 10.484375 10.621094 C 8.214844 13.371094 5.964844 17.578125 5.964844 23.171875 C 5.964844 27.574219 10.265625 29.910156 10.265625 29.910156 C 10.265625 29.910156 10.839844 32.203125 8.976562 33.710938 C 7.109375 35.214844 5.675781 38.441406 6.609375 38.941406 C 6.609375 38.941406 4.101562 40.089844 4.101562 41.878906 L 8.257812 41.878906 C 8.257812 41.878906 8.757812 40.949219 8.257812 39.730469 C 8.257812 39.730469 9.261719 39.800781 9.40625 38.871094 C 9.546875 37.9375 8.257812 37.292969 9.835938 35.859375 C 11.410156 34.425781 12.128906 33.996094 12.703125 33.136719 C 12.75 33.0625 12.800781 32.992188 12.851562 32.925781 C 13.050781 32.5625 13.378906 32.289062 13.699219 32.027344 C 14.128906 31.675781 14.5625 31.328125 15.011719 30.996094 C 15.78125 30.425781 16.636719 30.023438 17.511719 29.652344 C 16.320312 30.347656 15.042969 31.082031 14.371094 32.277344 C 14.371094 32.277344 14.96875 32.632812 16.789062 32.632812 C 19.046875 32.632812 20.820312 30.757812 24.4375 31.183594 C 23.910156 30.195312 23.46875 29.128906 23.566406 28.007812 C 23.648438 28.316406 23.6875 28.640625 23.757812 28.957031 C 23.851562 29.359375 24.050781 29.746094 24.242188 30.109375 C 24.652344 30.882812 25.136719 31.632812 25.703125 32.296875 C 25.996094 32.640625 26.3125 32.960938 26.640625 33.265625 C 26.761719 33.378906 26.878906 33.496094 27.011719 33.59375 C 27.214844 33.734375 27.460938 33.804688 27.652344 33.957031 C 27.804688 34.078125 27.917969 34.246094 28.066406 34.375 C 28.246094 34.527344 28.421875 34.675781 28.605469 34.820312 C 28.605469 34.820312 29.347656 35.296875 29.832031 35.214844 C 29.832031 35.214844 31.195312 37.148438 29.832031 39.085938 C 29.832031 39.085938 27.898438 40.160156 28.113281 41.878906 L 31.480469 41.878906 L 31.480469 39.730469 C 31.480469 39.730469 32.339844 39.945312 32.339844 38.941406 C 32.339844 37.9375 31.335938 37.355469 31.984375 36.5 " fill-opacity="1" fill-rule="nonzero"/></g><g clip-path="url(#fa6c5cc5ee)"><path fill="#2a2a2a" d="M 31.984375 36.5 L 32.074219 36.570312 C 32.417969 36.113281 32.90625 35.316406 32.90625 34.371094 C 32.90625 33.933594 32.800781 33.46875 32.53125 33 C 32.265625 32.53125 31.835938 32.0625 31.1875 31.609375 L 31.121094 31.703125 L 31.226562 31.75 C 31.226562 31.746094 31.40625 31.359375 31.582031 30.785156 C 31.757812 30.207031 31.933594 29.441406 31.933594 28.675781 C 31.933594 28.1875 31.863281 27.699219 31.667969 27.261719 C 31.476562 26.820312 31.160156 26.433594 30.679688 26.15625 C 30.070312 25.808594 29.058594 25.433594 27.839844 24.933594 C 26.007812 24.183594 23.714844 23.15625 21.667969 21.558594 C 19.621094 19.957031 17.824219 17.792969 16.96875 14.757812 L 16.859375 14.789062 L 16.859375 14.902344 C 16.882812 14.902344 17.050781 14.894531 17.339844 14.714844 C 17.628906 14.535156 18.035156 14.183594 18.539062 13.492188 C 19.035156 12.8125 19.40625 12.332031 19.742188 12.03125 C 19.910156 11.882812 20.066406 11.773438 20.226562 11.707031 C 20.382812 11.636719 20.546875 11.605469 20.730469 11.605469 C 20.964844 11.605469 21.144531 11.683594 21.304688 11.765625 C 21.386719 11.808594 21.460938 11.855469 21.542969 11.890625 C 21.621094 11.925781 21.703125 11.957031 21.796875 11.957031 C 21.890625 11.957031 21.988281 11.921875 22.074219 11.855469 C 22.160156 11.789062 22.242188 11.691406 22.332031 11.550781 C 22.628906 11.085938 22.757812 10.589844 22.757812 10.140625 C 22.757812 9.796875 22.683594 9.480469 22.550781 9.21875 C 22.480469 9.074219 22.40625 8.917969 22.304688 8.761719 C 22.152344 8.527344 21.933594 8.296875 21.574219 8.132812 C 21.214844 7.964844 20.722656 7.863281 20.011719 7.863281 C 19.246094 7.863281 18.457031 7.554688 17.695312 7.242188 C 16.929688 6.925781 16.191406 6.601562 15.492188 6.601562 C 15.414062 6.601562 15.339844 6.605469 15.265625 6.613281 L 15.277344 6.726562 L 15.367188 6.65625 C 15.261719 6.519531 15.148438 6.394531 15.03125 6.296875 L 14.957031 6.386719 L 15.066406 6.347656 L 15.042969 6.355469 L 15.066406 6.347656 L 15.042969 6.355469 L 15.066406 6.347656 C 15.066406 6.34375 14.988281 6.109375 14.988281 5.695312 C 14.988281 4.984375 15.210938 3.734375 16.433594 2.171875 C 16.464844 2.132812 16.464844 2.074219 16.433594 2.03125 C 16.402344 1.992188 16.347656 1.976562 16.296875 1.996094 C 16.296875 1.996094 15.664062 2.261719 14.9375 2.667969 C 14.574219 2.875 14.191406 3.113281 13.847656 3.375 C 13.507812 3.640625 13.207031 3.925781 13.015625 4.226562 C 12.703125 4.726562 12.535156 5.328125 12.535156 5.933594 C 12.53125 6.617188 12.75 7.3125 13.226562 7.894531 L 13.316406 7.824219 L 13.242188 7.734375 C 13.148438 7.808594 13.046875 7.890625 12.945312 7.972656 L 13.019531 8.0625 L 13.003906 7.949219 C 12.753906 7.980469 12.476562 8.027344 12.171875 8.085938 C 11.75 8.164062 11.34375 8.375 10.980469 8.628906 C 10.613281 8.886719 10.292969 9.183594 10.039062 9.453125 L 10.125 9.53125 L 10.050781 9.441406 L 10.03125 9.460938 L 10.023438 9.472656 L 10.019531 9.472656 C 9.980469 9.519531 9.976562 9.589844 10.019531 9.632812 C 10.0625 9.675781 10.132812 9.679688 10.179688 9.640625 L 10.105469 9.554688 L 10.019531 9.476562 C 9.539062 10.023438 9.261719 10.519531 9.257812 10.523438 C 9.234375 10.5625 9.238281 10.617188 9.269531 10.652344 C 9.300781 10.6875 9.351562 10.703125 9.398438 10.6875 C 9.433594 10.671875 9.53125 10.660156 9.652344 10.660156 C 9.855469 10.660156 10.140625 10.6875 10.464844 10.734375 L 10.484375 10.621094 L 10.394531 10.546875 C 8.113281 13.3125 5.847656 17.546875 5.847656 23.171875 C 5.847656 25.414062 6.945312 27.125 8.03125 28.273438 C 9.121094 29.417969 10.203125 30.007812 10.210938 30.011719 L 10.265625 29.910156 L 10.152344 29.9375 L 10.152344 29.941406 C 10.160156 29.972656 10.234375 30.285156 10.234375 30.738281 C 10.234375 31.132812 10.179688 31.628906 9.988281 32.136719 C 9.792969 32.644531 9.460938 33.167969 8.902344 33.621094 C 8.15625 34.222656 7.484375 35.085938 7 35.949219 C 6.753906 36.378906 6.554688 36.808594 6.417969 37.207031 C 6.28125 37.605469 6.203125 37.972656 6.203125 38.28125 C 6.203125 38.449219 6.226562 38.601562 6.28125 38.734375 C 6.335938 38.867188 6.429688 38.976562 6.554688 39.042969 L 6.609375 38.941406 L 6.5625 38.835938 C 6.554688 38.839844 5.921875 39.128906 5.28125 39.652344 C 4.960938 39.910156 4.640625 40.230469 4.398438 40.601562 C 4.152344 40.976562 3.984375 41.40625 3.984375 41.878906 C 3.984375 41.910156 4 41.941406 4.019531 41.960938 C 4.039062 41.984375 4.070312 41.996094 4.101562 41.996094 L 8.257812 41.996094 C 8.300781 41.996094 8.339844 41.972656 8.359375 41.933594 C 8.363281 41.925781 8.59375 41.492188 8.597656 40.828125 C 8.597656 40.496094 8.539062 40.109375 8.363281 39.6875 L 8.257812 39.730469 L 8.25 39.84375 C 8.253906 39.84375 8.273438 39.847656 8.308594 39.847656 C 8.417969 39.847656 8.675781 39.832031 8.9375 39.707031 C 9.066406 39.644531 9.195312 39.550781 9.300781 39.417969 C 9.40625 39.28125 9.484375 39.105469 9.519531 38.886719 C 9.527344 38.832031 9.53125 38.773438 9.53125 38.71875 C 9.53125 38.4375 9.429688 38.191406 9.335938 37.953125 C 9.242188 37.714844 9.15625 37.480469 9.15625 37.234375 C 9.15625 37.0625 9.199219 36.878906 9.3125 36.667969 C 9.425781 36.457031 9.613281 36.214844 9.910156 35.945312 C 10.699219 35.230469 11.269531 34.765625 11.71875 34.371094 C 12.171875 33.972656 12.503906 33.640625 12.796875 33.199219 C 12.847656 33.125 12.894531 33.058594 12.945312 32.992188 C 12.980469 32.945312 12.972656 32.875 12.925781 32.835938 C 12.875 32.796875 12.804688 32.804688 12.765625 32.847656 L 12.765625 32.851562 L 12.851562 32.925781 L 12.953125 32.980469 C 13.136719 32.644531 13.453125 32.375 13.769531 32.117188 C 14.199219 31.765625 14.632812 31.417969 15.078125 31.089844 C 15.839844 30.527344 16.683594 30.128906 17.558594 29.757812 L 17.511719 29.652344 L 17.457031 29.554688 C 16.859375 29.902344 16.238281 30.261719 15.675781 30.6875 C 15.117188 31.113281 14.617188 31.605469 14.269531 32.222656 C 14.238281 32.277344 14.257812 32.347656 14.3125 32.378906 C 14.335938 32.390625 14.953125 32.75 16.789062 32.75 C 17.832031 32.75 18.761719 32.363281 19.789062 31.984375 C 20.816406 31.605469 21.941406 31.234375 23.390625 31.234375 C 23.714844 31.234375 24.0625 31.253906 24.421875 31.296875 C 24.464844 31.300781 24.507812 31.28125 24.53125 31.246094 C 24.554688 31.210938 24.558594 31.164062 24.539062 31.128906 C 24.066406 30.238281 23.667969 29.296875 23.667969 28.320312 C 23.667969 28.21875 23.671875 28.117188 23.679688 28.015625 L 23.566406 28.007812 L 23.457031 28.035156 C 23.535156 28.335938 23.574219 28.660156 23.648438 28.980469 C 23.746094 29.402344 23.949219 29.796875 24.140625 30.164062 C 24.554688 30.941406 25.042969 31.699219 25.617188 32.375 C 25.910156 32.71875 26.234375 33.042969 26.5625 33.351562 C 26.679688 33.460938 26.800781 33.582031 26.945312 33.6875 C 27.058594 33.765625 27.175781 33.820312 27.285156 33.875 C 27.398438 33.929688 27.5 33.980469 27.582031 34.046875 C 27.714844 34.152344 27.828125 34.320312 27.992188 34.460938 C 28.171875 34.613281 28.347656 34.765625 28.535156 34.910156 L 28.542969 34.917969 C 28.546875 34.917969 28.707031 35.023438 28.933594 35.125 C 29.160156 35.230469 29.445312 35.335938 29.714844 35.339844 C 29.761719 35.339844 29.804688 35.335938 29.851562 35.328125 L 29.832031 35.214844 L 29.738281 35.28125 C 29.769531 35.324219 30.324219 36.148438 30.324219 37.222656 C 30.324219 37.773438 30.179688 38.394531 29.738281 39.019531 L 29.832031 39.085938 L 29.777344 38.984375 C 29.769531 38.988281 29.328125 39.234375 28.882812 39.683594 C 28.660156 39.90625 28.433594 40.183594 28.265625 40.507812 C 28.09375 40.828125 27.980469 41.203125 27.980469 41.613281 C 27.980469 41.707031 27.984375 41.800781 27.996094 41.894531 C 28.003906 41.953125 28.054688 41.996094 28.113281 41.996094 L 31.480469 41.996094 C 31.511719 41.996094 31.539062 41.984375 31.5625 41.960938 C 31.582031 41.941406 31.59375 41.910156 31.59375 41.878906 L 31.59375 39.730469 L 31.480469 39.730469 L 31.453125 39.839844 C 31.460938 39.84375 31.542969 39.863281 31.667969 39.863281 C 31.808594 39.863281 32.003906 39.835938 32.171875 39.699219 C 32.253906 39.628906 32.328125 39.53125 32.378906 39.40625 C 32.425781 39.28125 32.457031 39.128906 32.457031 38.941406 C 32.457031 38.53125 32.300781 38.195312 32.15625 37.894531 C 32.085938 37.746094 32.015625 37.605469 31.964844 37.472656 C 31.914062 37.335938 31.882812 37.210938 31.882812 37.085938 C 31.882812 36.925781 31.929688 36.761719 32.074219 36.570312 L 31.984375 36.5 L 31.890625 36.429688 C 31.722656 36.652344 31.652344 36.875 31.652344 37.085938 C 31.652344 37.25 31.691406 37.402344 31.75 37.554688 C 31.835938 37.777344 31.957031 37.992188 32.054688 38.21875 C 32.152344 38.445312 32.226562 38.679688 32.226562 38.941406 C 32.226562 39.105469 32.203125 39.230469 32.164062 39.320312 C 32.109375 39.460938 32.027344 39.53125 31.941406 39.578125 C 31.851562 39.621094 31.75 39.636719 31.667969 39.636719 C 31.617188 39.636719 31.578125 39.628906 31.550781 39.625 C 31.535156 39.625 31.523438 39.621094 31.515625 39.621094 L 31.507812 39.621094 L 31.507812 39.617188 L 31.503906 39.644531 L 31.507812 39.617188 L 31.503906 39.644531 L 31.507812 39.617188 C 31.472656 39.609375 31.4375 39.617188 31.410156 39.640625 C 31.382812 39.660156 31.367188 39.695312 31.367188 39.730469 L 31.367188 41.765625 L 28.113281 41.765625 L 28.113281 41.878906 L 28.226562 41.867188 C 28.214844 41.78125 28.210938 41.695312 28.210938 41.613281 C 28.210938 41.246094 28.3125 40.910156 28.46875 40.613281 C 28.703125 40.167969 29.058594 39.808594 29.355469 39.5625 C 29.503906 39.4375 29.636719 39.34375 29.734375 39.28125 C 29.78125 39.25 29.820312 39.226562 29.847656 39.207031 C 29.863281 39.199219 29.871094 39.195312 29.878906 39.191406 L 29.886719 39.1875 C 29.902344 39.175781 29.914062 39.164062 29.925781 39.152344 C 30.394531 38.488281 30.554688 37.816406 30.550781 37.222656 C 30.550781 36.035156 29.933594 35.160156 29.925781 35.148438 C 29.902344 35.113281 29.855469 35.09375 29.8125 35.101562 C 29.78125 35.105469 29.75 35.109375 29.714844 35.109375 C 29.507812 35.109375 29.238281 35.015625 29.027344 34.917969 C 28.925781 34.871094 28.832031 34.820312 28.769531 34.785156 C 28.734375 34.765625 28.710938 34.75 28.691406 34.738281 L 28.671875 34.726562 L 28.667969 34.722656 L 28.605469 34.820312 L 28.675781 34.730469 C 28.496094 34.589844 28.320312 34.4375 28.140625 34.285156 C 28.007812 34.175781 27.894531 34.003906 27.726562 33.867188 C 27.617188 33.78125 27.5 33.722656 27.386719 33.667969 C 27.273438 33.613281 27.167969 33.5625 27.078125 33.5 C 26.957031 33.410156 26.84375 33.296875 26.71875 33.183594 C 26.394531 32.878906 26.078125 32.5625 25.789062 32.222656 C 25.230469 31.566406 24.75 30.820312 24.34375 30.054688 C 24.152344 29.691406 23.960938 29.3125 23.871094 28.929688 C 23.800781 28.625 23.761719 28.300781 23.679688 27.976562 C 23.664062 27.921875 23.613281 27.886719 23.558594 27.890625 C 23.5 27.894531 23.457031 27.941406 23.453125 27.996094 C 23.441406 28.105469 23.4375 28.214844 23.4375 28.320312 C 23.4375 29.359375 23.855469 30.335938 24.335938 31.234375 L 24.4375 31.183594 L 24.449219 31.066406 C 24.078125 31.023438 23.726562 31.003906 23.390625 31.003906 C 21.902344 31.003906 20.742188 31.390625 19.710938 31.769531 C 18.675781 32.148438 17.773438 32.519531 16.789062 32.519531 C 15.882812 32.519531 15.289062 32.433594 14.921875 32.34375 C 14.738281 32.300781 14.613281 32.257812 14.535156 32.226562 C 14.496094 32.210938 14.46875 32.199219 14.449219 32.191406 L 14.433594 32.183594 L 14.429688 32.179688 L 14.394531 32.238281 L 14.429688 32.179688 L 14.394531 32.238281 L 14.429688 32.179688 L 14.371094 32.277344 L 14.472656 32.335938 C 14.796875 31.753906 15.269531 31.28125 15.816406 30.867188 C 16.359375 30.453125 16.976562 30.101562 17.570312 29.753906 C 17.625 29.722656 17.644531 29.65625 17.617188 29.601562 C 17.589844 29.546875 17.523438 29.523438 17.46875 29.546875 C 16.589844 29.917969 15.726562 30.328125 14.941406 30.902344 C 14.492188 31.234375 14.054688 31.585938 13.625 31.941406 C 13.308594 32.199219 12.964844 32.480469 12.75 32.871094 C 12.722656 32.921875 12.738281 32.984375 12.785156 33.019531 C 12.832031 33.054688 12.898438 33.046875 12.9375 33 L 12.851562 32.925781 L 12.761719 32.855469 C 12.710938 32.925781 12.65625 32.996094 12.605469 33.074219 C 12.328125 33.492188 12.015625 33.804688 11.570312 34.195312 C 11.125 34.589844 10.546875 35.054688 9.757812 35.773438 C 9.445312 36.058594 9.238281 36.316406 9.109375 36.558594 C 8.980469 36.800781 8.929688 37.027344 8.929688 37.234375 C 8.929688 37.535156 9.03125 37.796875 9.121094 38.035156 C 9.214844 38.277344 9.300781 38.496094 9.300781 38.71875 C 9.300781 38.765625 9.296875 38.808594 9.292969 38.851562 C 9.261719 39.039062 9.199219 39.171875 9.117188 39.273438 C 9 39.429688 8.835938 39.515625 8.675781 39.5625 C 8.519531 39.609375 8.375 39.617188 8.308594 39.617188 C 8.292969 39.617188 8.28125 39.617188 8.273438 39.617188 L 8.265625 39.617188 C 8.226562 39.613281 8.1875 39.632812 8.164062 39.664062 C 8.140625 39.695312 8.136719 39.738281 8.152344 39.773438 C 8.3125 40.164062 8.367188 40.523438 8.367188 40.828125 C 8.367188 41.132812 8.3125 41.386719 8.257812 41.5625 C 8.234375 41.648438 8.207031 41.714844 8.1875 41.761719 C 8.175781 41.785156 8.167969 41.800781 8.164062 41.8125 L 8.160156 41.824219 L 8.15625 41.824219 L 8.15625 41.828125 L 8.257812 41.878906 L 8.257812 41.765625 L 4.101562 41.765625 L 4.101562 41.878906 L 4.214844 41.878906 C 4.214844 41.460938 4.363281 41.074219 4.589844 40.726562 C 4.925781 40.210938 5.445312 39.785156 5.878906 39.496094 C 6.097656 39.347656 6.292969 39.238281 6.433594 39.160156 C 6.503906 39.121094 6.558594 39.09375 6.597656 39.074219 C 6.617188 39.066406 6.632812 39.058594 6.644531 39.054688 L 6.65625 39.046875 C 6.695312 39.027344 6.722656 38.988281 6.722656 38.945312 C 6.726562 38.902344 6.703125 38.863281 6.664062 38.839844 C 6.589844 38.800781 6.535156 38.738281 6.492188 38.644531 C 6.453125 38.550781 6.433594 38.429688 6.433594 38.28125 C 6.429688 38.011719 6.503906 37.664062 6.636719 37.28125 C 7.03125 36.132812 7.972656 34.664062 9.046875 33.800781 C 9.640625 33.320312 9.996094 32.757812 10.203125 32.21875 C 10.40625 31.675781 10.460938 31.152344 10.464844 30.738281 C 10.460938 30.230469 10.378906 29.890625 10.375 29.882812 C 10.367188 29.851562 10.347656 29.824219 10.320312 29.808594 L 10.308594 29.804688 C 10.1875 29.738281 9.125 29.125 8.097656 28.007812 C 7.070312 26.886719 6.078125 25.265625 6.078125 23.171875 C 6.078125 17.609375 8.316406 13.429688 10.570312 10.691406 C 10.597656 10.660156 10.605469 10.617188 10.589844 10.578125 C 10.574219 10.539062 10.539062 10.511719 10.5 10.507812 C 10.167969 10.457031 9.875 10.429688 9.652344 10.429688 C 9.515625 10.433594 9.410156 10.441406 9.320312 10.46875 L 9.359375 10.578125 L 9.457031 10.632812 L 9.460938 10.628906 C 9.492188 10.578125 9.753906 10.125 10.191406 9.628906 C 10.230469 9.582031 10.230469 9.515625 10.1875 9.472656 C 10.144531 9.429688 10.078125 9.425781 10.03125 9.464844 L 10.105469 9.554688 L 10.1875 9.632812 L 10.207031 9.613281 L 10.121094 9.535156 L 10.191406 9.625 L 10.195312 9.625 L 10.207031 9.613281 C 10.449219 9.351562 10.761719 9.0625 11.109375 8.816406 C 11.457031 8.574219 11.839844 8.382812 12.214844 8.308594 C 12.515625 8.253906 12.785156 8.207031 13.035156 8.175781 C 13.054688 8.171875 13.074219 8.164062 13.089844 8.148438 C 13.191406 8.066406 13.289062 7.988281 13.386719 7.914062 C 13.410156 7.894531 13.425781 7.867188 13.429688 7.835938 C 13.433594 7.804688 13.421875 7.773438 13.402344 7.75 C 12.964844 7.210938 12.761719 6.570312 12.761719 5.933594 C 12.761719 5.371094 12.921875 4.8125 13.210938 4.347656 C 13.375 4.082031 13.65625 3.8125 13.988281 3.558594 C 14.480469 3.179688 15.082031 2.839844 15.558594 2.597656 C 15.796875 2.476562 16.007812 2.378906 16.152344 2.3125 C 16.226562 2.277344 16.285156 2.25 16.324219 2.234375 C 16.367188 2.214844 16.386719 2.207031 16.386719 2.207031 L 16.34375 2.101562 L 16.253906 2.03125 C 15 3.628906 14.757812 4.933594 14.761719 5.695312 C 14.761719 6.152344 14.847656 6.414062 14.847656 6.421875 C 14.855469 6.441406 14.867188 6.460938 14.882812 6.472656 C 14.984375 6.554688 15.085938 6.671875 15.1875 6.796875 C 15.210938 6.828125 15.25 6.84375 15.289062 6.839844 C 15.355469 6.832031 15.421875 6.828125 15.492188 6.828125 C 16.117188 6.828125 16.839844 7.136719 17.605469 7.453125 C 18.371094 7.769531 19.183594 8.09375 20.011719 8.09375 C 20.472656 8.09375 20.828125 8.136719 21.109375 8.210938 C 21.53125 8.320312 21.78125 8.492188 21.957031 8.683594 C 22.136719 8.878906 22.238281 9.101562 22.347656 9.320312 C 22.460938 9.546875 22.527344 9.832031 22.527344 10.140625 C 22.527344 10.546875 22.410156 10.996094 22.136719 11.429688 C 22.058594 11.554688 21.988281 11.628906 21.933594 11.671875 C 21.878906 11.714844 21.839844 11.726562 21.796875 11.726562 C 21.753906 11.726562 21.703125 11.710938 21.636719 11.679688 C 21.441406 11.59375 21.164062 11.375 20.730469 11.375 C 20.519531 11.375 20.320312 11.414062 20.132812 11.496094 C 19.851562 11.617188 19.59375 11.832031 19.3125 12.136719 C 19.03125 12.445312 18.726562 12.847656 18.351562 13.359375 C 17.863281 14.03125 17.476562 14.359375 17.21875 14.519531 C 17.089844 14.601562 16.996094 14.636719 16.933594 14.65625 C 16.902344 14.664062 16.882812 14.667969 16.871094 14.671875 L 16.855469 14.671875 L 16.859375 14.738281 L 16.859375 14.671875 L 16.855469 14.671875 L 16.859375 14.738281 L 16.859375 14.671875 C 16.824219 14.671875 16.789062 14.6875 16.765625 14.71875 C 16.746094 14.746094 16.738281 14.785156 16.75 14.816406 C 17.328125 16.878906 18.335938 18.546875 19.558594 19.910156 C 21.394531 21.957031 23.707031 23.3125 25.78125 24.285156 C 26.820312 24.773438 27.796875 25.164062 28.625 25.5 C 29.453125 25.832031 30.132812 26.105469 30.5625 26.355469 C 31 26.609375 31.28125 26.953125 31.460938 27.351562 C 31.636719 27.753906 31.707031 28.210938 31.703125 28.675781 C 31.707031 29.40625 31.535156 30.15625 31.363281 30.71875 C 31.273438 31 31.1875 31.234375 31.125 31.398438 C 31.09375 31.480469 31.066406 31.546875 31.046875 31.589844 C 31.039062 31.609375 31.03125 31.628906 31.023438 31.640625 C 31.019531 31.648438 31.019531 31.65625 31.019531 31.65625 C 30.996094 31.707031 31.011719 31.765625 31.054688 31.796875 C 31.679688 32.234375 32.085938 32.679688 32.332031 33.117188 C 32.582031 33.550781 32.675781 33.972656 32.675781 34.371094 C 32.675781 35.234375 32.222656 35.996094 31.890625 36.429688 L 31.984375 36.5 " fill-opacity="1" fill-rule="nonzero"/></g><path fill="#2a2a2a" d="M 14.542969 8.882812 C 14.511719 8.941406 14.46875 9.015625 14.40625 9.089844 C 14.34375 9.164062 14.265625 9.242188 14.167969 9.3125 C 14.070312 9.386719 13.953125 9.449219 13.820312 9.496094 C 13.753906 9.519531 13.683594 9.535156 13.613281 9.558594 C 13.542969 9.570312 13.46875 9.585938 13.394531 9.589844 C 13.238281 9.601562 13.089844 9.605469 12.9375 9.597656 C 12.785156 9.589844 12.632812 9.582031 12.480469 9.570312 C 12.328125 9.550781 12.179688 9.535156 12.027344 9.519531 C 11.878906 9.507812 11.734375 9.484375 11.59375 9.46875 C 11.3125 9.4375 11.050781 9.410156 10.828125 9.398438 C 10.605469 9.390625 10.421875 9.402344 10.296875 9.441406 C 10.234375 9.460938 10.191406 9.484375 10.160156 9.503906 L 10.152344 9.511719 C 10.199219 9.46875 10.261719 9.414062 10.277344 9.402344 C 10.398438 9.328125 10.589844 9.261719 10.820312 9.234375 C 11.054688 9.207031 11.328125 9.207031 11.613281 9.21875 C 11.757812 9.226562 11.90625 9.230469 12.054688 9.246094 C 12.203125 9.257812 12.355469 9.269531 12.507812 9.285156 C 12.65625 9.296875 12.808594 9.3125 12.953125 9.320312 C 13.101562 9.332031 13.246094 9.34375 13.378906 9.339844 C 13.445312 9.339844 13.507812 9.328125 13.574219 9.324219 C 13.636719 9.3125 13.699219 9.308594 13.757812 9.292969 C 13.875 9.261719 13.984375 9.222656 14.082031 9.171875 C 14.175781 9.125 14.261719 9.070312 14.328125 9.011719 C 14.398438 8.957031 14.453125 8.898438 14.496094 8.851562 C 14.582031 8.75 14.621094 8.683594 14.621094 8.683594 C 14.621094 8.683594 14.605469 8.757812 14.542969 8.882812 " fill-opacity="1" fill-rule="nonzero"/><path fill="#2a2a2a" d="M 11.390625 28.382812 C 11.285156 28.386719 11.128906 28.367188 10.925781 28.332031 C 10.828125 28.304688 10.71875 28.28125 10.597656 28.246094 C 10.484375 28.199219 10.355469 28.160156 10.230469 28.09375 C 9.964844 27.976562 9.695312 27.804688 9.414062 27.589844 C 9.132812 27.378906 8.851562 27.117188 8.585938 26.820312 C 8.316406 26.523438 8.050781 26.195312 7.808594 25.828125 C 7.746094 25.738281 7.683594 25.648438 7.628906 25.550781 L 7.542969 25.410156 L 7.457031 25.253906 C 7.40625 25.15625 7.351562 25.066406 7.300781 24.960938 C 7.253906 24.851562 7.207031 24.742188 7.15625 24.632812 C 6.980469 24.191406 6.851562 23.734375 6.769531 23.265625 C 6.691406 22.800781 6.65625 22.328125 6.660156 21.867188 C 6.667969 21.40625 6.707031 20.957031 6.769531 20.527344 C 6.835938 20.097656 6.921875 19.6875 7.019531 19.304688 C 7.066406 19.113281 7.117188 18.929688 7.167969 18.75 C 7.222656 18.574219 7.269531 18.40625 7.332031 18.238281 C 7.390625 18.078125 7.445312 17.925781 7.496094 17.777344 C 7.5625 17.632812 7.621094 17.496094 7.679688 17.367188 C 7.792969 17.109375 7.921875 16.902344 8.015625 16.722656 C 8.117188 16.550781 8.207031 16.421875 8.261719 16.332031 C 8.320312 16.246094 8.355469 16.195312 8.355469 16.195312 C 8.355469 16.195312 8.277344 16.414062 8.144531 16.785156 C 8.113281 16.878906 8.082031 16.980469 8.046875 17.09375 C 8.011719 17.207031 7.96875 17.328125 7.9375 17.460938 C 7.902344 17.589844 7.867188 17.726562 7.832031 17.875 C 7.796875 18.027344 7.761719 18.183594 7.726562 18.351562 C 7.664062 18.671875 7.601562 19.035156 7.542969 19.410156 C 7.480469 19.789062 7.441406 20.1875 7.398438 20.601562 C 7.367188 21.011719 7.351562 21.433594 7.355469 21.863281 C 7.367188 22.292969 7.402344 22.722656 7.472656 23.144531 C 7.542969 23.570312 7.660156 23.984375 7.800781 24.375 C 7.839844 24.46875 7.878906 24.5625 7.914062 24.65625 C 7.957031 24.753906 8.007812 24.855469 8.054688 24.949219 L 8.117188 25.085938 L 8.191406 25.222656 C 8.242188 25.316406 8.292969 25.40625 8.34375 25.492188 C 8.550781 25.847656 8.769531 26.179688 8.996094 26.480469 C 9.222656 26.777344 9.449219 27.054688 9.683594 27.28125 C 9.738281 27.34375 9.800781 27.394531 9.855469 27.445312 C 9.914062 27.5 9.972656 27.550781 10.027344 27.597656 C 10.085938 27.644531 10.144531 27.691406 10.195312 27.738281 C 10.253906 27.777344 10.308594 27.820312 10.363281 27.855469 C 10.472656 27.941406 10.585938 27.988281 10.679688 28.054688 C 10.78125 28.109375 10.878906 28.152344 10.96875 28.199219 C 11.058594 28.230469 11.136719 28.261719 11.207031 28.289062 C 11.277344 28.316406 11.347656 28.324219 11.398438 28.339844 C 11.5 28.367188 11.554688 28.382812 11.554688 28.382812 C 11.554688 28.382812 11.5 28.382812 11.390625 28.382812 " fill-opacity="1" fill-rule="nonzero"/><path fill="#2a2a2a" d="M 17.378906 8.675781 C 17.378906 8.675781 17.210938 8.625 17.109375 8.691406 C 17.109375 8.691406 16.542969 9.429688 15.59375 8.285156 C 15.59375 8.285156 16.46875 7.820312 17.378906 8.675781 " fill-opacity="1" fill-rule="nonzero"/><path fill="#2a2a2a" d="M 15.832031 13.222656 C 15.742188 13.199219 15.664062 13.152344 15.585938 13.113281 C 15.515625 13.058594 15.445312 13.015625 15.394531 12.957031 C 15.367188 12.929688 15.339844 12.898438 15.316406 12.875 C 15.292969 12.84375 15.273438 12.8125 15.253906 12.785156 C 15.238281 12.757812 15.214844 12.730469 15.203125 12.703125 C 15.1875 12.675781 15.175781 12.648438 15.164062 12.621094 C 15.109375 12.515625 15.089844 12.410156 15.066406 12.335938 C 15.054688 12.257812 15.050781 12.195312 15.046875 12.15625 C 15.042969 12.113281 15.042969 12.089844 15.042969 12.089844 C 15.042969 12.066406 15.058594 12.046875 15.082031 12.046875 C 15.097656 12.046875 15.109375 12.050781 15.117188 12.0625 C 15.117188 12.0625 15.132812 12.078125 15.15625 12.109375 C 15.183594 12.144531 15.21875 12.195312 15.265625 12.253906 C 15.316406 12.308594 15.359375 12.375 15.433594 12.4375 C 15.464844 12.472656 15.5 12.503906 15.542969 12.535156 C 15.5625 12.550781 15.582031 12.566406 15.601562 12.582031 C 15.621094 12.59375 15.644531 12.605469 15.667969 12.621094 C 15.753906 12.671875 15.851562 12.710938 15.960938 12.726562 C 16.066406 12.746094 16.1875 12.742188 16.320312 12.722656 C 16.449219 12.703125 16.589844 12.671875 16.734375 12.613281 C 16.875 12.5625 17.019531 12.496094 17.164062 12.421875 C 17.308594 12.351562 17.449219 12.265625 17.585938 12.179688 C 17.722656 12.089844 17.859375 12.007812 17.988281 11.917969 C 18.117188 11.828125 18.238281 11.738281 18.355469 11.65625 C 18.472656 11.566406 18.582031 11.484375 18.683594 11.410156 C 18.886719 11.253906 19.054688 11.125 19.175781 11.035156 C 19.292969 10.941406 19.363281 10.890625 19.363281 10.890625 C 19.378906 10.875 19.40625 10.878906 19.417969 10.898438 C 19.429688 10.910156 19.429688 10.929688 19.421875 10.945312 C 19.421875 10.945312 19.375 11.015625 19.285156 11.140625 C 19.195312 11.261719 19.0625 11.433594 18.890625 11.628906 C 18.714844 11.824219 18.503906 12.046875 18.257812 12.261719 C 18.011719 12.484375 17.730469 12.695312 17.417969 12.882812 C 17.265625 12.976562 17.101562 13.058594 16.925781 13.125 C 16.757812 13.195312 16.574219 13.246094 16.386719 13.269531 C 16.203125 13.292969 16.007812 13.277344 15.832031 13.222656 " fill-opacity="1" fill-rule="nonzero"/><path fill="#d9d9d9" d="M 19.378906 3.792969 C 19.273438 6.242188 18.0625 6.964844 18.0625 6.964844 C 17.960938 6.964844 17.851562 6.976562 17.738281 7 C 18.0625 7.15625 18.378906 7.316406 18.71875 7.445312 C 19.074219 7.582031 19.421875 7.625 19.777344 7.648438 C 19.980469 7.347656 20.117188 7.007812 20.167969 6.664062 C 20.320312 5.652344 19.378906 3.792969 19.378906 3.792969 " fill-opacity="1" fill-rule="nonzero"/><path fill="#2a2a2a" d="M 19.378906 3.792969 L 19.265625 3.789062 C 19.214844 4.996094 18.890625 5.765625 18.585938 6.234375 C 18.433594 6.46875 18.285156 6.628906 18.175781 6.730469 C 18.121094 6.78125 18.074219 6.816406 18.046875 6.835938 C 18.03125 6.847656 18.019531 6.855469 18.011719 6.863281 L 18.003906 6.867188 L 18 6.867188 L 18.015625 6.886719 L 18 6.867188 L 18.015625 6.886719 L 18 6.867188 L 18.0625 6.964844 L 18.0625 6.851562 L 18.050781 6.851562 C 17.945312 6.851562 17.832031 6.863281 17.714844 6.886719 C 17.667969 6.894531 17.628906 6.933594 17.625 6.984375 C 17.617188 7.03125 17.644531 7.082031 17.6875 7.101562 C 18.007812 7.257812 18.332031 7.421875 18.675781 7.554688 C 19.046875 7.695312 19.410156 7.738281 19.769531 7.761719 C 19.8125 7.761719 19.851562 7.746094 19.871094 7.710938 C 20.085938 7.398438 20.226562 7.042969 20.28125 6.679688 C 20.296875 6.597656 20.300781 6.511719 20.300781 6.425781 C 20.300781 5.875 20.09375 5.214844 19.890625 4.679688 C 19.6875 4.144531 19.484375 3.746094 19.480469 3.742188 C 19.457031 3.695312 19.40625 3.671875 19.355469 3.683594 C 19.304688 3.695312 19.265625 3.738281 19.265625 3.789062 L 19.378906 3.792969 L 19.277344 3.847656 C 19.277344 3.847656 19.28125 3.851562 19.285156 3.863281 C 19.328125 3.949219 19.527344 4.355469 19.714844 4.859375 C 19.898438 5.363281 20.070312 5.964844 20.070312 6.425781 C 20.070312 6.503906 20.066406 6.578125 20.054688 6.644531 C 20.007812 6.972656 19.878906 7.296875 19.683594 7.582031 L 19.777344 7.644531 L 19.785156 7.53125 C 19.429688 7.511719 19.097656 7.46875 18.757812 7.339844 C 18.429688 7.214844 18.113281 7.050781 17.785156 6.894531 L 17.738281 7 L 17.757812 7.113281 C 17.863281 7.09375 17.964844 7.082031 18.050781 7.082031 L 18.058594 7.082031 C 18.082031 7.082031 18.101562 7.074219 18.121094 7.066406 C 18.132812 7.058594 18.449219 6.863281 18.777344 6.359375 C 19.105469 5.855469 19.441406 5.042969 19.496094 3.800781 L 19.378906 3.792969 L 19.277344 3.847656 L 19.378906 3.792969 " fill-opacity="1" fill-rule="nonzero"/></svg>