<svg xmlns="http://www.w3.org/2000/svg" xmlns:xlink="http://www.w3.org/1999/xlink" width="215" zoomAndPan="magnify" viewBox="0 0 161.25 30.000001" height="40" preserveAspectRatio="xMidYMid meet" version="1.0"><defs><g/><clipPath id="26fc99a7e9"><path d="M 2.238281 0 L 158.285156 0 L 158.285156 29.03125 L 2.238281 29.03125 Z M 2.238281 0 " clip-rule="nonzero"/></clipPath><clipPath id="26ec6222dd"><rect x="0" width="157" y="0" height="30"/></clipPath></defs><g clip-path="url(#26fc99a7e9)"><g transform="matrix(1, 0, 0, 1, 2, 0.000000000000005692)"><g clip-path="url(#26ec6222dd)"><g fill="#ffffff" fill-opacity="1"><g transform="translate(0.41313, 26.870932)"><g><path d="M 6.546875 0.265625 C 5.492188 0.265625 4.441406 0.0820312 3.390625 -0.28125 C 2.347656 -0.65625 1.597656 -1.070312 1.140625 -1.53125 L 2.546875 -4.0625 C 2.921875 -3.726562 3.5 -3.378906 4.28125 -3.015625 C 5.070312 -2.648438 5.828125 -2.46875 6.546875 -2.46875 C 7.484375 -2.46875 8.25 -2.6875 8.84375 -3.125 C 9.4375 -3.570312 9.734375 -4.1875 9.734375 -4.96875 C 9.734375 -5.5625 9.570312 -6.078125 9.25 -6.515625 C 8.9375 -6.960938 8.550781 -7.332031 8.09375 -7.625 C 7.632812 -7.914062 6.976562 -8.273438 6.125 -8.703125 C 5.113281 -9.191406 4.425781 -9.5625 4.0625 -9.8125 C 2.34375 -10.96875 1.484375 -12.5625 1.484375 -14.59375 C 1.484375 -16.269531 2.039062 -17.554688 3.15625 -18.453125 C 4.269531 -19.347656 5.675781 -19.796875 7.375 -19.796875 C 9.195312 -19.796875 10.742188 -19.273438 12.015625 -18.234375 L 10.609375 -15.8125 C 10.273438 -16.164062 9.800781 -16.46875 9.1875 -16.71875 C 8.582031 -16.976562 7.9375 -17.109375 7.25 -17.109375 C 6.363281 -17.109375 5.664062 -16.910156 5.15625 -16.515625 C 4.65625 -16.117188 4.40625 -15.53125 4.40625 -14.75 C 4.40625 -14.195312 4.5625 -13.703125 4.875 -13.265625 C 5.195312 -12.835938 5.597656 -12.460938 6.078125 -12.140625 C 6.566406 -11.828125 7.226562 -11.441406 8.0625 -10.984375 C 8.863281 -10.546875 9.472656 -10.195312 9.890625 -9.9375 C 10.316406 -9.675781 10.71875 -9.367188 11.09375 -9.015625 C 11.601562 -8.554688 12.015625 -8.007812 12.328125 -7.375 C 12.648438 -6.738281 12.8125 -6.039062 12.8125 -5.28125 C 12.8125 -4.09375 12.539062 -3.082031 12 -2.25 C 11.46875 -1.425781 10.726562 -0.800781 9.78125 -0.375 C 8.832031 0.0507812 7.753906 0.265625 6.546875 0.265625 Z M 6.546875 0.265625 "/></g></g></g><g fill="#ffffff" fill-opacity="1"><g transform="translate(14.335737, 26.870932)"><g><path d="M 7.078125 -9.09375 L 5.859375 -11.859375 L 5.3125 -9.09375 L 3.5 0 L 0.5625 0 L 4.59375 -19.5 L 4.90625 -19.5 L 10.265625 -8.96875 L 11.859375 -5.4375 L 13.453125 -8.96875 L 18.703125 -19.5 L 19 -19.5 L 23.1875 0 L 20.265625 0 L 18.3125 -9.09375 L 17.71875 -11.859375 L 16.65625 -9.09375 L 11.9375 0 L 11.78125 0 Z M 7.078125 -9.09375 "/></g></g></g><g fill="#ffffff" fill-opacity="1"><g transform="translate(38.070457, 26.870932)"><g><path d="M 9.203125 -19.53125 L 18.59375 0 L 15.171875 0 L 13.5 -3.828125 L 4.5625 -3.828125 L 2.890625 0 L -0.421875 0 L 8.921875 -19.53125 Z M 7.875 -11.21875 L 5.75 -6.5 L 12.34375 -6.5 L 10.234375 -11.203125 L 9.09375 -13.875 L 9.046875 -13.875 Z M 7.875 -11.21875 "/></g></g></g><g fill="#ffffff" fill-opacity="1"><g transform="translate(56.236144, 26.870932)"><g><path d="M 4.96875 -12.625 L 5.046875 -10.5 L 5.046875 0 L 2.0625 0 L 2.0625 -19.53125 L 2.4375 -19.53125 L 13.90625 -6.734375 L 13.796875 -8.96875 L 13.796875 -19.5 L 16.765625 -19.5 L 16.765625 0 L 16.375 0 Z M 4.96875 -12.625 "/></g></g></g><g fill="#ffffff" fill-opacity="1"><g transform="translate(75.064808, 26.870932)"><g><path d="M 2.421875 -19.5 L 5.390625 -19.5 L 5.390625 0 L 2.421875 0 Z M 2.421875 -19.5 "/></g></g></g><g fill="#ffffff" fill-opacity="1"><g transform="translate(82.861466, 26.870932)"><g><path d="M 11.03125 0.265625 C 9.269531 0.265625 7.640625 -0.144531 6.140625 -0.96875 C 4.648438 -1.789062 3.460938 -2.960938 2.578125 -4.484375 C 1.691406 -6.003906 1.25 -7.773438 1.25 -9.796875 C 1.25 -11.828125 1.691406 -13.597656 2.578125 -15.109375 C 3.460938 -16.617188 4.648438 -17.78125 6.140625 -18.59375 C 7.640625 -19.40625 9.269531 -19.8125 11.03125 -19.8125 C 12.800781 -19.8125 14.429688 -19.40625 15.921875 -18.59375 C 17.421875 -17.78125 18.613281 -16.617188 19.5 -15.109375 C 20.382812 -13.597656 20.828125 -11.828125 20.828125 -9.796875 C 20.828125 -7.773438 20.382812 -6.003906 19.5 -4.484375 C 18.613281 -2.960938 17.421875 -1.789062 15.921875 -0.96875 C 14.429688 -0.144531 12.800781 0.265625 11.03125 0.265625 Z M 11.03125 -2.421875 C 12.257812 -2.421875 13.375 -2.707031 14.375 -3.28125 C 15.382812 -3.851562 16.1875 -4.691406 16.78125 -5.796875 C 17.375 -6.898438 17.671875 -8.222656 17.671875 -9.765625 C 17.671875 -11.316406 17.375 -12.644531 16.78125 -13.75 C 16.1875 -14.863281 15.390625 -15.703125 14.390625 -16.265625 C 13.390625 -16.828125 12.269531 -17.109375 11.03125 -17.109375 C 9.800781 -17.109375 8.679688 -16.828125 7.671875 -16.265625 C 6.660156 -15.703125 5.863281 -14.863281 5.28125 -13.75 C 4.695312 -12.644531 4.40625 -11.316406 4.40625 -9.765625 C 4.40625 -8.222656 4.703125 -6.898438 5.296875 -5.796875 C 5.898438 -4.691406 6.710938 -3.851562 7.734375 -3.28125 C 8.753906 -2.707031 9.851562 -2.421875 11.03125 -2.421875 Z M 11.03125 -2.421875 "/></g></g></g><g fill="#ffffff" fill-opacity="1"><g transform="translate(104.925476, 26.870932)"><g><path d="M 5.78125 -16.90625 L 0.796875 -16.90625 L 0.796875 -19.5 L 13.765625 -19.5 L 13.765625 -16.90625 L 8.734375 -16.90625 L 8.734375 0 L 5.78125 0 Z M 5.78125 -16.90625 "/></g></g></g><g fill="#ffffff" fill-opacity="1"><g transform="translate(119.48454, 26.870932)"><g><path d="M 5.78125 -16.90625 L 0.796875 -16.90625 L 0.796875 -19.5 L 13.765625 -19.5 L 13.765625 -16.90625 L 8.734375 -16.90625 L 8.734375 0 L 5.78125 0 Z M 5.78125 -16.90625 "/></g></g></g><g fill="#ffffff" fill-opacity="1"><g transform="translate(134.043604, 26.870932)"><g><path d="M 11.03125 0.265625 C 9.269531 0.265625 7.640625 -0.144531 6.140625 -0.96875 C 4.648438 -1.789062 3.460938 -2.960938 2.578125 -4.484375 C 1.691406 -6.003906 1.25 -7.773438 1.25 -9.796875 C 1.25 -11.828125 1.691406 -13.597656 2.578125 -15.109375 C 3.460938 -16.617188 4.648438 -17.78125 6.140625 -18.59375 C 7.640625 -19.40625 9.269531 -19.8125 11.03125 -19.8125 C 12.800781 -19.8125 14.429688 -19.40625 15.921875 -18.59375 C 17.421875 -17.78125 18.613281 -16.617188 19.5 -15.109375 C 20.382812 -13.597656 20.828125 -11.828125 20.828125 -9.796875 C 20.828125 -7.773438 20.382812 -6.003906 19.5 -4.484375 C 18.613281 -2.960938 17.421875 -1.789062 15.921875 -0.96875 C 14.429688 -0.144531 12.800781 0.265625 11.03125 0.265625 Z M 11.03125 -2.421875 C 12.257812 -2.421875 13.375 -2.707031 14.375 -3.28125 C 15.382812 -3.851562 16.1875 -4.691406 16.78125 -5.796875 C 17.375 -6.898438 17.671875 -8.222656 17.671875 -9.765625 C 17.671875 -11.316406 17.375 -12.644531 16.78125 -13.75 C 16.1875 -14.863281 15.390625 -15.703125 14.390625 -16.265625 C 13.390625 -16.828125 12.269531 -17.109375 11.03125 -17.109375 C 9.800781 -17.109375 8.679688 -16.828125 7.671875 -16.265625 C 6.660156 -15.703125 5.863281 -14.863281 5.28125 -13.75 C 4.695312 -12.644531 4.40625 -11.316406 4.40625 -9.765625 C 4.40625 -8.222656 4.703125 -6.898438 5.296875 -5.796875 C 5.898438 -4.691406 6.710938 -3.851562 7.734375 -3.28125 C 8.753906 -2.707031 9.851562 -2.421875 11.03125 -2.421875 Z M 11.03125 -2.421875 "/></g></g></g></g></g></g></svg>