<svg xmlns="http://www.w3.org/2000/svg" xmlns:xlink="http://www.w3.org/1999/xlink" width="215" zoomAndPan="magnify" viewBox="0 0 161.25 30.000001" height="40" preserveAspectRatio="xMidYMid meet" version="1.0"><defs><g/><clipPath id="4d8ebac326"><path d="M 123.625 21.300781 L 130.710938 21.300781 L 130.710938 27.894531 L 123.625 27.894531 Z M 123.625 21.300781 " clip-rule="nonzero"/></clipPath><clipPath id="4972e49902"><path d="M 125.078125 21.300781 L 129.257812 21.300781 C 130.058594 21.300781 130.710938 21.949219 130.710938 22.75 L 130.710938 26.441406 C 130.710938 27.242188 130.058594 27.894531 129.257812 27.894531 L 125.078125 27.894531 C 124.277344 27.894531 123.625 27.242188 123.625 26.441406 L 123.625 22.75 C 123.625 21.949219 124.277344 21.300781 125.078125 21.300781 Z M 125.078125 21.300781 " clip-rule="nonzero"/></clipPath><clipPath id="771bcf4094"><path d="M 0.625 0.300781 L 7.710938 0.300781 L 7.710938 6.894531 L 0.625 6.894531 Z M 0.625 0.300781 " clip-rule="nonzero"/></clipPath><clipPath id="e33053fcc6"><path d="M 2.078125 0.300781 L 6.257812 0.300781 C 7.058594 0.300781 7.710938 0.949219 7.710938 1.75 L 7.710938 5.441406 C 7.710938 6.242188 7.058594 6.894531 6.257812 6.894531 L 2.078125 6.894531 C 1.277344 6.894531 0.625 6.242188 0.625 5.441406 L 0.625 1.75 C 0.625 0.949219 1.277344 0.300781 2.078125 0.300781 Z M 2.078125 0.300781 " clip-rule="nonzero"/></clipPath><clipPath id="0775c51a04"><rect x="0" width="8" y="0" height="7"/></clipPath><clipPath id="e7e212a181"><path d="M 148.300781 0 L 158.285156 0 L 158.285156 9.472656 L 148.300781 9.472656 Z M 148.300781 0 " clip-rule="nonzero"/></clipPath><clipPath id="b95f69f9b1"><path d="M 149.753906 0 L 156.835938 0 C 157.636719 0 158.285156 0.648438 158.285156 1.453125 L 158.285156 8.023438 C 158.285156 8.824219 157.636719 9.472656 156.835938 9.472656 L 149.753906 9.472656 C 148.949219 9.472656 148.300781 8.824219 148.300781 8.023438 L 148.300781 1.453125 C 148.300781 0.648438 148.949219 0 149.753906 0 Z M 149.753906 0 " clip-rule="nonzero"/></clipPath><clipPath id="2ba31f44df"><path d="M 0.300781 0 L 10.285156 0 L 10.285156 9.472656 L 0.300781 9.472656 Z M 0.300781 0 " clip-rule="nonzero"/></clipPath><clipPath id="a4dcec38e3"><path d="M 1.753906 0 L 8.835938 0 C 9.636719 0 10.285156 0.648438 10.285156 1.453125 L 10.285156 8.023438 C 10.285156 8.824219 9.636719 9.472656 8.835938 9.472656 L 1.753906 9.472656 C 0.949219 9.472656 0.300781 8.824219 0.300781 8.023438 L 0.300781 1.453125 C 0.300781 0.648438 0.949219 0 1.753906 0 Z M 1.753906 0 " clip-rule="nonzero"/></clipPath><clipPath id="50fb00aa0a"><rect x="0" width="11" y="0" height="10"/></clipPath><clipPath id="f6d864eee7"><path d="M 131.789062 6.765625 L 146.902344 6.765625 L 146.902344 22.234375 L 131.789062 22.234375 Z M 131.789062 6.765625 " clip-rule="nonzero"/></clipPath><clipPath id="d3f106910f"><path d="M 133.300781 6.824219 L 145.453125 6.824219 C 146.253906 6.824219 146.902344 7.476562 146.902344 8.277344 L 146.902344 20.753906 C 146.902344 21.558594 146.253906 22.207031 145.453125 22.207031 L 133.300781 22.207031 C 132.5 22.207031 131.847656 21.558594 131.847656 20.753906 L 131.847656 8.277344 C 131.847656 7.476562 132.5 6.824219 133.300781 6.824219 Z M 133.300781 6.824219 " clip-rule="nonzero"/></clipPath><clipPath id="74933e0025"><path d="M 0.839844 0.765625 L 15.902344 0.765625 L 15.902344 16.234375 L 0.839844 16.234375 Z M 0.839844 0.765625 " clip-rule="nonzero"/></clipPath><clipPath id="8d86d2686c"><path d="M 2.300781 0.824219 L 14.453125 0.824219 C 15.253906 0.824219 15.902344 1.476562 15.902344 2.277344 L 15.902344 14.753906 C 15.902344 15.558594 15.253906 16.207031 14.453125 16.207031 L 2.300781 16.207031 C 1.5 16.207031 0.847656 15.558594 0.847656 14.753906 L 0.847656 2.277344 C 0.847656 1.476562 1.5 0.824219 2.300781 0.824219 Z M 2.300781 0.824219 " clip-rule="nonzero"/></clipPath><clipPath id="77a2ccb440"><rect x="0" width="16" y="0" height="17"/></clipPath></defs><g fill="#ffffff" fill-opacity="1"><g transform="translate(3.689514, 27.94355)"><g><path d="M 10.578125 -27.21875 L 17.46875 -27.21875 L 27.609375 0 L 20.328125 0 L 18.8125 -4.296875 L 9.09375 -4.296875 L 7.578125 0 L 0.359375 0 Z M 16.75 -10 L 13.9375 -17.90625 L 11.078125 -10 Z M 16.75 -10 "/></g></g></g><g fill="#ffffff" fill-opacity="1"><g transform="translate(31.656375, 27.94355)"><g><path d="M 16.5625 0.5 C 13.488281 0.5 10.796875 -0.0625 8.484375 -1.1875 C 6.171875 -2.320312 4.390625 -3.9375 3.140625 -6.03125 C 1.890625 -8.125 1.265625 -10.566406 1.265625 -13.359375 C 1.265625 -16.148438 1.90625 -18.632812 3.1875 -20.8125 C 4.476562 -22.988281 6.289062 -24.679688 8.625 -25.890625 C 10.957031 -27.109375 13.617188 -27.71875 16.609375 -27.71875 C 17.898438 -27.71875 19.179688 -27.613281 20.453125 -27.40625 C 21.734375 -27.207031 22.859375 -26.925781 23.828125 -26.5625 L 23.828125 -19.484375 C 21.847656 -20.671875 19.703125 -21.265625 17.390625 -21.265625 C 14.554688 -21.265625 12.359375 -20.570312 10.796875 -19.1875 C 9.234375 -17.800781 8.453125 -15.90625 8.453125 -13.5 C 8.453125 -11.144531 9.242188 -9.296875 10.828125 -7.953125 C 12.410156 -6.617188 14.632812 -5.953125 17.5 -5.953125 C 20.25 -5.953125 22.597656 -6.710938 24.546875 -8.234375 L 24.546875 -1.234375 C 23.554688 -0.671875 22.378906 -0.242188 21.015625 0.046875 C 19.660156 0.347656 18.175781 0.5 16.5625 0.5 Z M 16.5625 0.5 "/></g></g></g><g fill="#ffffff" fill-opacity="1"><g transform="translate(58.10761, 27.94355)"><g><path d="M 6.09375 -21 L 0.859375 -21 L 0.859375 -27.21875 L 18.328125 -27.21875 L 18.328125 -21 L 13.171875 -21 L 13.171875 0 L 6.09375 0 Z M 6.09375 -21 "/></g></g></g><g fill="#ffffff" fill-opacity="1"><g transform="translate(77.305509, 27.94355)"><g><path d="M 13.359375 0.5 C 11.117188 0.5 9.160156 0.09375 7.484375 -0.71875 C 5.816406 -1.539062 4.53125 -2.695312 3.625 -4.1875 C 2.726562 -5.675781 2.28125 -7.410156 2.28125 -9.390625 L 2.28125 -27.21875 L 9.34375 -27.21875 L 9.34375 -10.25 C 9.34375 -8.875 9.6875 -7.800781 10.375 -7.03125 C 11.0625 -6.269531 12.039062 -5.890625 13.3125 -5.890625 C 14.539062 -5.890625 15.507812 -6.28125 16.21875 -7.0625 C 16.925781 -7.84375 17.28125 -8.90625 17.28125 -10.25 L 17.28125 -27.21875 L 24.359375 -27.21875 L 24.359375 -9.390625 C 24.359375 -7.410156 23.90625 -5.675781 23 -4.1875 C 22.101562 -2.695312 20.820312 -1.539062 19.15625 -0.71875 C 17.5 0.09375 15.566406 0.5 13.359375 0.5 Z M 13.359375 0.5 "/></g></g></g><g fill="#ffffff" fill-opacity="1"><g transform="translate(103.937176, 27.94355)"><g><path d="M 8.1875 0.5 C 7.101562 0.5 5.992188 0.394531 4.859375 0.1875 C 3.734375 -0.0078125 2.726562 -0.3125 1.84375 -0.71875 L 1.84375 -6.78125 C 2.800781 -6.351562 3.765625 -6.023438 4.734375 -5.796875 C 5.710938 -5.566406 6.613281 -5.453125 7.4375 -5.453125 C 8.488281 -5.453125 9.296875 -5.648438 9.859375 -6.046875 C 10.429688 -6.441406 10.71875 -6.988281 10.71875 -7.6875 C 10.71875 -8.332031 10.453125 -8.90625 9.921875 -9.40625 C 9.390625 -9.914062 8.550781 -10.554688 7.40625 -11.328125 C 6.175781 -12.097656 5.144531 -12.84375 4.3125 -13.5625 C 3.476562 -14.289062 2.78125 -15.1875 2.21875 -16.25 C 1.65625 -17.320312 1.375 -18.570312 1.375 -20 C 1.375 -21.539062 1.734375 -22.894531 2.453125 -24.0625 C 3.171875 -25.226562 4.195312 -26.128906 5.53125 -26.765625 C 6.875 -27.398438 8.4375 -27.71875 10.21875 -27.71875 C 12.019531 -27.71875 13.882812 -27.476562 15.8125 -27 L 15.8125 -20.96875 C 13.9375 -21.550781 12.382812 -21.84375 11.15625 -21.84375 C 10.332031 -21.84375 9.703125 -21.675781 9.265625 -21.34375 C 8.835938 -21.019531 8.625 -20.59375 8.625 -20.0625 C 8.625 -19.46875 8.867188 -18.945312 9.359375 -18.5 C 9.859375 -18.050781 10.6875 -17.476562 11.84375 -16.78125 C 13.113281 -15.988281 14.160156 -15.257812 14.984375 -14.59375 C 15.816406 -13.9375 16.535156 -13.066406 17.140625 -11.984375 C 17.742188 -10.898438 18.046875 -9.597656 18.046875 -8.078125 C 18.046875 -6.367188 17.640625 -4.863281 16.828125 -3.5625 C 16.023438 -2.269531 14.878906 -1.269531 13.390625 -0.5625 C 11.898438 0.144531 10.164062 0.5 8.1875 0.5 Z M 8.1875 0.5 "/></g></g></g><g clip-path="url(#4d8ebac326)"><g clip-path="url(#4972e49902)"><g transform="matrix(1, 0, 0, 1, 123, 21)"><g clip-path="url(#0775c51a04)"><g clip-path="url(#771bcf4094)"><g clip-path="url(#e33053fcc6)"><path fill="#ffffff" d="M 0.625 0.300781 L 7.710938 0.300781 L 7.710938 6.894531 L 0.625 6.894531 Z M 0.625 0.300781 " fill-opacity="1" fill-rule="nonzero"/></g></g></g></g></g></g><g clip-path="url(#e7e212a181)"><g clip-path="url(#b95f69f9b1)"><g transform="matrix(1, 0, 0, 1, 148, 0.000000000000005692)"><g clip-path="url(#50fb00aa0a)"><g clip-path="url(#2ba31f44df)"><g clip-path="url(#a4dcec38e3)"><path fill="#ffffff" d="M 0.300781 0 L 10.292969 0 L 10.292969 9.472656 L 0.300781 9.472656 Z M 0.300781 0 " fill-opacity="1" fill-rule="nonzero"/></g></g></g></g></g></g><g clip-path="url(#f6d864eee7)"><g clip-path="url(#d3f106910f)"><g transform="matrix(1, 0, 0, 1, 131, 6)"><g clip-path="url(#77a2ccb440)"><g clip-path="url(#74933e0025)"><g clip-path="url(#8d86d2686c)"><path fill="#ffffff" d="M 0.847656 0.824219 L 15.902344 0.824219 L 15.902344 16.234375 L 0.847656 16.234375 Z M 0.847656 0.824219 " fill-opacity="1" fill-rule="nonzero"/></g></g></g></g></g></g></svg>