<svg version="1.1" id="Camada_1" xmlns="http://www.w3.org/2000/svg" x="0" y="0" viewBox="0 0 57.2 20" style="enable-background:new 0 0 57.2 20" xml:space="preserve"><style>.st0{fill:#4680c1}.st1{fill:#fff}</style><path class="st0" d="M29.6 7.1h-3L26 8.5h-1.5L27.3 2h1.5l2.9 6.5h-1.5l-.6-1.4zM29.1 6l-1-2.5-1 2.5h2zM36.5 8.5l-1.2-1.8h-1.4v1.8h-1.5V2h2.8C36.9 2 38 3 38 4.3c0 1-.5 1.7-1.3 2l1.5 2.1-1.7.1zm-1.4-5.2h-1.2v2.2h1.2c.9 0 1.4-.4 1.4-1.2 0-.6-.5-1-1.4-1zM41.6 6l-.8.9v1.6h-1.5V2h1.5v3l2.9-3h1.7l-2.7 2.9 2.9 3.6h-1.8L41.6 6zM51.1 7.3v1.2h-5V2H51v1.2h-3.4v1.4h3v1.2h-3v1.5h3.5zM53.6 3.3h-2.1V2h5.7v1.2h-2.1v5.3h-1.5V3.3z"/><path class="st1" d="M29.6 17.4h-3l-.6 1.4h-1.5l2.9-6.5h1.5l2.9 6.5h-1.5l-.7-1.4zm-.5-1.2-1-2.5-1 2.5h2zM34.8 16.2l-.9.9v1.6h-1.5v-6.5h1.5v3l2.9-3h1.7L35.8 15l2.9 3.6h-1.8l-2.1-2.4zM44.3 17.5v1.2h-5v-6.5h5v1.2h-3.4v1.4h3V16h-3v1.5h3.4zM49.6 18.8 48.4 17H47v1.8h-1.5v-6.5h2.8c1.7 0 2.8.9 2.8 2.3 0 1-.5 1.7-1.3 2l1.5 2.1-1.7.1zm-1.4-5.3H47v2.2h1.2c.9 0 1.4-.4 1.4-1.2 0-.6-.5-1-1.4-1zM51.8 18.1l.5-1.2c.5.4 1.4.7 2.2.7.8 0 1.2-.3 1.2-.7 0-1.2-3.8-.4-3.8-2.8 0-1.1.8-2 2.7-2 .8 0 1.6.2 2.2.5l-.5 1.2c-.6-.3-1.2-.5-1.8-.5-.8 0-1.2.3-1.2.8 0 1.2 3.8.4 3.8 2.7 0 1.1-.9 2-2.8 2-.9 0-1.9-.3-2.5-.7z"/><path class="st0" d="M0 20h4V8.4l6 9.8v-5.8L2.6 0H0v20z"/><path class="st1" d="M21.5 20h-4V8.4l-6 9.8v-5.8L18.8 0h2.6l.1 20z"/></svg>